<svg width="1440" height="1024" viewBox="0 0 1440 1024" fill="none" xmlns="http://www.w3.org/2000/svg">
<rect x="24" y="963" width="1392" height="39" stroke="black" stroke-width="2"/>
<path d="M963.249 486.397L971.979 523.763L935.002 534M1097.29 383L1095.75 449.542L1162 453.125" stroke="black" stroke-width="2"/>
<path d="M1148.67 400C1148.67 400 1091.11 442.534 1070.33 481.5C1029.89 557.363 1024.82 642.753 1024.77 748.555C1024.74 807.057 1038.59 897.717 1038.59 897.717C1038.59 897.717 1049.45 803.28 1045.25 742.917C1040.24 670.934 1045.25 631.477 1007.87 561.976C990.639 529.93 936.194 502.516 936.194 502.516M975.616 598.882V607.596C975.616 607.596 1011.43 601.523 1023.23 616.309C1033.86 629.637 967.425 664.492 967.425 664.492L928.002 950H1163L1102.08 652.19C1102.08 652.19 1030.4 635.275 1036.54 618.36C1044.24 597.153 1088.76 593.756 1088.76 593.756L1087.23 584.017L975.616 598.882Z" stroke="black" stroke-width="2"/>
<path d="M1087.6 494.119C1093.48 477.794 1106.02 461.303 1096.29 450.537C1086.37 439.55 1069.69 448.485 1059.46 450.537C1049.22 452.589 1018.14 472.847 1004.2 456.69C987.826 437.718 1005.37 376.246 1039.5 346.966C1077.36 314.482 1142.39 312.019 1185.32 349.529C1235.17 393.089 1238.06 477.289 1186.86 519.243C1153.23 546.793 1084.02 561.287 1076.85 535.65C1072.34 519.516 1080.95 512.578 1087.6 494.119Z" stroke="black" stroke-width="2"/>
<path d="M997.24 522.038C987.263 521.663 976.027 517.663 971.832 524.886C967.55 532.256 975.372 539.856 978.291 545.117C981.209 550.377 997.76 563.903 991.351 574.386C983.824 586.697 947.06 587.815 925.03 574.196C900.591 559.086 887.839 523.804 900.869 493.667C916 458.669 961.637 442.352 993.605 463.131C1014.6 476.776 1034.68 512.253 1021.88 520.672C1013.83 525.971 1008.52 522.461 997.24 522.038Z" stroke="black" stroke-width="2"/>
</svg>
