<svg width="64" height="548" viewBox="0 0 64 548" fill="none" xmlns="http://www.w3.org/2000/svg">
<rect width="64" height="548" fill="#FEAA46"/>
<path d="M54 483.656V490.76L45.872 491.976V500.616L54 501.832V508.296L9.2 501.128V490.824L54 483.656ZM39.792 499.72V492.936L17.136 496.328L39.792 499.72ZM9.2 451.705V429.945H15.6V437.305H54V444.345H15.6V451.705H9.2ZM47.664 398.109C47.664 397.298 47.6213 396.637 47.536 396.125C47.4507 395.57 47.2587 395.122 46.96 394.781C46.6187 394.44 46.1493 394.205 45.552 394.077C44.912 393.906 44.08 393.8 43.056 393.757L9.2 392.605V372.701H54V379.869H15.6V386.013L42.672 386.781C46.768 386.909 49.6907 387.784 51.44 389.405C53.1893 390.984 54.064 393.522 54.064 397.021V398.109H47.664ZM54 313.808V320.912L45.872 322.128V330.768L54 331.984V338.448L9.2 331.28V320.976L54 313.808ZM39.792 329.872V323.088L17.136 326.48L39.792 329.872ZM54 272.77V279.81H9.2V272.77H28.4V264.77H9.2V257.602H54V264.77H34.8V272.77H54ZM9.2 223.825V202.065H15.6V209.425H54V216.465H15.6V223.825H9.2ZM54 161.013V168.245H9.2V161.973H37.552L27.696 159.413L9.2 153.653V145.909H54V152.245H22.448L33.456 155.125L54 161.013ZM60.016 89.8605H54V104.9H60.016V111.748H47.728V108.996C46.96 108.399 46.128 107.994 45.232 107.78C44.336 107.524 43.2267 107.354 41.904 107.268L9.2 105.668V85.9565H47.728V82.8845H60.016V89.8605ZM41.776 100.356C43.4827 100.442 44.7627 100.655 45.616 100.996C46.4693 101.295 47.1733 101.743 47.728 102.34V93.1245H15.6V99.0765L41.776 100.356ZM54 25.4585V32.5625L45.872 33.7785V42.4185L54 43.6345V50.0985L9.2 42.9305V32.6265L54 25.4585ZM39.792 41.5225V34.7385L17.136 38.1305L39.792 41.5225Z" fill="white"/>
</svg>
