<svg width="100" height="432" viewBox="0 0 100 432" fill="none" xmlns="http://www.w3.org/2000/svg">
<rect width="100" height="432" fill="#B35786"/>
<rect width="100" height="17" transform="matrix(-1 0 0 1 100 178)" fill="#A5C827"/>
<path d="M34.992 399.48C39.408 399.48 42.512 403.352 42.512 408.44C42.512 414.616 39.536 418.264 34.384 418.328V413.368C37.456 413.272 38.672 411.128 38.672 408.44C38.672 406.104 37.104 404.504 35.024 404.504C32.432 404.504 31.824 406.584 31.824 408.792V410.52H28.432C28.464 410.136 28.464 409.464 28.464 409.176C28.464 406.424 27.344 405.048 25.36 405.048C23.6 405.048 22.608 406.424 22.608 408.472C22.608 410.936 23.792 412.504 26 412.696V417.432C20.912 417.336 18.736 413.24 18.736 408.44C18.736 403.832 21.232 400.344 25.04 400.344C27.312 400.344 29.168 401.752 29.616 403.8C30 401.336 32.08 399.48 34.992 399.48ZM42 382.411V387.019C41.392 387.243 41.136 387.275 40.4 387.339C41.808 388.747 42.48 390.699 42.48 392.683C42.48 396.331 40.592 398.571 37.488 398.571C33.168 398.571 32.656 394.635 32.24 391.371C31.856 388.427 31.6 387.339 30.256 387.339C28.752 387.339 28.048 388.299 28.048 390.315C28.048 392.395 28.688 393.259 30.576 393.579V397.835C26.896 397.579 25.008 394.955 25.008 390.187C25.008 386.859 25.776 382.987 30.384 382.987H37.52C39.024 382.987 40.592 383.019 42 382.411ZM33.968 387.371C34.576 388.427 34.64 389.419 34.832 390.571C35.088 392.139 35.28 393.899 37.296 393.899C38.672 393.899 39.504 392.971 39.504 391.403C39.504 389.035 38.192 387.371 35.824 387.371H33.968ZM28.976 368.132V376.1H42V380.612H25.488V368.132H28.976ZM42 352.939V357.547C41.392 357.771 41.136 357.803 40.4 357.867C41.808 359.275 42.48 361.227 42.48 363.211C42.48 366.859 40.592 369.1 37.488 369.1C33.168 369.1 32.656 365.163 32.24 361.899C31.856 358.955 31.6 357.867 30.256 357.867C28.752 357.867 28.048 358.827 28.048 360.844C28.048 362.923 28.688 363.787 30.576 364.108V368.364C26.896 368.108 25.008 365.484 25.008 360.715C25.008 357.387 25.776 353.515 30.384 353.515H37.52C39.024 353.515 40.592 353.547 42 352.939ZM33.968 357.899C34.576 358.955 34.64 359.947 34.832 361.099C35.088 362.668 35.28 364.427 37.296 364.427C38.672 364.427 39.504 363.499 39.504 361.931C39.504 359.563 38.192 357.899 35.824 357.899H33.968ZM46.864 333.317V337.573H42V348.453H46.864V352.709H38.512V350.725C36.624 349.765 32.208 348.645 28.368 348.645H25.488V335.461H38.512V333.317H46.864ZM38.512 339.973H28.848V344.421H29.264C32.752 344.421 36.784 345.509 38.512 346.277V339.973ZM42 315.527V321.031L34.896 325.799L36.944 327.815H42V332.263H25.488V327.815H32.016L25.488 321.767V316.423L31.888 322.823L42 315.527ZM42 299.936V304.544C41.392 304.768 41.136 304.8 40.4 304.864C41.808 306.272 42.48 308.224 42.48 310.208C42.48 313.856 40.592 316.096 37.488 316.096C33.168 316.096 32.656 312.16 32.24 308.896C31.856 305.952 31.6 304.864 30.256 304.864C28.752 304.864 28.048 305.824 28.048 307.84C28.048 309.92 28.688 310.784 30.576 311.104V315.36C26.896 315.104 25.008 312.48 25.008 307.712C25.008 304.384 25.776 300.512 30.384 300.512H37.52C39.024 300.512 40.592 300.544 42 299.936ZM33.968 304.896C34.576 305.952 34.64 306.944 34.832 308.096C35.088 309.664 35.28 311.424 37.296 311.424C38.672 311.424 39.504 310.496 39.504 308.928C39.504 306.56 38.192 304.896 35.824 304.896H33.968ZM65.2 396.44C70.768 396.952 74.544 400.408 74.544 406.648C74.544 413.272 69.776 417.656 62.576 417.656C55.952 417.656 50.672 413.432 50.672 406.456C50.672 400.984 54.128 396.984 58.832 396.6V401.496C56.336 402.008 54.864 403.864 54.864 406.552C54.864 410.936 58.8 412.632 62.608 412.632C67.312 412.632 70.32 410.296 70.32 406.616C70.32 403.608 68.528 401.816 65.2 401.4V396.44ZM60.976 380.849V386.289H74V390.801H60.976V396.241H57.488V380.849H60.976ZM65.744 364.1C71.056 364.1 74.512 367.46 74.512 372.612C74.512 377.764 71.024 381.156 65.744 381.156C60.496 381.156 57.008 377.732 57.008 372.548C57.008 367.46 60.496 364.1 65.744 364.1ZM65.712 368.644C62.416 368.644 60.464 370.148 60.464 372.676C60.464 375.108 62.448 376.612 65.744 376.612C69.136 376.612 71.088 375.14 71.088 372.612C71.088 370.116 69.104 368.644 65.712 368.644ZM57.488 347.76L73.936 353.84C77.584 355.184 79.888 355.952 79.888 360.144C79.888 361.552 79.888 360.976 79.856 363.184H76.112V360.976C76.112 359.472 75.28 358.672 73.904 358.672C73.744 358.672 73.456 358.736 73.264 358.8L57.488 364.784V359.888L68.72 356.112L57.488 352.464V347.76ZM74 331.999V336.511H67.056V342.879H74V347.391H57.488V342.879H63.472V336.511H57.488V331.999H74ZM57.488 314.95L65.2 320.39L74 314.278V319.462L68.656 322.95L74 326.406V331.558L65.296 325.542L57.488 331.014V325.83L61.904 322.886L57.488 319.974V314.95ZM68.88 298.901C72.464 299.925 74.48 302.901 74.48 306.645C74.48 311.733 71.024 315.093 65.84 315.093C60.72 315.093 57.008 311.605 57.008 306.805C57.008 301.813 60.656 298.645 66.448 298.645H66.896V310.485C69.744 310.421 71.28 309.045 71.28 306.613C71.28 304.949 70.544 303.925 68.88 303.253V298.901ZM64.016 303.253C62 303.445 60.304 304.533 60.304 306.805C60.304 308.821 61.712 310.229 64.016 310.485V303.253ZM74 281.87V286.382H67.056V292.75H74V297.262H57.488V292.75H63.472V286.382H57.488V281.87H74ZM78.864 261.749V266.005H74V276.885H78.864V281.141H70.512V279.157C68.624 278.197 64.208 277.077 60.368 277.077H57.488V263.893H70.512V261.749H78.864ZM70.512 268.405H60.848V272.853H61.264C64.752 272.853 68.784 273.941 70.512 274.709V268.405ZM67.056 253.303L74 257.303V262.647L63.76 256.279L57.488 261.911V256.727L64.048 251.543H57.488V247.255H64.048L57.488 242.071V236.887L63.856 242.615L74 236.151V241.495L67.056 245.495L69.04 247.255H74V251.543H69.04L67.056 253.303ZM74 220.431V225.039C73.392 225.263 73.136 225.295 72.4 225.359C73.808 226.767 74.48 228.719 74.48 230.703C74.48 234.351 72.592 236.591 69.488 236.591C65.168 236.591 64.656 232.655 64.24 229.391C63.856 226.447 63.6 225.359 62.256 225.359C60.752 225.359 60.048 226.319 60.048 228.335C60.048 230.415 60.688 231.279 62.576 231.599V235.855C58.896 235.599 57.008 232.975 57.008 228.207C57.008 224.879 57.776 221.007 62.384 221.007H69.52C71.024 221.007 72.592 221.039 74 220.431ZM65.968 225.391C66.576 226.447 66.64 227.439 66.832 228.591C67.088 230.159 67.28 231.919 69.296 231.919C70.672 231.919 71.504 230.991 71.504 229.423C71.504 227.055 70.192 225.391 67.824 225.391H65.968Z" fill="#DAB2C8"/>
<path d="M19.216 155.824V145.04C19.216 141.04 20.912 137.776 24.944 137.776C27.152 137.776 28.816 139.024 29.648 140.88C30.32 138.512 32.048 136.72 35.216 136.72C39.664 136.72 42 140.144 42 144.432V155.824H19.216ZM23.088 150.96H28.432V146.416C28.432 144.592 28.08 142.64 25.776 142.64C23.472 142.64 23.088 144.496 23.088 146.416V150.96ZM31.824 150.96H38.032V145.936C38.032 143.792 37.616 141.712 34.928 141.712C32.176 141.712 31.824 143.952 31.824 146.192V150.96ZM33.744 118.445C39.056 118.445 42.512 121.805 42.512 126.957C42.512 132.109 39.024 135.501 33.744 135.501C28.496 135.501 25.008 132.077 25.008 126.893C25.008 121.805 28.496 118.445 33.744 118.445ZM33.712 122.989C30.416 122.989 28.464 124.493 28.464 127.021C28.464 129.453 30.448 130.957 33.744 130.957C37.136 130.957 39.088 129.485 39.088 126.957C39.088 124.461 37.104 122.989 33.712 122.989ZM42 101.282V105.794H28.976V112.162H42V116.674H25.488V101.282H42ZM25.488 94.7615H27.536C25.84 93.5455 25.04 91.7535 25.04 89.6415C25.04 85.1935 28.528 82.2815 33.84 82.2815C39.024 82.2815 42.416 85.1295 42.416 89.4495C42.416 91.5295 41.648 93.3215 39.952 94.5375H47.856V99.0495H25.488V94.7615ZM28.688 90.7615C28.688 93.2255 30.576 94.6975 33.776 94.6975C36.976 94.6975 38.864 93.2255 38.864 90.7295C38.864 88.2975 36.976 86.8255 33.84 86.8255C30.608 86.8255 28.688 88.3295 28.688 90.7615ZM33.744 64.191C39.056 64.191 42.512 67.551 42.512 72.703C42.512 77.855 39.024 81.247 33.744 81.247C28.496 81.247 25.008 77.823 25.008 72.639C25.008 67.551 28.496 64.191 33.744 64.191ZM33.712 68.735C30.416 68.735 28.464 70.239 28.464 72.767C28.464 75.199 30.448 76.703 33.744 76.703C37.136 76.703 39.088 75.231 39.088 72.703C39.088 70.207 37.104 68.735 33.712 68.735ZM35.632 46.7405C39.92 47.3165 42.416 50.2605 42.416 54.6445C42.416 59.7325 39.024 63.0605 33.872 63.0605C28.528 63.0605 25.008 59.7005 25.008 54.5805C25.008 50.1645 27.408 47.2205 31.248 46.8365V51.2845C29.424 51.6045 28.4 52.7885 28.4 54.5485C28.4 57.0125 30.384 58.4845 33.776 58.4845C37.072 58.4845 38.96 57.0765 38.96 54.6445C38.96 52.6925 37.808 51.4765 35.632 51.1245V46.7405ZM25.488 29.4215V24.9095H42V29.4215H25.488ZM36.56 31.5015C40.208 31.5015 42 34.1575 42 37.7415V45.6135H25.488V41.1335H31.152V37.5495C31.152 34.2215 32.976 31.5015 36.56 31.5015ZM34.224 41.1335H38.864V38.8295C38.864 37.1655 38.16 36.0775 36.56 36.0775C34.96 36.0775 34.224 37.2935 34.224 38.8615V41.1335ZM74 133.19V137.542H62.832L74 143.43V148.582H57.488V144.23H68.656L57.488 138.342V133.19H74ZM65.744 106.755C71.056 106.755 74.512 110.115 74.512 115.267C74.512 120.419 71.024 123.811 65.744 123.811C60.496 123.811 57.008 120.387 57.008 115.203C57.008 110.115 60.496 106.755 65.744 106.755ZM65.712 111.299C62.416 111.299 60.464 112.803 60.464 115.331C60.464 117.763 62.448 119.267 65.744 119.267C69.136 119.267 71.088 117.795 71.088 115.267C71.088 112.771 69.104 111.299 65.712 111.299ZM60.976 91.6267V97.0667H74V101.579H60.976V107.019H57.488V91.6267H60.976ZM57.488 90.9548V81.4508C57.488 78.5388 58.704 76.1708 61.648 76.1708C63.248 76.1708 64.432 77.0668 65.04 78.4108C65.52 76.7148 66.8 75.4028 69.072 75.4028C72.304 75.4028 74 77.8988 74 81.0028V90.9548H57.488ZM64.112 86.4748V83.4668C64.112 82.1228 63.856 80.7788 62.224 80.7788C60.624 80.7788 60.368 82.0588 60.368 83.4668V86.4748H64.112ZM71.056 86.4748V83.1148C71.056 81.5468 70.768 80.1068 68.88 80.1068C66.96 80.1068 66.672 81.6748 66.672 83.3068V86.4748H71.056ZM68.88 58.2757C72.464 59.2997 74.48 62.2757 74.48 66.0197C74.48 71.1077 71.024 74.4678 65.84 74.4678C60.72 74.4678 57.008 70.9798 57.008 66.1797C57.008 61.1877 60.656 58.0197 66.448 58.0197H66.896V69.8598C69.744 69.7958 71.28 68.4197 71.28 65.9878C71.28 64.3237 70.544 63.2997 68.88 62.6277V58.2757ZM64.016 62.6277C62 62.8197 60.304 63.9078 60.304 66.1797C60.304 68.1957 61.712 69.6038 64.016 69.8598V62.6277ZM60.976 43.2792V48.7192H74V53.2312H60.976V58.6712H57.488V43.2792H60.976ZM57.488 26.5752V22.0632H74V26.5752H57.488ZM68.56 28.6552C72.208 28.6552 74 31.3112 74 34.8952V42.7672H57.488V38.2872H63.152V34.7032C63.152 31.3752 64.976 28.6552 68.56 28.6552ZM66.224 38.2872H70.864V35.9832C70.864 34.3192 70.16 33.2312 68.56 33.2312C66.96 33.2312 66.224 34.4472 66.224 36.0152V38.2872Z" fill="#DAB2C8"/>
</svg>
