<svg width="116" height="425" viewBox="0 0 116 425" fill="none" xmlns="http://www.w3.org/2000/svg">
<rect y="5.13477" width="64" height="421" transform="rotate(-4.60144 0 5.13477)" fill="#DB4C2F"/>
<rect x="5.0332" y="4.77832" width="4.60532" height="420.874" transform="rotate(-4.60144 5.0332 4.77832)" fill="#FFD777"/>
<rect x="55.0352" y="0.804688" width="4.60532" height="420.867" transform="rotate(-4.60144 55.0352 0.804688)" fill="#FFD777"/>
<path d="M57.8263 413.45L55.8034 388.306L58.9397 388.054L60.9627 413.197L57.8263 413.45ZM64.591 412.905L62.5681 387.762L65.7044 387.51L67.7274 412.653L64.591 412.905ZM71.3557 412.361L69.3328 387.218L72.4691 386.965L74.4921 412.109L71.3557 412.361Z" fill="#FFD777"/>
<path d="M46.2754 137.679L46.1008 135.508L53.1105 128.87L45.6152 129.473L45.4758 127.74L52.9711 127.137L44.9902 121.705L44.8155 119.534L53.4088 125.515L58.8679 119.452L59.0441 121.642L54.0808 127.048L59.4443 126.616L59.5837 128.349L54.2202 128.78L59.9847 133.333L60.1609 135.523L53.8027 130.411L46.2754 137.679ZM60.4757 139.435L61.2189 148.673L59.5933 148.803L58.9895 141.298L55.1153 141.61L55.5907 147.519L53.9845 147.648L53.5091 141.739L48.2624 142.161L48.8663 149.666L47.2504 149.796L46.5071 140.559L60.4757 139.435ZM62.2589 161.598L62.3991 163.341L48.4306 164.465L48.2904 162.722L55.114 162.173L54.493 154.454L47.6693 155.003L47.5291 153.261L61.4976 152.137L61.6378 153.879L56.1186 154.323L56.7396 162.042L62.2589 161.598ZM58.9695 180.868L58.3026 179.276C60.4866 178.415 61.8014 176.369 61.6009 173.877C61.3534 170.801 58.876 168.747 55.8292 168.992C52.8116 169.235 50.6645 171.651 50.9128 174.737C51.1148 177.248 52.7495 179.057 55.1008 179.544L54.7188 181.25C51.7394 180.627 49.5293 178.121 49.2677 174.869C48.9482 170.898 51.6964 167.551 55.6875 167.23C59.6298 166.913 62.9128 169.725 63.2362 173.745C63.4931 176.938 61.8275 179.737 58.9695 180.868ZM64.6095 190.936L64.7944 193.233L58.3923 187.576C55.9007 190.216 53.4188 192.855 50.9264 195.485L50.7455 193.237C53.0507 190.837 55.3641 188.417 57.679 186.017L50.2129 186.617L50.0727 184.875L64.0315 183.752L64.1717 185.494L58.7985 185.927L64.6095 190.936ZM51.9374 208.051L62.6158 207.192L51.2286 199.241L51.1542 198.317L65.113 197.193L65.2524 198.926L54.5935 199.784C58.383 202.438 62.1725 205.091 65.9612 207.736L66.0356 208.66L52.0768 209.783L51.9374 208.051ZM66.0287 218.437C66.3373 218.011 66.6661 217.592 66.9739 217.156C68.1378 217.983 69.2927 218.821 70.4468 219.649C70.1382 220.076 69.8199 220.503 69.5015 220.93C68.3474 220.102 67.1836 219.275 66.0287 218.437ZM53.1834 223.537L63.8618 222.677L52.4746 214.727L52.4002 213.802L66.359 212.679L66.4984 214.412L55.8395 215.27C59.629 217.924 63.4185 220.577 67.2072 223.221L67.2816 224.146L53.3228 225.269L53.1834 223.537ZM68.1417 234.714L68.2161 235.639L61.0771 242.376L69.2013 247.885L69.275 248.8L55.3064 249.924L55.167 248.191L65.6799 247.345L58.5552 242.569L64.8262 236.735L54.3133 237.581L54.1732 235.838L68.1417 234.714ZM56.4388 263.998L59.2075 262.609L58.6334 255.474L55.6791 254.556L55.5311 252.716L69.9496 257.307L70.0867 259.011L56.5861 265.828L56.4388 263.998ZM67.8673 258.337L60.301 255.987L60.7717 261.837L67.8673 258.337ZM64.8154 269.721L65.1615 274.023C65.2156 274.695 65.3217 275.039 65.474 275.35C65.879 276.121 66.6447 276.627 67.6084 276.55C68.5721 276.472 69.2567 275.849 69.5235 275.024C69.6347 274.702 69.6738 274.336 69.619 273.655L69.2736 269.362L64.8154 269.721ZM56.9502 270.353L56.8108 268.621L70.7696 267.498L71.27 273.718C71.3475 274.681 71.2501 275.297 71.0393 275.843C70.5407 277.196 69.3337 278.145 67.7568 278.272C66.209 278.396 64.856 277.653 64.137 276.388C63.8424 275.893 63.6478 275.301 63.5703 274.337L63.2092 269.85L56.9502 270.353ZM73.0481 295.695L73.1891 297.448L59.2205 298.572L57.911 282.296L71.8796 281.172L72.0198 282.915L59.6768 283.908L60.1209 289.427L72.4638 288.434L72.6032 290.166L60.2603 291.16L60.7052 296.689L73.0481 295.695ZM40.5548 153.69L40.6949 155.433L26.7264 156.556L26.5862 154.814L33.4099 154.265L32.7888 146.546L25.9652 147.095L25.825 145.352L39.7935 144.228L39.9337 145.971L34.4144 146.415L35.0355 154.134L40.5548 153.69ZM27.8588 170.631L30.6275 169.242L30.0534 162.107L27.0991 161.189L26.9511 159.349L41.3696 163.94L41.5067 165.643L28.0061 172.461L27.8588 170.631ZM39.2873 164.969L31.7209 162.619L32.1916 168.47L39.2873 164.969ZM36.9908 182.699L37.2665 186.125C37.3182 186.768 37.4138 187.103 37.5654 187.404C37.9492 188.157 38.694 188.646 39.6187 188.571C40.5435 188.497 41.181 187.897 41.4493 187.092C41.5613 186.779 41.5923 186.433 41.539 185.772L41.2641 182.355L36.9908 182.699ZM30.4884 183.222L30.8244 187.398C30.8831 188.128 30.9915 188.501 31.1552 188.831C31.5875 189.698 32.456 190.264 33.5463 190.177C34.617 190.091 35.3935 189.391 35.6914 188.466C35.8002 188.114 35.8378 187.729 35.7791 186.999L35.4431 182.823L30.4884 183.222ZM28.7421 181.609L42.7009 180.486L43.1301 185.82C43.2045 186.745 43.1233 187.319 42.9394 187.834C42.4603 189.185 41.2727 190.133 39.725 190.258C38.6542 190.344 37.6814 189.942 36.9926 189.174C36.5358 190.681 35.2813 191.771 33.6362 191.904C31.9619 192.038 30.5142 191.214 29.7874 189.852C29.5018 189.346 29.3177 188.763 29.2386 187.78L28.7421 181.609ZM43.8375 194.491L44.5808 203.729L42.9552 203.86L42.3513 196.355L38.4771 196.666L38.9525 202.575L37.3464 202.704L36.871 196.795L31.6243 197.218L32.2281 204.723L30.6122 204.853L29.869 195.615L43.8375 194.491ZM38.8956 209.417L39.2418 213.719C39.2958 214.391 39.4019 214.735 39.5543 215.046C39.9592 215.817 40.7249 216.324 41.6886 216.246C42.6523 216.168 43.3369 215.545 43.6037 214.72C43.7149 214.398 43.754 214.032 43.6992 213.351L43.3538 209.058L38.8956 209.417ZM31.0304 210.05L30.891 208.317L44.8498 207.194L45.3502 213.414C45.4278 214.378 45.3303 214.993 45.1195 215.539C44.6209 216.892 43.4139 217.841 41.837 217.968C40.2892 218.093 38.9362 217.349 38.2172 216.084C37.9226 215.589 37.728 214.997 37.6505 214.033L37.2894 209.546L31.0304 210.05ZM42.2076 234.387L41.5407 232.794C43.7247 231.933 45.0395 229.887 44.839 227.395C44.5915 224.319 42.1141 222.265 39.0673 222.51C36.0497 222.753 33.9026 225.169 34.1509 228.255C34.353 230.767 35.9876 232.575 38.3389 233.062L37.9569 234.768C34.9775 234.145 32.7674 231.639 32.5058 228.388C32.1863 224.416 34.9346 221.07 38.9256 220.748C42.8679 220.431 46.1509 223.243 46.4743 227.264C46.7312 230.456 45.0656 233.255 42.2076 234.387ZM34.0737 247.874L36.8423 246.486L36.2682 239.35L33.314 238.432L33.166 236.592L47.5845 241.183L47.7215 242.887L34.2209 249.704L34.0737 247.874ZM45.5022 242.213L37.9358 239.863L38.4065 245.713L45.5022 242.213ZM48.673 254.712L49.3889 263.609L35.4301 264.733L35.2907 263L47.6141 262.008L47.1779 256.586L40.1109 257.155C39.0985 257.236 38.2812 257.185 37.5163 256.933C35.9255 256.522 34.6747 255.466 34.5291 253.656C34.4735 252.965 34.5849 252.28 34.8747 251.62L36.4972 252.302C36.3128 252.689 36.2378 253.097 36.2715 253.516C36.3498 254.489 36.9466 255.088 38.0619 255.311C38.6032 255.464 39.2017 255.475 40.0583 255.406L48.673 254.712ZM40.4559 277.152C41.4975 277.068 42.2471 276.4 42.5189 275.516C42.6383 275.173 42.6677 274.808 42.6113 274.108L42.2785 269.971L37.5184 270.354L37.8513 274.491C37.9077 275.191 38.0145 275.545 38.1775 275.865C38.6065 276.693 39.4241 277.235 40.4559 277.152ZM40.5938 278.865C38.9487 278.997 37.5438 278.219 36.8314 276.914C36.515 276.391 36.3197 275.789 36.2406 274.806L35.7526 268.742L49.7114 267.619L49.8516 269.361L43.8943 269.841L44.2421 274.163C44.3212 275.146 44.2237 275.761 44.0047 276.327C43.5011 277.739 42.2194 278.734 40.5938 278.865Z" fill="#FFD777"/>
</svg>
