<svg width="53" height="258" viewBox="0 0 53 258" fill="none" xmlns="http://www.w3.org/2000/svg">
<path d="M53 0H1.19209e-07V258H53V0Z" fill="#217D7A"/>
<path d="M53 223H1.19209e-07V258H53V223Z" fill="#4ED4CF"/>
<path d="M27.393 18.1152C26.6502 18.1152 25.9733 18.0074 25.3623 17.7918C24.7514 17.5761 24.2242 17.2826 23.781 16.9112C23.3257 16.5279 22.9783 16.0966 22.7387 15.6174C22.4871 15.1382 22.3613 14.641 22.3613 14.1259C22.3613 13.8024 22.4212 13.4849 22.541 13.1734C22.6489 12.85 22.8345 12.5625 23.0981 12.3109C23.3497 12.0473 23.6971 11.8496 24.1404 11.7178L22.541 10.8733V10.2443L29.0642 11.1428C29.4356 11.1907 29.7171 11.1787 29.9088 11.1069C30.0885 11.035 30.1783 10.9152 30.1783 10.7475C30.1783 10.5438 30.0645 10.3461 29.8369 10.1545C29.5973 9.9508 29.2918 9.75312 28.9204 9.56144L29.2259 9.00436C29.8729 9.30386 30.3281 9.62732 30.5917 9.97474C30.8552 10.3102 30.987 10.6876 30.987 11.1069C30.987 11.5142 30.8672 11.8496 30.6276 12.1132C30.376 12.3648 29.9927 12.4966 29.4775 12.5086C29.9567 12.8081 30.3281 13.1914 30.5917 13.6586C30.8552 14.1259 30.987 14.641 30.987 15.2041C30.987 15.7791 30.8492 16.2883 30.5737 16.7315C30.2862 17.1628 29.8788 17.5043 29.3517 17.7558C28.8126 17.9954 28.1597 18.1152 27.393 18.1152ZM27.4828 16.5878C28.3813 16.5878 29.0582 16.438 29.5134 16.1385C29.9567 15.839 30.1783 15.4137 30.1783 14.8626C30.1783 14.2876 29.9747 13.7904 29.5674 13.3711C29.1481 12.9518 28.6149 12.6284 27.968 12.4007C27.3091 12.1611 26.6143 12.0413 25.8835 12.0413C24.961 12.0413 24.2781 12.221 23.8349 12.5804C23.3916 12.9398 23.17 13.3951 23.17 13.9462C23.17 14.5212 23.3796 15.0064 23.7989 15.4017C24.2063 15.7851 24.7394 16.0786 25.3983 16.2823C26.0452 16.4859 26.7401 16.5878 27.4828 16.5878Z" fill="white"/>
<path d="M30.987 24.0008C30.987 24.9113 30.6875 25.6181 30.0885 26.1212C29.4895 26.6244 28.6269 26.876 27.5008 26.876C26.4346 26.876 25.5181 26.6663 24.7514 26.247C23.9846 25.8277 23.3976 25.2647 22.9903 24.5578C22.571 23.839 22.3613 23.0483 22.3613 22.1858C22.3613 21.5269 22.4931 20.9578 22.7567 20.4786C23.0083 19.9874 23.4156 19.7418 23.9786 19.7418C24.4099 19.7418 24.8053 19.8976 25.1647 20.2091C25.5121 20.5205 25.8116 20.9518 26.0632 21.5029C26.3148 22.042 26.5184 22.659 26.6742 23.3538C26.8299 24.0487 26.9377 24.7735 26.9976 25.5282H26.4226C26.3627 24.9053 26.2728 24.3362 26.153 23.8211C26.0212 23.2939 25.8595 22.8387 25.6678 22.4553C25.4642 22.06 25.2306 21.7545 24.967 21.5389C24.7034 21.3232 24.4039 21.2154 24.0685 21.2154C23.769 21.2154 23.5174 21.3112 23.3137 21.5029C23.0981 21.6946 22.9903 22.0061 22.9903 22.4374C22.9903 22.9645 23.17 23.4497 23.5294 23.8929C23.8768 24.3362 24.3979 24.6896 25.0928 24.9532C25.7876 25.2167 26.6442 25.3485 27.6625 25.3485C28.6449 25.3485 29.3397 25.2108 29.7471 24.9352C30.1544 24.6597 30.358 24.2583 30.358 23.7312C30.358 23.3119 30.2682 22.9525 30.0885 22.653C29.8968 22.3535 29.6273 22.1259 29.2798 21.9701C28.9324 21.8024 28.5251 21.7186 28.0579 21.7186C27.5427 21.7186 27.1534 21.8204 26.8898 22.024C26.6143 22.2157 26.4286 22.5152 26.3327 22.9225L26.1171 22.078C26.141 21.8503 26.195 21.6287 26.2788 21.4131C26.3507 21.1854 26.4585 20.9878 26.6023 20.82C26.7341 20.6403 26.9078 20.5026 27.1234 20.4067C27.3271 20.2989 27.5787 20.245 27.8782 20.245C28.4292 20.245 28.9444 20.4187 29.4236 20.7661C29.8908 21.1016 30.2682 21.5568 30.5557 22.1319C30.8432 22.6949 30.987 23.3179 30.987 24.0008Z" fill="white"/>
<path d="M28.9204 28.8164L29.2259 28.2593C29.8729 28.5588 30.3281 28.8822 30.5917 29.2297C30.8552 29.5651 30.987 29.9425 30.987 30.3618C30.987 30.853 30.8193 31.2363 30.4838 31.5119C30.1364 31.7754 29.5793 31.8473 28.8126 31.7275L25.0748 31.1525C24.8113 31.1045 24.5357 31.0926 24.2482 31.1165C23.9487 31.1405 23.6971 31.2303 23.4934 31.3861C23.2778 31.5299 23.17 31.7814 23.17 32.1408C23.17 32.3325 23.2059 32.5601 23.2778 32.8237C23.3497 33.0753 23.4875 33.3329 23.6911 33.5964C23.8948 33.86 24.1943 34.0936 24.5896 34.2973C24.985 34.5009 25.5001 34.6507 26.1351 34.7465L30.8073 35.4114V36.7592L25.0748 35.9685C24.8113 35.9325 24.5357 35.9265 24.2482 35.9505C23.9487 35.9625 23.6971 36.0463 23.4934 36.2021C23.2778 36.3458 23.17 36.5974 23.17 36.9568C23.17 37.1485 23.2119 37.3761 23.2958 37.6397C23.3677 37.9033 23.5174 38.1668 23.745 38.4304C23.9607 38.694 24.2841 38.9336 24.7154 39.1492C25.1347 39.3529 25.6918 39.5026 26.3866 39.5984L30.8073 40.2094V41.5752L23.2598 40.5149L23.17 40.6048V41.9346L22.541 41.8447C22.541 41.3775 22.535 40.9462 22.5231 40.5509C22.5111 40.1435 22.4871 39.7003 22.4512 39.2211L22.541 39.1312L23.8169 39.3289V39.239C23.4335 39.0114 23.0981 38.682 22.8106 38.2507C22.5111 37.8194 22.3613 37.2923 22.3613 36.6693C22.3613 36.0703 22.5111 35.5911 22.8106 35.2317C23.0981 34.8723 23.4875 34.6507 23.9786 34.5668C23.5234 34.3392 23.14 33.9798 22.8286 33.4886C22.5171 32.9854 22.3613 32.4403 22.3613 31.8533C22.3613 31.0986 22.5949 30.5295 23.0622 30.1461C23.5294 29.7628 24.1404 29.631 24.8951 29.7508L29.0642 30.3977C29.4356 30.4576 29.7171 30.4516 29.9088 30.3798C30.0885 30.2959 30.1783 30.1701 30.1783 30.0024C30.1783 29.7987 30.0645 29.601 29.8369 29.4094C29.5973 29.2057 29.2918 29.008 28.9204 28.8164Z" fill="white"/>
<path d="M30.987 47.1138C30.987 47.593 30.9091 48.0303 30.7534 48.4256C30.5857 48.821 30.3521 49.1624 30.0526 49.4499C29.7411 49.7255 29.3637 49.9411 28.9204 50.0969C28.4772 50.2406 27.98 50.3125 27.4289 50.3125C26.7341 50.3125 26.0811 50.1987 25.4702 49.9711C24.8592 49.7435 24.3201 49.426 23.8529 49.0187C23.3856 48.6113 23.0202 48.1381 22.7567 47.599C22.4931 47.0599 22.3613 46.4789 22.3613 45.8559C22.3613 45.3647 22.4452 44.9334 22.6129 44.5621C22.7687 44.1787 22.9903 43.8852 23.2778 43.6815C23.5533 43.4659 23.8708 43.3581 24.2302 43.3581C24.5657 43.3581 24.8532 43.4479 25.0928 43.6276C25.3204 43.8073 25.4342 44.0409 25.4342 44.3284C25.4342 44.5561 25.3623 44.7358 25.2186 44.8676C25.0748 44.9874 24.8891 45.0473 24.6615 45.0473C24.386 45.0473 24.1344 44.9574 23.9068 44.7777C23.6791 44.598 23.5653 44.3584 23.5653 44.0589C23.5653 43.8193 23.6372 43.6695 23.781 43.6096C23.9247 43.5378 24.0805 43.5018 24.2482 43.5018L24.374 44.0409C24.0984 44.0409 23.8588 44.1128 23.6552 44.2566C23.4395 44.3883 23.2778 44.58 23.17 44.8316C23.0502 45.0712 22.9903 45.3647 22.9903 45.7121C22.9903 46.2153 23.1101 46.6586 23.3497 47.0419C23.5893 47.4133 23.9187 47.7308 24.338 47.9944C24.7454 48.2579 25.2186 48.4556 25.7577 48.5874C26.2848 48.7192 26.8359 48.785 27.4109 48.785C28.4292 48.785 29.16 48.5994 29.6033 48.228C30.0466 47.8446 30.2682 47.3774 30.2682 46.8263C30.2682 46.2752 30.1005 45.814 29.765 45.4426C29.4176 45.0592 29.0402 44.7358 28.6329 44.4722L28.9384 43.9151C29.2858 44.1188 29.6153 44.3644 29.9268 44.6519C30.2382 44.9275 30.4958 45.2689 30.6995 45.6762C30.8912 46.0715 30.987 46.5508 30.987 47.1138Z" fill="white"/>
<path d="M28.9204 52.2538L29.2259 51.6968C29.8729 51.9963 30.3281 52.3197 30.5917 52.6672C30.8552 53.0026 30.987 53.38 30.987 53.7993C30.987 54.2905 30.8193 54.6738 30.4838 54.9494C30.1364 55.2129 29.5793 55.2848 28.8126 55.165L25.0748 54.59C24.8113 54.5421 24.5357 54.5301 24.2482 54.554C23.9487 54.578 23.6971 54.6678 23.4934 54.8236C23.2778 54.9674 23.17 55.2189 23.17 55.5783C23.17 55.77 23.2059 55.9976 23.2778 56.2612C23.3497 56.5128 23.4875 56.7704 23.6911 57.0339C23.8948 57.2975 24.1943 57.5311 24.5896 57.7348C24.985 57.9384 25.5001 58.0882 26.1351 58.184L30.8073 58.8489V60.1967L25.0748 59.406C24.8113 59.37 24.5357 59.364 24.2482 59.388C23.9487 59.4 23.6971 59.4838 23.4934 59.6396C23.2778 59.7833 23.17 60.0349 23.17 60.3943C23.17 60.586 23.2119 60.8136 23.2958 61.0772C23.3677 61.3408 23.5174 61.6043 23.745 61.8679C23.9607 62.1314 24.2841 62.371 24.7154 62.5867C25.1347 62.7904 25.6918 62.9401 26.3866 63.036L30.8073 63.6469V65.0127L23.2598 63.9524L23.17 64.0423V65.3721L22.541 65.2822C22.541 64.815 22.535 64.3837 22.5231 63.9884C22.5111 63.581 22.4871 63.1378 22.4512 62.6586L22.541 62.5687L23.8169 62.7664V62.6765C23.4335 62.4489 23.0981 62.1195 22.8106 61.6882C22.5111 61.2569 22.3613 60.7298 22.3613 60.1068C22.3613 59.5078 22.5111 59.0286 22.8106 58.6692C23.0981 58.3098 23.4875 58.0882 23.9786 58.0043C23.5234 57.7767 23.14 57.4173 22.8286 56.9261C22.5171 56.4229 22.3613 55.8778 22.3613 55.2908C22.3613 54.5361 22.5949 53.967 23.0622 53.5836C23.5294 53.2003 24.1404 53.0685 24.8951 53.1883L29.0642 53.8352C29.4356 53.8951 29.7171 53.8891 29.9088 53.8173C30.0885 53.7334 30.1783 53.6076 30.1783 53.4399C30.1783 53.2362 30.0645 53.0386 29.8369 52.8469C29.5973 52.6432 29.2918 52.4455 28.9204 52.2538Z" fill="white"/>
<path d="M27.393 75.959C26.6502 75.959 25.9733 75.8512 25.3623 75.6355C24.7514 75.4199 24.2242 75.1264 23.781 74.755C23.3257 74.3716 22.9783 73.9403 22.7387 73.4611C22.4871 72.9819 22.3613 72.4848 22.3613 71.9696C22.3613 71.6461 22.4212 71.3287 22.541 71.0172C22.6489 70.6937 22.8345 70.4062 23.0981 70.1546C23.3497 69.8911 23.6971 69.6934 24.1404 69.5616L22.541 68.717V68.0881L29.0642 68.9866C29.4356 69.0345 29.7171 69.0225 29.9088 68.9506C30.0885 68.8787 30.1783 68.7589 30.1783 68.5912C30.1783 68.3876 30.0645 68.1899 29.8369 67.9982C29.5973 67.7945 29.2918 67.5969 28.9204 67.4052L29.2259 66.8481C29.8729 67.1476 30.3281 67.4711 30.5917 67.8185C30.8552 68.1539 30.987 68.5313 30.987 68.9506C30.987 69.3579 30.8672 69.6934 30.6276 69.957C30.376 70.2085 29.9927 70.3403 29.4775 70.3523C29.9567 70.6518 30.3281 71.0352 30.5917 71.5024C30.8552 71.9696 30.987 72.4847 30.987 73.0478C30.987 73.6229 30.8492 74.132 30.5737 74.5753C30.2862 75.0066 29.8788 75.348 29.3517 75.5996C28.8126 75.8392 28.1597 75.959 27.393 75.959ZM27.4828 74.4315C28.3813 74.4315 29.0582 74.2818 29.5134 73.9823C29.9567 73.6828 30.1783 73.2575 30.1783 72.7064C30.1783 72.1313 29.9747 71.6342 29.5674 71.2149C29.1481 70.7956 28.6149 70.4721 27.968 70.2445C27.3091 70.0049 26.6143 69.8851 25.8835 69.8851C24.961 69.8851 24.2781 70.0648 23.8349 70.4242C23.3916 70.7836 23.17 71.2388 23.17 71.7899C23.17 72.365 23.3796 72.8501 23.7989 73.2455C24.2063 73.6288 24.7394 73.9224 25.3983 74.126C26.0452 74.3297 26.7401 74.4315 27.4828 74.4315Z" fill="white"/>
<path d="M35.2998 87.832L34.6709 87.7422V86.3405L34.581 86.2507L23.2598 84.6693L23.17 84.7591V86.0889L22.541 85.9991C22.541 85.5319 22.535 85.1066 22.5231 84.7232C22.5111 84.3279 22.4871 83.8906 22.4512 83.4114L22.541 83.3215L23.8349 83.5012V83.4473C23.4036 83.1718 23.0502 82.8004 22.7746 82.3332C22.4991 81.8659 22.3613 81.3448 22.3613 80.7698C22.3613 80.1827 22.5051 79.6736 22.7926 79.2423C23.0682 78.811 23.4755 78.4756 24.0146 78.236C24.5417 77.9844 25.1886 77.8586 25.9554 77.8586C26.6861 77.8586 27.363 77.9664 27.986 78.1821C28.597 78.3977 29.1301 78.6972 29.5853 79.0806C30.0286 79.452 30.376 79.8772 30.6276 80.3565C30.8672 80.8237 30.987 81.3209 30.987 81.848C30.987 82.2912 30.8732 82.7345 30.6456 83.1778C30.4179 83.609 30.0226 83.9385 29.4595 84.1661L34.581 84.8849L34.6709 84.7951V82.7465L35.2998 82.8363V87.832ZM27.4649 83.9325C28.3873 83.9325 29.0702 83.7528 29.5134 83.3934C29.9567 83.034 30.1783 82.5788 30.1783 82.0277C30.1783 81.4526 29.9747 80.9674 29.5674 80.5721C29.1481 80.1768 28.609 79.8832 27.95 79.6916C27.2911 79.4879 26.5963 79.3861 25.8655 79.3861C24.967 79.3861 24.2961 79.5358 23.8529 79.8353C23.3976 80.1228 23.17 80.5481 23.17 81.1112C23.17 81.6743 23.3796 82.1714 23.7989 82.6027C24.2063 83.022 24.7394 83.3515 25.3983 83.5911C26.0452 83.8187 26.7341 83.9325 27.4649 83.9325Z" fill="white"/>
<path d="M28.9204 88.0749L29.2259 87.5179C29.8728 87.8174 30.3281 88.1408 30.5916 88.4882C30.8552 88.8237 30.987 89.2011 30.987 89.6204C30.987 90.0277 30.8672 90.3631 30.6276 90.6267C30.388 90.8783 30.0046 91.0101 29.4775 91.022C29.8848 91.2616 30.2382 91.5971 30.5377 92.0284C30.8372 92.4597 30.987 92.9928 30.987 93.6277C30.987 94.3825 30.7534 94.9455 30.2862 95.3169C29.8189 95.6763 29.202 95.8021 28.4352 95.6943L23.2598 94.9934L23.17 95.0833V96.4131L22.541 96.3232C22.541 95.856 22.535 95.4127 22.5231 94.9934C22.5111 94.5622 22.4871 94.1069 22.4512 93.6277L22.541 93.5379L28.4712 94.3465C28.7467 94.3825 29.0163 94.3765 29.2798 94.3285C29.5434 94.2686 29.759 94.1488 29.9268 93.9691C30.0945 93.7894 30.1783 93.5438 30.1783 93.2324C30.1783 92.6094 29.8669 92.0703 29.2439 91.615C28.6089 91.1478 27.7584 90.8363 26.6921 90.6806L23.2598 90.1774L23.17 90.2673V91.5971L22.541 91.5072C22.541 91.04 22.535 90.5967 22.5231 90.1774C22.5111 89.7462 22.4871 89.2909 22.4512 88.8117L22.541 88.7219L29.0642 89.6563C29.4356 89.7042 29.7171 89.6923 29.9088 89.6204C30.0885 89.5485 30.1783 89.4287 30.1783 89.261C30.1783 89.0573 30.0645 88.8596 29.8369 88.6679C29.5973 88.4643 29.2918 88.2666 28.9204 88.0749Z" fill="white"/>
<path d="M28.9204 98.357L29.2259 97.7999C29.8729 98.0994 30.3281 98.4228 30.5917 98.7703C30.8552 99.1057 30.987 99.4831 30.987 99.9024C30.987 100.394 30.8193 100.777 30.4838 101.052C30.1364 101.316 29.5793 101.388 28.8126 101.268L25.0748 100.693C24.8113 100.645 24.5357 100.633 24.2482 100.657C23.9487 100.681 23.6971 100.777 23.4934 100.945C23.2778 101.1 23.17 101.376 23.17 101.771C23.17 101.987 23.2119 102.233 23.2958 102.508C23.3677 102.784 23.5174 103.059 23.745 103.335C23.9607 103.598 24.2841 103.838 24.7154 104.053C25.1347 104.257 25.6918 104.407 26.3866 104.503L30.8073 105.114V106.479L23.2598 105.419L23.17 105.509V106.839L22.541 106.749C22.541 106.282 22.535 105.851 22.5231 105.455C22.5111 105.048 22.4871 104.605 22.4512 104.125L22.541 104.036L23.8169 104.233V104.143C23.4335 103.916 23.0981 103.58 22.8106 103.137C22.5111 102.694 22.3613 102.143 22.3613 101.484C22.3613 100.681 22.5949 100.088 23.0622 99.7047C23.5294 99.3094 24.1404 99.1716 24.8951 99.2914L29.0642 99.9383C29.4356 99.9862 29.7171 99.9743 29.9088 99.9024C30.0885 99.8305 30.1783 99.7107 30.1783 99.543C30.1783 99.3393 30.0645 99.1416 29.8369 98.95C29.5973 98.7463 29.2918 98.5486 28.9204 98.357Z" fill="white"/>
<path d="M30.0885 119.035L30.1783 118.945V117.615L30.8073 117.705V122.018L30.1783 121.928V120.562L30.0885 120.472L23.2598 119.52L23.17 119.61V120.939L22.541 120.85V116.537L23.17 116.627V117.992L23.2598 118.082L30.0885 119.035ZM30.8073 115.441L27.8782 116.716C27.4349 116.908 27.1534 117.208 27.0336 117.615C26.9138 118.01 26.8539 118.454 26.8539 118.945L26.2249 118.855V118.316C26.2249 117.669 26.2549 117.16 26.3148 116.788C26.3627 116.405 26.4765 116.105 26.6562 115.89C26.8239 115.662 27.0995 115.47 27.4828 115.315L29.2439 114.578C29.6033 114.422 29.8369 114.183 29.9447 113.859C30.0526 113.524 30.1304 113.188 30.1783 112.853L30.8073 112.943V115.441ZM22.3613 113.086C22.3613 112.751 22.4572 112.481 22.6489 112.278C22.8405 112.074 23.0921 111.972 23.4036 111.972C23.7151 111.972 23.9846 112.092 24.2123 112.332C24.4279 112.571 24.5357 112.865 24.5357 113.212C24.5357 113.476 24.4459 113.697 24.2662 113.877C24.0745 114.057 23.793 114.135 23.4216 114.111C23.6013 114.398 23.8289 114.644 24.1044 114.847C24.38 115.051 24.6675 115.261 24.967 115.476C25.2545 115.68 25.5301 115.926 25.7936 116.213C26.0452 116.489 26.2549 116.842 26.4226 117.273C26.5783 117.705 26.6562 118.256 26.6562 118.927L26.2249 118.855C26.2249 118.304 26.1351 117.843 25.9554 117.471C25.7637 117.088 25.5241 116.758 25.2366 116.483C24.937 116.207 24.6256 115.956 24.3021 115.728C23.9667 115.488 23.6552 115.249 23.3677 115.009C23.0682 114.77 22.8286 114.5 22.6489 114.201C22.4572 113.889 22.3613 113.518 22.3613 113.086Z" fill="white"/>
<path d="M30.987 126.205C30.987 126.864 30.8492 127.433 30.5737 127.912C30.2862 128.392 29.8729 128.763 29.3337 129.027C28.7946 129.29 28.1477 129.422 27.393 129.422C26.4226 129.422 25.56 129.218 24.8053 128.811C24.0385 128.392 23.4395 127.829 23.0083 127.122C22.577 126.403 22.3613 125.6 22.3613 124.714C22.3613 124.318 22.4152 123.941 22.5231 123.582C22.6189 123.21 22.7866 122.911 23.0262 122.683C23.2538 122.455 23.5653 122.342 23.9607 122.342C24.38 122.342 24.7633 122.497 25.1108 122.809C25.4582 123.12 25.7637 123.552 26.0272 124.103C26.2908 124.642 26.5064 125.259 26.6742 125.954C26.8299 126.648 26.9377 127.373 26.9976 128.128H26.4226C26.3627 127.529 26.2668 126.972 26.1351 126.457C26.0033 125.93 25.8415 125.468 25.6499 125.073C25.4462 124.678 25.2126 124.372 24.949 124.157C24.6735 123.929 24.374 123.815 24.0505 123.815C23.7271 123.815 23.4695 123.911 23.2778 124.103C23.0861 124.282 22.9903 124.552 22.9903 124.911C22.9903 125.355 23.1041 125.762 23.3317 126.133C23.5593 126.505 23.8768 126.828 24.2841 127.104C24.6915 127.379 25.1647 127.589 25.7038 127.733C26.2309 127.876 26.8059 127.948 27.4289 127.948C28.0998 127.948 28.6449 127.864 29.0642 127.697C29.4835 127.517 29.789 127.277 29.9807 126.978C30.1724 126.666 30.2682 126.313 30.2682 125.918C30.2682 125.403 30.1005 124.935 29.765 124.516C29.4296 124.085 29.0522 123.743 28.6329 123.492L28.9384 122.935C29.2619 123.114 29.5793 123.36 29.8908 123.671C30.2023 123.971 30.4659 124.33 30.6815 124.75C30.8852 125.169 30.987 125.654 30.987 126.205Z" fill="white"/>
<path d="M30.987 135.307C30.987 136.218 30.6875 136.925 30.0885 137.428C29.4895 137.931 28.6269 138.183 27.5008 138.183C26.4346 138.183 25.5181 137.973 24.7514 137.554C23.9846 137.134 23.3976 136.571 22.9903 135.864C22.571 135.146 22.3613 134.355 22.3613 133.492C22.3613 132.834 22.4931 132.264 22.7567 131.785C23.0083 131.294 23.4156 131.048 23.9786 131.048C24.4099 131.048 24.8053 131.204 25.1647 131.516C25.5121 131.827 25.8116 132.258 26.0632 132.81C26.3148 133.349 26.5184 133.966 26.6742 134.66C26.8299 135.355 26.9377 136.08 26.9976 136.835H26.4226C26.3627 136.212 26.2728 135.643 26.153 135.128C26.0212 134.601 25.8595 134.145 25.6678 133.762C25.4642 133.367 25.2306 133.061 24.967 132.845C24.7034 132.63 24.4039 132.522 24.0685 132.522C23.769 132.522 23.5174 132.618 23.3137 132.81C23.0981 133.001 22.9903 133.313 22.9903 133.744C22.9903 134.271 23.17 134.756 23.5294 135.2C23.8768 135.643 24.3979 135.996 25.0928 136.26C25.7876 136.523 26.6442 136.655 27.6625 136.655C28.6449 136.655 29.3397 136.517 29.7471 136.242C30.1544 135.966 30.358 135.565 30.358 135.038C30.358 134.619 30.2682 134.259 30.0885 133.96C29.8968 133.66 29.6273 133.433 29.2798 133.277C28.9324 133.109 28.5251 133.025 28.0579 133.025C27.5427 133.025 27.1534 133.127 26.8898 133.331C26.6143 133.522 26.4286 133.822 26.3327 134.229L26.1171 133.385C26.141 133.157 26.195 132.935 26.2788 132.72C26.3507 132.492 26.4585 132.294 26.6023 132.127C26.7341 131.947 26.9078 131.809 27.1234 131.713C27.3271 131.606 27.5787 131.552 27.8782 131.552C28.4292 131.552 28.9444 131.725 29.4236 132.073C29.8908 132.408 30.2682 132.863 30.5557 133.438C30.8432 134.002 30.987 134.625 30.987 135.307Z" fill="white"/>
<path d="M28.92 144.436L29.2254 143.879C29.8724 144.179 30.3276 144.502 30.5912 144.85C30.8547 145.185 30.9865 145.562 30.9865 145.982C30.9865 146.389 30.8667 146.724 30.6271 146.988C30.3875 147.24 30.0042 147.371 29.477 147.383C29.8844 147.623 30.2378 147.958 30.5373 148.39C30.8368 148.821 30.9865 149.354 30.9865 149.989C30.9865 150.744 30.7529 151.307 30.2857 151.678C29.8185 152.038 29.2015 152.163 28.4348 152.056L23.2594 151.355L23.1695 151.445V152.774L22.5406 152.685C22.5406 152.217 22.5346 151.774 22.5226 151.355C22.5106 150.923 22.4866 150.468 22.4507 149.989L22.5406 149.899L28.4707 150.708C28.7462 150.744 29.0158 150.738 29.2794 150.69C29.5429 150.63 29.7586 150.51 29.9263 150.33C30.094 150.151 30.1779 149.905 30.1779 149.594C30.1779 148.971 29.8664 148.432 29.2434 147.976C28.6085 147.509 27.7579 147.198 26.6917 147.042L23.2594 146.539L23.1695 146.629V147.958L22.5406 147.869C22.5406 147.401 22.5346 146.958 22.5226 146.539C22.5106 146.107 22.4866 145.652 22.4507 145.173L22.5406 145.083L29.0637 146.018C29.4351 146.066 29.7166 146.054 29.9083 145.982C30.088 145.91 30.1779 145.79 30.1779 145.622C30.1779 145.419 30.0641 145.221 29.8364 145.029C29.5968 144.826 29.2913 144.628 28.92 144.436ZM19.3239 150.564C19.0723 150.564 18.8627 150.462 18.6949 150.259C18.5272 150.055 18.4434 149.827 18.4434 149.576C18.4434 149.36 18.5092 149.186 18.641 149.055C18.7728 148.923 18.9226 148.857 19.0903 148.857C19.246 148.857 19.3958 148.923 19.5395 149.055C19.6833 149.174 19.7851 149.282 19.845 149.378C19.9648 149.282 20.0487 149.144 20.0966 148.965C20.1326 148.773 20.1505 148.545 20.1505 148.282C20.1505 148.03 20.1266 147.797 20.0786 147.581C20.0307 147.353 19.9469 147.18 19.8271 147.06C19.7672 147.144 19.6833 147.222 19.5755 147.294C19.4677 147.353 19.3598 147.383 19.252 147.383C19.0244 147.383 18.8327 147.294 18.677 147.114C18.5212 146.922 18.4434 146.706 18.4434 146.467C18.4434 146.263 18.5092 146.09 18.641 145.946C18.7728 145.79 18.9465 145.712 19.1622 145.712C19.4856 145.712 19.7612 145.856 19.9888 146.143C20.2164 146.431 20.3901 146.778 20.5099 147.186C20.6297 147.593 20.6896 147.982 20.6896 148.354C20.6896 148.689 20.6417 149.031 20.5459 149.378C20.45 149.713 20.3063 149.995 20.1146 150.223C19.9109 150.45 19.6474 150.564 19.3239 150.564Z" fill="white"/>
<path d="M22.3613 157.817C22.3613 157.182 22.5111 156.625 22.8106 156.145C23.1101 155.666 23.5294 155.295 24.0685 155.031C24.6076 154.768 25.2366 154.636 25.9554 154.636C26.6143 154.636 27.2492 154.75 27.8602 154.977C28.4592 155.193 28.9923 155.499 29.4595 155.894C29.9268 156.289 30.2981 156.756 30.5737 157.296C30.8492 157.835 30.987 158.422 30.987 159.057C30.987 159.692 30.8372 160.249 30.5377 160.728C30.2382 161.207 29.8189 161.578 29.2798 161.842C28.7288 162.106 28.0998 162.237 27.393 162.237C26.7341 162.237 26.1051 162.129 25.5061 161.914C24.8951 161.686 24.356 161.375 23.8888 160.979C23.4216 160.584 23.0502 160.117 22.7746 159.578C22.4991 159.039 22.3613 158.452 22.3613 157.817ZM30.358 158.895C30.358 158.476 30.2382 158.098 29.9986 157.763C29.759 157.427 29.4356 157.14 29.0283 156.9C28.609 156.661 28.1297 156.481 27.5906 156.361C27.0515 156.229 26.4825 156.163 25.8835 156.163C25.2246 156.163 24.6855 156.241 24.2662 156.397C23.8349 156.553 23.5174 156.768 23.3137 157.044C23.0981 157.319 22.9903 157.631 22.9903 157.978C22.9903 158.398 23.1101 158.775 23.3497 159.11C23.5893 159.446 23.9187 159.733 24.338 159.973C24.7454 160.213 25.2186 160.398 25.7577 160.53C26.2968 160.65 26.8658 160.71 27.4649 160.71C28.1238 160.71 28.6689 160.632 29.1001 160.476C29.5194 160.32 29.8369 160.105 30.0526 159.829C30.2562 159.554 30.358 159.242 30.358 158.895Z" fill="white"/>
<path d="M28.9204 164.179L29.2259 163.622C29.8729 163.921 30.3281 164.245 30.5917 164.592C30.8552 164.927 30.987 165.305 30.987 165.724C30.987 166.215 30.8193 166.599 30.4838 166.874C30.1364 167.138 29.5793 167.21 28.8126 167.09L25.0748 166.515C24.8113 166.467 24.5357 166.455 24.2482 166.479C23.9487 166.503 23.6971 166.593 23.4934 166.748C23.2778 166.892 23.17 167.144 23.17 167.503C23.17 167.695 23.2059 167.922 23.2778 168.186C23.3497 168.438 23.4875 168.695 23.6911 168.959C23.8948 169.222 24.1943 169.456 24.5896 169.66C24.985 169.863 25.5001 170.013 26.1351 170.109L30.8073 170.774V172.121L25.0748 171.331C24.8113 171.295 24.5357 171.289 24.2482 171.313C23.9487 171.325 23.6971 171.409 23.4934 171.564C23.2778 171.708 23.17 171.96 23.17 172.319C23.17 172.511 23.2119 172.738 23.2958 173.002C23.3677 173.266 23.5174 173.529 23.745 173.793C23.9607 174.056 24.2841 174.296 24.7154 174.512C25.1347 174.715 25.6918 174.865 26.3866 174.961L30.8073 175.572V176.937L23.2598 175.877L23.17 175.967V177.297L22.541 177.207C22.541 176.74 22.535 176.309 22.5231 175.913C22.5111 175.506 22.4871 175.063 22.4512 174.583L22.541 174.494L23.8169 174.691V174.601C23.4335 174.374 23.0981 174.044 22.8106 173.613C22.5111 173.182 22.3613 172.655 22.3613 172.032C22.3613 171.433 22.5111 170.953 22.8106 170.594C23.0981 170.235 23.4875 170.013 23.9786 169.929C23.5234 169.701 23.14 169.342 22.8286 168.851C22.5171 168.348 22.3613 167.803 22.3613 167.216C22.3613 166.461 22.5949 165.892 23.0622 165.508C23.5294 165.125 24.1404 164.993 24.8951 165.113L29.0642 165.76C29.4356 165.82 29.7171 165.814 29.9088 165.742C30.0885 165.658 30.1783 165.532 30.1783 165.365C30.1783 165.161 30.0645 164.963 29.8369 164.772C29.5973 164.568 29.2918 164.37 28.9204 164.179Z" fill="white"/>
<path d="M22.3613 182.429C22.3613 181.794 22.5111 181.237 22.8106 180.758C23.1101 180.279 23.5294 179.907 24.0685 179.644C24.6076 179.38 25.2366 179.248 25.9554 179.248C26.6143 179.248 27.2492 179.362 27.8602 179.59C28.4592 179.805 28.9923 180.111 29.4595 180.506C29.9268 180.901 30.2981 181.369 30.5737 181.908C30.8492 182.447 30.987 183.034 30.987 183.669C30.987 184.304 30.8372 184.861 30.5377 185.34C30.2382 185.819 29.8189 186.191 29.2798 186.454C28.7288 186.718 28.0998 186.85 27.393 186.85C26.7341 186.85 26.1051 186.742 25.5061 186.526C24.8951 186.299 24.356 185.987 23.8888 185.592C23.4216 185.196 23.0502 184.729 22.7746 184.19C22.4991 183.651 22.3613 183.064 22.3613 182.429ZM30.358 183.507C30.358 183.088 30.2382 182.71 29.9986 182.375C29.759 182.04 29.4356 181.752 29.0283 181.512C28.609 181.273 28.1297 181.093 27.5906 180.973C27.0515 180.842 26.4825 180.776 25.8835 180.776C25.2246 180.776 24.6855 180.854 24.2662 181.009C23.8349 181.165 23.5174 181.381 23.3137 181.656C23.0981 181.932 22.9903 182.243 22.9903 182.591C22.9903 183.01 23.1101 183.387 23.3497 183.723C23.5893 184.058 23.9187 184.346 24.338 184.585C24.7454 184.825 25.2186 185.011 25.7577 185.142C26.2968 185.262 26.8658 185.322 27.4649 185.322C28.1238 185.322 28.6689 185.244 29.1001 185.089C29.5194 184.933 29.8369 184.717 30.0526 184.442C30.2562 184.166 30.358 183.855 30.358 183.507Z" fill="white"/>
<path d="M30.987 196.739C30.987 197.075 30.9091 197.338 30.7534 197.53C30.5976 197.722 30.394 197.817 30.1424 197.817C29.8549 197.817 29.6093 197.722 29.4056 197.53C29.202 197.338 29.1001 197.075 29.1001 196.739C29.1001 196.536 29.16 196.356 29.2798 196.2C29.3996 196.032 29.5973 195.937 29.8728 195.913C29.6572 195.601 29.2858 195.326 28.7587 195.086C28.2316 194.834 27.6326 194.625 26.9617 194.457C26.2908 194.277 25.6259 194.134 24.967 194.026C24.3081 193.906 23.739 193.822 23.2598 193.774L23.17 193.864V195.302L22.541 195.212V188.203L23.17 188.293V189.659L23.2598 189.749L29.0642 190.557C29.4356 190.605 29.7171 190.593 29.9088 190.522C30.0885 190.45 30.1783 190.33 30.1783 190.162C30.1783 189.958 30.0645 189.761 29.8369 189.569C29.5973 189.365 29.2918 189.168 28.9204 188.976L29.2259 188.419C29.8728 188.718 30.3281 189.042 30.5916 189.389C30.8552 189.725 30.987 190.102 30.987 190.522C30.987 191.013 30.8193 191.39 30.4838 191.654C30.1364 191.917 29.5793 191.995 28.8126 191.887L23.2598 191.097L23.17 191.186V192.965L23.2598 193.055C23.6432 193.091 24.0984 193.151 24.6256 193.235C25.1407 193.319 25.6918 193.427 26.2788 193.558C26.8539 193.678 27.4229 193.834 27.986 194.026C28.5371 194.217 29.0402 194.445 29.4955 194.709C29.9507 194.96 30.3161 195.254 30.5916 195.589C30.8552 195.925 30.987 196.308 30.987 196.739Z" fill="white"/>
<path d="M22.3613 201.548C22.3613 200.913 22.5111 200.356 22.8106 199.877C23.1101 199.398 23.5294 199.026 24.0685 198.763C24.6076 198.499 25.2366 198.367 25.9554 198.367C26.6143 198.367 27.2492 198.481 27.8602 198.709C28.4592 198.924 28.9923 199.23 29.4595 199.625C29.9268 200.021 30.2981 200.488 30.5737 201.027C30.8492 201.566 30.987 202.153 30.987 202.788C30.987 203.423 30.8372 203.98 30.5377 204.459C30.2382 204.938 29.8189 205.31 29.2798 205.573C28.7288 205.837 28.0998 205.969 27.393 205.969C26.7341 205.969 26.1051 205.861 25.5061 205.645C24.8951 205.418 24.356 205.106 23.8888 204.711C23.4216 204.315 23.0502 203.848 22.7746 203.309C22.4991 202.77 22.3613 202.183 22.3613 201.548ZM30.358 202.626C30.358 202.207 30.2382 201.83 29.9986 201.494C29.759 201.159 29.4356 200.871 29.0283 200.632C28.609 200.392 28.1297 200.212 27.5906 200.093C27.0515 199.961 26.4825 199.895 25.8835 199.895C25.2246 199.895 24.6855 199.973 24.2662 200.128C23.8349 200.284 23.5174 200.5 23.3137 200.775C23.0981 201.051 22.9903 201.362 22.9903 201.71C22.9903 202.129 23.1101 202.507 23.3497 202.842C23.5893 203.177 23.9187 203.465 24.338 203.705C24.7454 203.944 25.2186 204.13 25.7577 204.262C26.2968 204.381 26.8658 204.441 27.4649 204.441C28.1238 204.441 28.6689 204.363 29.1001 204.208C29.5194 204.052 29.8369 203.836 30.0526 203.561C30.2562 203.285 30.358 202.974 30.358 202.626Z" fill="white"/>
<path d="M24.536 210.762C24.6438 210.235 24.8116 209.744 25.0392 209.289C25.2548 208.834 25.5483 208.462 25.9197 208.175C26.2911 207.887 26.7643 207.743 27.3394 207.743C27.8904 207.743 28.3936 207.887 28.8488 208.175C29.2921 208.45 29.6755 208.828 29.9989 209.307C30.3104 209.774 30.556 210.307 30.7357 210.906C30.9034 211.493 30.9873 212.104 30.9873 212.739C30.9873 213.47 30.8795 214.105 30.6638 214.644C30.4362 215.171 30.1367 215.578 29.7653 215.866C29.3939 216.142 28.9866 216.279 28.5434 216.279C28.1121 216.279 27.7706 216.159 27.5191 215.92C27.2555 215.668 27.1237 215.393 27.1237 215.093C27.1237 214.842 27.2076 214.638 27.3753 214.482C27.543 214.327 27.7467 214.249 27.9863 214.249C28.2858 214.249 28.5434 214.362 28.759 214.59C28.9627 214.806 29.0765 215.039 29.1004 215.291C29.5317 215.051 29.8372 214.692 30.0169 214.213C30.1846 213.734 30.2685 213.218 30.2685 212.667C30.2685 211.541 29.9989 210.727 29.4598 210.223C28.9087 209.708 28.2319 209.451 27.4292 209.451C26.8901 209.451 26.4408 209.564 26.0814 209.792C25.7101 210.02 25.4345 210.373 25.2548 210.852C25.0631 211.32 24.9673 211.937 24.9673 212.703L24.3383 212.613C24.3383 212.266 24.2904 211.901 24.1946 211.517C24.0868 211.122 23.919 210.75 23.6914 210.403C23.4518 210.056 23.1403 209.774 22.757 209.558C22.3736 209.343 21.9064 209.235 21.3553 209.235C20.6245 209.235 20.1034 209.433 19.7919 209.828C19.4684 210.211 19.3067 210.721 19.3067 211.355C19.3067 211.954 19.4325 212.494 19.6841 212.973C19.9237 213.44 20.2352 213.775 20.6185 213.979C20.6185 213.728 20.7084 213.524 20.8881 213.368C21.0558 213.2 21.2595 213.117 21.4991 213.117C21.7986 213.117 22.0561 213.23 22.2718 213.458C22.4874 213.686 22.5952 213.949 22.5952 214.249C22.5952 214.488 22.5114 214.692 22.3437 214.86C22.1759 215.015 21.9423 215.093 21.6428 215.093C21.3313 215.093 21.0019 215.003 20.6545 214.824C20.2951 214.632 19.9596 214.356 19.6481 213.997C19.3366 213.638 19.0851 213.2 18.8934 212.685C18.6897 212.158 18.5879 211.559 18.5879 210.888C18.5879 210.445 18.6418 210.02 18.7496 209.612C18.8455 209.205 19.0012 208.846 19.2168 208.534C19.4205 208.211 19.6841 207.959 20.0075 207.779C20.331 207.588 20.7144 207.492 21.1576 207.492C21.7327 207.492 22.2478 207.648 22.7031 207.959C23.1463 208.259 23.5237 208.66 23.8352 209.163C24.1467 209.654 24.3803 210.187 24.536 210.762Z" fill="white"/>
</svg>
