<svg width="146" height="536" viewBox="0 0 146 536" fill="none" xmlns="http://www.w3.org/2000/svg">
<rect x="9" y="6.97559" width="100" height="525" transform="rotate(-4 9 6.97559)" fill="black" fill-opacity="0.03"/>
<rect y="11.9756" width="100" height="525" transform="rotate(-4 0 11.9756)" fill="#FCAB46"/>
<rect x="19.2852" y="291.025" width="100.18" height="245.319" transform="rotate(-4 19.2852 291.025)" fill="#894322"/>
<path d="M67.6717 26.045C67.3126 26.0701 67.3219 26.719 67.3595 27.2577L68.354 41.479C68.3917 42.0177 68.4728 42.6616 68.8319 42.6365L68.8419 42.7801L64.712 43.0689L64.702 42.9253C65.528 42.8675 67.6609 41.8883 67.4474 38.8358L67.2164 35.5319L47.0696 36.9407C44.448 37.124 44.2945 38.5422 44.3247 38.9731L44.181 38.9831L43.7692 33.0935L43.9128 33.0835C43.9429 33.5144 44.2923 34.8974 46.9139 34.7141L67.0607 33.3053L66.8296 30.0014C66.6162 26.9488 64.3678 26.276 63.5418 26.3338L63.5318 26.1901L67.6617 25.9013L67.6717 26.045ZM46.1011 56.6363L45.9575 56.6463L44.8168 52.7203L46.361 52.6123C45.2802 51.6053 44.626 49.991 44.528 48.5904C44.3095 45.466 45.7046 42.1927 49.0445 41.9592C51.702 41.7734 53.7861 44.226 54.0197 47.5658C54.1578 49.541 53.6578 51.1638 52.7534 52.1653L54.98 52.0096C59.1099 51.7208 61.008 49.9642 60.5449 47.4704C60.1629 45.6205 58.3045 44.8483 56.1799 45.4299L55.921 45.3397L56.2814 42.7523L56.5253 42.627C59.0326 43.3899 61.1635 45.4784 61.3593 48.2796C61.5879 51.5476 59.6197 53.8505 54.6997 54.1945L48.846 54.6038C46.9427 54.7369 46.0258 55.5589 46.1011 56.6363ZM49.4181 44.2066C46.622 44.4743 45.0974 46.9266 45.253 49.1532C45.3711 50.8411 46.6124 52.5948 48.444 52.4667L50.1318 52.3487C52.4302 52.1879 53.6826 49.9712 53.5295 47.7805C53.4968 47.3137 53.4283 46.8493 53.252 46.3925C52.754 44.9477 51.3524 43.9992 49.4181 44.2066ZM48.7929 61.5855C46.1713 61.7688 46.0153 63.1511 46.0455 63.582L45.9018 63.5921L45.4925 57.7383L45.6361 57.7283C45.6663 58.1592 46.0156 59.5422 48.6372 59.3589L58.7286 58.6533C61.3502 58.47 61.5036 57.0518 61.4735 56.6208L61.6171 56.6108L62.0265 62.4645L61.8828 62.4746C61.8527 62.0436 61.5059 60.6965 58.8843 60.8798L53.7488 61.2389L54.3741 70.1811L59.5096 69.822C62.1312 69.6387 62.2846 68.2205 62.2545 67.7896L62.3981 67.7795L62.81 73.6691L62.6663 73.6792C62.6362 73.2482 62.2894 71.9012 59.6678 72.0845L49.5764 72.7901C46.9548 72.9735 46.7988 74.3557 46.829 74.7866L46.6853 74.7967L46.2735 68.9071L46.4171 68.897C46.4473 69.328 46.7966 70.711 49.4182 70.5277L53.6559 70.2313L53.0306 61.2892L48.7929 61.5855ZM44.9187 93.4001C45.7806 93.3398 47.9085 92.2888 47.695 89.2362L46.8488 77.1338L46.9924 77.1238C47.0225 77.5547 47.3719 78.9377 49.9935 78.7544L60.0848 78.0487C62.7064 77.8654 62.8599 76.4472 62.8297 76.0163L62.9734 76.0063L63.3852 81.8959L63.2416 81.9059C63.2114 81.475 62.8646 80.1279 60.243 80.3112L47.8533 81.1776L48.4284 89.4015L60.8181 88.5351C63.4397 88.3518 63.5932 86.9336 63.563 86.5027L63.7067 86.4926L64.1185 92.3823L63.9749 92.3923C63.9447 91.9614 63.5954 90.5784 60.9738 90.7617L48.5841 91.6281L48.6142 92.059C48.6493 92.5618 48.7254 93.1339 49.0846 93.1088L49.0946 93.2524L44.9288 93.5437L44.9187 93.4001ZM48.2737 103.188C43.7051 101.848 41.7698 101.009 41.5513 97.8843C41.4911 97.0224 41.6739 96.5405 41.8643 96.1663L42.139 95.9666L45.0597 96.4481L45.0773 96.6995C43.5908 97.6334 43.2051 98.31 43.2704 99.2437C43.4135 101.291 47.2955 102.102 49.2491 102.687L61.3322 95.8876C63.83 94.4499 64.0169 92.9933 63.9868 92.5623L64.1304 92.5523L64.5448 98.4778L64.4011 98.4879C64.371 98.0569 63.9933 96.7842 61.5623 98.1451L52.0179 103.576L62.1065 106.443C64.7599 107.232 64.941 106.209 64.9109 105.778L65.0545 105.768L65.3358 109.79L65.1921 109.8C65.162 109.369 64.8177 108.058 62.1617 107.233L48.2737 103.188ZM58.9098 133.496C54.2771 133.82 50.2954 131.067 50.0342 127.332C49.7906 123.849 52.927 120.706 57.1421 120.087L56.783 114.951L52.5453 115.248C49.9237 115.431 49.7678 116.813 49.7979 117.244L49.6543 117.254L49.2449 111.401L49.3886 111.391C49.4187 111.821 49.768 113.204 52.3896 113.021L62.481 112.316C65.1026 112.132 65.256 110.714 65.2259 110.283L65.3696 110.273L65.7789 116.127L65.6352 116.137C65.6051 115.706 65.2583 114.359 62.6367 114.542L57.5012 114.901L57.8578 120.001C62.4546 119.679 66.5416 122.389 66.8052 126.16C67.0664 129.894 63.5066 133.175 58.9098 133.496ZM57.7287 122.283C53.5187 122.975 50.4373 125.355 50.8361 127.962C51.2708 130.566 54.9366 131.897 59.1132 131.245C63.3232 130.553 66.4047 128.172 66.0059 125.566C65.5712 122.962 61.9054 121.63 57.7287 122.283ZM67.3226 140.268C67.2925 139.837 66.9457 138.49 64.3241 138.673L51.9343 139.539L52.3813 145.932L64.7711 145.065C67.3927 144.882 67.5461 143.464 67.516 143.033L67.6596 143.023L68.069 148.877L67.9253 148.887C67.8952 148.456 67.5484 147.109 64.9268 147.292L52.537 148.158L52.9865 154.587L65.3763 153.72C67.9979 153.537 68.1513 152.119 68.1212 151.688L68.2649 151.678L68.6767 157.567L68.533 157.577C68.5029 157.146 68.1536 155.763 65.532 155.947L53.1422 156.813L53.2 157.639C53.2352 158.142 53.3112 158.714 53.6704 158.689L53.6804 158.832L49.5146 159.124L49.5045 158.98C50.3664 158.92 52.4943 157.869 52.2809 154.816L50.9298 135.496L51.0735 135.485C51.1036 135.916 51.4529 137.299 54.0745 137.116L64.1659 136.41C66.7875 136.227 66.9409 134.809 66.9108 134.378L67.0544 134.368L67.4663 140.258L67.3226 140.268ZM54.3221 174.201L54.1784 174.211L53.0378 170.285L54.582 170.177C53.5011 169.17 52.8469 167.556 52.749 166.156C52.5305 163.031 53.9256 159.758 57.2654 159.524C59.9229 159.338 62.0071 161.791 62.2406 165.131C62.3787 167.106 61.8787 168.729 60.9744 169.73L63.2009 169.575C67.3309 169.286 69.2289 167.529 68.7659 165.036C68.3839 163.186 66.5255 162.413 64.4009 162.995L64.142 162.905L64.5024 160.317L64.7462 160.192C67.2535 160.955 69.3844 163.043 69.5803 165.845C69.8088 169.113 67.8407 171.416 62.9207 171.76L57.067 172.169C55.1636 172.302 54.2467 173.124 54.3221 174.201ZM57.6391 161.772C54.843 162.039 53.3183 164.492 53.474 166.718C53.592 168.406 54.8334 170.16 56.6649 170.032L58.3528 169.914C60.6512 169.753 61.9036 167.536 61.7504 165.346C61.7178 164.879 61.6492 164.414 61.4729 163.958C60.9749 162.513 59.5733 161.564 57.6391 161.772ZM57.063 179.853C54.2616 178.497 54.1598 179.623 54.19 180.054L54.0463 180.064L53.6295 174.102L53.7731 174.092C53.8032 174.523 54.1317 176.124 56.8947 177.447L60.6341 179.314L60.7544 179.486L61.2624 181.075C61.5701 177.733 63.1942 175.671 65.4567 175.513C68.0064 175.334 70.1358 178.433 70.4246 182.563L70.8189 188.202L70.6752 188.212C70.6451 187.781 70.3317 186.395 67.6741 186.581L57.5828 187.287C54.9253 187.473 54.8077 188.888 54.8379 189.319L54.6942 189.329L54.2899 183.547L54.4336 183.537C54.4637 183.968 54.7746 185.318 57.4321 185.132L61.3466 184.858L61.2486 183.458C61.2109 182.919 61.1758 182.416 61.215 181.944L57.063 179.853ZM65.2967 177.87C62.6033 178.058 61.5404 180.406 61.7037 182.74L61.8493 184.823L70.0732 184.248L70.0255 183.566C69.7393 179.472 67.8824 177.689 65.2967 177.87ZM59.3134 212.036C56.6918 212.219 56.5358 213.601 56.566 214.032L56.4223 214.042L56.013 208.188L56.1566 208.178C56.1868 208.609 56.5361 209.992 59.1577 209.809L65.5501 209.362C63.7618 208.044 61.331 205.796 61.1553 203.282C60.9644 200.552 62.8517 199.157 65.9761 198.939L68.5258 198.761C71.1833 198.575 71.3393 197.193 71.3092 196.762L71.4169 196.754L71.8262 202.608L71.7185 202.615C71.6884 202.184 71.339 200.801 68.6815 200.987L67.0296 201.103C63.9052 201.321 62.6852 202.453 62.8283 204.5C63.0217 207.265 66.2967 209.202 67.7767 209.206L69.2491 209.103C71.9066 208.918 72.06 207.499 72.0299 207.068L72.1376 207.061L72.547 212.915L72.4392 212.922C72.4091 212.491 72.0623 211.144 69.4048 211.33L59.3134 212.036ZM56.7253 224.051C52.1566 222.711 50.2214 221.872 50.0029 218.747C49.9426 217.886 50.1255 217.404 50.3158 217.029L50.5906 216.83L53.5113 217.311L53.5289 217.563C52.0424 218.497 51.6566 219.173 51.7219 220.107C51.8651 222.154 55.7471 222.965 57.7007 223.55L69.7838 216.751C72.2816 215.313 72.4685 213.856 72.4383 213.425L72.582 213.415L72.9963 219.341L72.8527 219.351C72.8225 218.92 72.4448 217.647 70.0138 219.008L60.4694 224.439L70.558 227.306C73.2115 228.095 73.3926 227.072 73.3625 226.641L73.5061 226.631L73.7874 230.653L73.6437 230.663C73.6136 230.232 73.2693 228.921 70.6133 228.097L56.7253 224.051ZM60.8693 234.286C58.2477 234.469 58.0943 235.888 58.1244 236.319L57.9807 236.329L57.6769 231.983L57.8205 231.973C57.8507 232.404 58.1975 233.751 60.8191 233.568L70.9104 232.862C73.5679 232.676 73.688 231.297 73.6579 230.866L73.8015 230.856L74.0577 234.519L62.2083 241.049L74.806 245.221L75.0873 249.243L74.9436 249.253C74.9135 248.822 74.6026 247.472 71.9451 247.658L61.8537 248.364C59.2321 248.547 59.0761 249.929 59.1063 250.36L58.9626 250.37L58.5533 244.517L58.697 244.507C58.7271 244.937 59.0764 246.32 61.698 246.137L72.8667 245.356L58.2746 240.53L58.2645 240.387L70.6734 233.601L60.8693 234.286ZM60.7135 265.604L60.5699 265.614L59.4292 261.688L60.9735 261.58C59.8926 260.573 59.2384 258.959 59.1405 257.558C58.922 254.434 60.317 251.16 63.6569 250.927C66.3144 250.741 68.3986 253.193 68.6321 256.533C68.7702 258.509 68.2702 260.131 67.3659 261.133L69.5924 260.977C73.7223 260.688 75.6204 258.932 75.1573 256.438C74.7754 254.588 72.917 253.816 70.7924 254.397L70.5335 254.307L70.8938 251.72L71.1377 251.595C73.645 252.357 75.7759 254.446 75.9718 257.247C76.2003 260.515 74.2321 262.818 69.3122 263.162L63.4584 263.571C61.5551 263.704 60.6382 264.526 60.7135 265.604ZM64.0306 253.174C61.2344 253.442 59.7098 255.894 59.8655 258.121C59.9835 259.809 61.2249 261.562 63.0564 261.434L64.7443 261.316C67.0427 261.155 68.2951 258.939 68.1419 256.748C68.1092 256.281 68.0407 255.817 67.8644 255.36C67.3664 253.915 65.9648 252.967 64.0306 253.174Z" fill="#894322"/>
<path d="M73.687 454.108C73.8093 455.856 74.7308 455.959 75.0181 455.939L75.0248 456.035L71.1223 456.308L71.1156 456.212C71.4029 456.192 72.3249 455.959 72.2027 454.212L71.7908 448.322C70.6246 449.534 68.4773 451.513 66.3705 451.66C64.3115 451.804 63.308 450.527 63.164 448.468L62.7756 442.914C62.6534 441.166 61.7319 441.062 61.4446 441.082L61.4379 440.986L65.3643 440.712L65.371 440.807C65.0837 440.828 64.1617 441.06 64.2839 442.808L64.6271 447.716C64.7728 449.799 65.6025 450.655 67.2545 450.54C69.481 450.384 71.6766 448.065 71.7038 447.077L71.3706 442.313C71.2484 440.565 70.303 440.463 70.0157 440.483L70.009 440.387L73.9114 440.114L73.9181 440.21C73.6308 440.23 72.7328 440.461 72.855 442.209L73.687 454.108ZM74.3601 445.039C74.3752 445.254 74.8078 445.248 75.1669 445.223L82.9958 444.675C83.331 444.652 83.7603 444.598 83.7452 444.382L83.841 444.376L84.0335 447.129L83.9377 447.136C83.8976 446.561 83.4363 445.126 81.3773 445.27L79.8451 445.377L80.4227 453.637C80.5449 455.385 81.4903 455.487 81.7776 455.467L81.7843 455.562L77.8579 455.837L77.8512 455.741C78.1385 455.721 79.0605 455.488 78.9383 453.741L78.3607 445.481L76.8284 445.588C74.7695 445.732 74.5125 447.217 74.5527 447.792L74.4569 447.799L74.2644 445.045L74.3601 445.039ZM88.9774 444.041C91.4673 443.867 93.6542 446.24 93.8684 449.304C94.0844 452.393 92.2491 455.047 89.7592 455.221C87.2693 455.395 85.0824 453.022 84.8664 449.934C84.6521 446.869 86.4874 444.215 88.9774 444.041ZM90.1789 454.687C91.9149 454.397 92.8026 451.953 92.3657 449.145C91.9064 446.362 90.3193 444.308 88.5816 444.574C86.8456 444.863 85.9579 447.307 86.3932 450.092C86.8541 452.898 88.4412 454.953 90.1789 454.687ZM74.4419 479.734C74.6729 483.037 72.9902 485.465 70.0214 485.672C68.1779 485.801 66.5425 485.122 65.457 482.671L65.4931 482.501L67.2397 482.018L67.3216 482.156C67.2459 482.45 67.2181 482.741 67.2382 483.028C67.3236 484.249 68.4095 485.328 69.8699 485.226C72.1683 485.065 72.9374 482.99 72.7571 480.068L68.3998 480.373L68.3663 479.894L72.7236 479.589C72.4598 476.504 71.4261 474.796 69.2953 474.945C67.811 475.049 66.8396 476.295 66.925 477.517C66.9434 477.78 66.9874 478.065 67.0999 478.298L67.0398 478.471L65.2926 478.256L65.2074 478.07C65.9514 475.636 67.4679 474.616 69.3832 474.482C72.352 474.274 74.2042 476.334 74.4419 479.734ZM74.7815 474.08C74.7966 474.296 75.2292 474.289 75.5883 474.264L83.4172 473.717C83.7524 473.693 84.1817 473.639 84.1666 473.424L84.2624 473.417L84.4549 476.17L84.3591 476.177C84.3189 475.602 83.8577 474.167 81.7987 474.311L80.2665 474.418L80.844 482.678C80.9663 484.426 81.9117 484.528 82.199 484.508L82.2057 484.604L78.2793 484.878L78.2726 484.783C78.5599 484.763 79.4819 484.53 79.3597 482.782L78.7821 474.522L77.2498 474.629C75.1908 474.773 74.9338 476.259 74.974 476.833L74.8783 476.84L74.6857 474.087L74.7815 474.08ZM89.3987 473.082C91.8887 472.908 94.0755 475.281 94.2898 478.346C94.5058 481.434 92.6705 484.089 90.1806 484.263C87.6906 484.437 85.5038 482.064 85.2878 478.975C85.0735 475.911 86.9088 473.256 89.3987 473.082ZM90.6003 483.728C92.3363 483.438 93.224 480.994 92.787 478.186C92.3278 475.403 90.7406 473.349 89.0029 473.615C87.2669 473.905 86.3792 476.349 86.8145 479.133C87.2754 481.94 88.8626 483.994 90.6003 483.728ZM65.8059 509.889C65.9867 512.475 64.2249 515.149 61.3759 515.348C58.2635 515.565 56.0692 512.399 55.7595 507.97C55.4163 503.062 58.6573 499.178 63.6065 498.736L63.9477 498.11L64.0674 498.102L64.2318 499.077C59.7308 499.392 57.2754 502.811 57.2655 507.142C57.9067 505.991 59.0162 504.999 60.4288 504.9C63.3257 504.698 65.6234 507.28 65.8059 509.889ZM57.2918 507.862C57.524 511.527 59.1158 515.025 61.5066 514.809C63.5895 514.664 64.2974 512.401 64.0666 510.131C63.8067 507.792 62.5725 505.28 60.322 505.437C58.9334 505.534 57.8016 506.552 57.2918 507.862ZM81.5093 513.723L77.5829 513.998L77.5762 513.902C77.8635 513.882 78.7855 513.649 78.6633 511.901L78.1928 505.174C78.0706 503.426 77.1252 503.324 76.8379 503.344L76.8312 503.248L80.7576 502.974L80.7643 503.069C80.477 503.089 79.5789 503.321 79.7012 505.068L80.1716 511.796C80.2938 513.544 81.2153 513.648 81.5026 513.628L81.5093 513.723ZM76.686 511.15C76.8065 512.873 74.3747 514.222 70.3286 514.505L66.3782 514.781L66.3715 514.686C66.6588 514.666 67.5825 514.457 67.4586 512.685L66.9882 505.957C66.8643 504.186 65.9205 504.107 65.6332 504.127L65.6265 504.032L69.5769 503.755L69.5836 503.851C69.2963 503.871 68.3487 504.082 68.4726 505.854L68.6751 508.751L70.0877 508.652C73.8226 508.391 76.5705 509.498 76.686 511.15ZM75.1003 511.525C74.9798 509.801 73.0626 508.877 68.9926 509.161L68.7053 509.181L69.0518 514.137L70.9911 514.002C73.6486 513.816 75.1941 512.866 75.1003 511.525ZM84.4723 504.735C84.35 502.987 83.2849 502.893 82.9976 502.913L82.9909 502.817L91.7774 502.203L91.7841 502.299C91.5208 502.317 90.5988 502.55 90.7176 504.25L91.3321 513.036L89.8477 513.14L89.1295 502.869L84.9158 503.164C85.3962 510.035 85.2899 513.676 83.638 513.791C83.1352 513.826 82.7833 513.61 82.5048 513.413L82.4998 513.341L83.1205 512.239L83.1683 512.236C83.2052 512.763 83.384 513.255 83.7192 513.232C84.5571 513.173 84.8607 510.289 84.4723 504.735ZM97.1971 501.608C99.687 501.433 101.874 503.807 102.088 506.871C102.304 509.96 100.469 512.614 97.9789 512.788C95.489 512.962 93.3021 510.589 93.0862 507.501C92.8719 504.436 94.7072 501.782 97.1971 501.608ZM98.3987 512.254C100.135 511.964 101.022 509.52 100.585 506.712C100.126 503.929 98.539 501.875 96.8013 502.14C95.0653 502.43 94.1776 504.874 94.6129 507.659C95.0738 510.465 96.661 512.519 98.3987 512.254ZM104.533 506.845L104.055 506.878L103.525 504.461L103.515 504.317C105.566 503.717 107.228 501.002 107.054 498.512C106.95 497.028 106.102 496.245 104.713 496.342C102.846 496.473 101.589 498.461 102.222 500.631L101.988 500.719L100.742 499.074L100.727 498.859C101.148 497.65 102.479 496.042 104.514 495.899C106.788 495.74 108.421 497.07 108.557 499.009C108.751 501.786 106.184 503.962 104.706 504.499L104.533 506.845ZM105.693 511.046C105.735 511.644 105.267 512.182 104.669 512.224C104.046 512.268 103.532 511.798 103.491 511.2C103.447 510.577 103.891 510.041 104.513 509.998C105.112 509.956 105.65 510.423 105.693 511.046Z" fill="#FCAB46"/>
</svg>
