<svg width="239" height="760" viewBox="0 0 239 760" fill="none" xmlns="http://www.w3.org/2000/svg">
<path d="M238.051 3.08496L30.8312 0.296265L0.712764 756.232L207.932 759.02L238.051 3.08496Z" fill="#8160C8"/>
<path d="M209.805 721.813L2.58513 719.025L1.83071 737.96L209.05 740.748L209.805 721.813Z" fill="#D3BEFF"/>
<path d="M236.82 35.4365L29.6622 32.6487L28.9077 51.5836L236.066 54.3715L236.82 35.4365Z" fill="#D3BEFF"/>
<path d="M191.199 411.102L185.026 411.019C184.838 410.334 184.809 410.154 184.809 409.257C183.023 410.812 181.163 411.541 178.579 411.506C174.559 411.452 172.168 409.267 172.309 405.716C172.493 401.089 176.36 400.495 180.187 399.973C183.907 399.448 185.088 399.536 185.157 397.814C185.21 396.487 184.302 395.829 182.4 395.804C180.498 395.778 179.692 396.162 179.184 398.093L173.442 398.016C174.002 393.861 176.991 391.855 182.626 391.931C184.959 391.962 187.496 392.283 189.378 393.708C190.738 394.731 191.086 395.92 190.989 398.359L190.693 405.784C190.622 407.577 190.547 409.442 191.199 411.102ZM184.977 402.334C183.696 402.926 182.289 403.087 180.914 403.356C179.322 403.657 178.612 404.365 178.563 405.585C178.509 406.948 179.373 407.785 180.881 407.805C182.926 407.832 184.805 406.638 184.901 404.235L184.977 402.334Z" fill="#D3BEFF"/>
<path d="M152.82 410.584L153.557 392.077L165.221 392.234C168.416 392.277 171.131 393.533 170.994 396.977C170.921 398.806 170.017 399.87 168.441 400.674C170.637 401.422 171.689 402.979 171.597 405.274C171.529 406.996 170.825 408.422 169.601 409.41C167.968 410.752 166.136 410.763 164.162 410.737L152.82 410.584ZM159.153 399.437L162.419 399.481C164.07 399.503 164.845 398.975 164.895 397.72C164.957 396.178 163.746 395.91 162.454 395.893L159.296 395.85L159.153 399.437ZM158.859 406.826L162.52 406.875C163.955 406.894 165.259 406.625 165.33 404.831C165.402 403.038 164.052 402.661 162.545 402.641L159.027 402.593L158.859 406.826Z" fill="#D3BEFF"/>
<path d="M141.976 391.385C147.718 391.462 151.508 395.496 151.278 401.271C151.045 407.117 146.937 411.081 141.123 411.003C135.308 410.925 131.483 406.89 131.716 401.044C131.946 395.269 136.125 391.306 141.976 391.385ZM141.652 395.902C139.355 395.871 137.95 397.79 137.817 401.126C137.68 404.569 138.931 406.523 141.3 406.555C143.633 406.587 145.039 404.632 145.176 401.189C145.309 397.853 144.057 395.934 141.652 395.902Z" fill="#D3BEFF"/>
<path d="M123.293 410.188L123.846 396.308L120.005 396.257L119.564 401.921C119.281 405.434 118.932 410.596 112.758 410.513C111.61 410.498 110.649 410.27 109.727 409.97L109.917 405.2C110.305 405.385 110.876 405.464 111.271 405.469C112.851 405.491 113.475 404.243 113.586 402.343L114.303 391.551L130.132 391.763L129.395 410.27L123.293 410.188Z" fill="#D3BEFF"/>
<path d="M105.669 396.064L105.117 409.945L99.0152 409.863L99.5678 395.982L93.4662 395.9L93.6504 391.273L111.955 391.519L111.771 396.146L105.669 396.064Z" fill="#D3BEFF"/>
<path d="M91.8755 409.766L85.7739 409.684L86.0352 403.121L84.1688 403.095L79.6723 409.602L72.3862 409.504L78.0943 402.332C75.9019 401.477 74.3653 399.483 74.4695 396.865C74.6052 393.457 77.5377 391.056 81.3782 391.108L92.6123 391.259L91.8755 409.766ZM86.2023 398.924L86.3408 395.445L83.29 395.404C81.1006 395.375 80.7447 396.195 80.709 397.092C80.6704 398.06 80.962 398.854 83.1515 398.883L86.2023 398.924Z" fill="#D3BEFF"/>
<path d="M73.3798 415.797L67.1347 415.713L67.3846 409.437L52.5253 409.237L52.2754 415.514L46.0303 415.43L46.5058 403.486L49.1618 403.522C51.4911 400.037 53.1088 391.876 53.3159 386.676L53.4344 383.699L71.7033 383.944L70.9122 403.814L73.8553 403.854L73.3798 415.797ZM64.3799 403.726L64.9539 389.308L59.4984 389.235L59.4527 390.383C59.2685 395.009 57.9043 400.41 56.2325 403.617L64.3799 403.726Z" fill="#D3BEFF"/>
<path d="M188.225 367.997L188.777 354.117L184.937 354.065L184.496 359.729C184.213 363.242 183.863 368.405 177.69 368.322C176.541 368.307 175.581 368.078 174.659 367.779L174.849 363.009C175.237 363.193 175.808 363.273 176.203 363.278C177.782 363.299 178.406 362.052 178.518 360.151L179.235 349.359L195.063 349.572L194.326 368.079L188.225 367.997Z" fill="#D3BEFF"/>
<path d="M174.776 367.818L168.602 367.735C168.414 367.051 168.385 366.871 168.385 365.974C166.599 367.529 164.739 368.258 162.155 368.223C158.135 368.169 155.744 365.984 155.885 362.433C156.07 357.806 159.936 357.212 163.763 356.689C167.483 356.165 168.664 356.253 168.733 354.531C168.786 353.204 167.878 352.546 165.976 352.52C164.074 352.495 163.268 352.879 162.761 354.81L157.018 354.733C157.578 350.577 160.567 348.572 166.202 348.648C168.535 348.679 171.072 349 172.954 350.425C174.314 351.448 174.662 352.637 174.565 355.076L174.269 362.5C174.198 364.294 174.124 366.159 174.776 367.818ZM168.553 359.05C167.273 359.643 165.866 359.804 164.49 360.072C162.898 360.374 162.188 361.082 162.139 362.302C162.085 363.665 162.949 364.501 164.457 364.522C166.503 364.549 168.382 363.354 168.477 360.951L168.553 359.05Z" fill="#D3BEFF"/>
<path d="M136.394 367.303L137.131 348.796L148.796 348.953C151.99 348.996 154.705 350.252 154.568 353.695C154.495 355.525 153.591 356.589 152.015 357.393C154.212 358.14 155.263 359.698 155.171 361.993C155.103 363.715 154.4 365.141 153.175 366.129C151.542 367.471 149.71 367.482 147.736 367.455L136.394 367.303ZM142.727 356.156L145.993 356.2C147.644 356.222 148.42 355.694 148.47 354.439C148.531 352.897 147.321 352.629 146.029 352.612L142.87 352.569L142.727 356.156ZM142.433 363.544L146.094 363.594C147.53 363.613 148.833 363.343 148.905 361.55C148.976 359.757 147.626 359.38 146.119 359.359L142.602 359.312L142.433 363.544Z" fill="#D3BEFF"/>
<path d="M134.969 359.496L121.186 359.31C121.15 362.037 122.666 363.637 125.25 363.671C126.937 363.694 127.971 362.99 128.817 361.566L134.524 361.643C133.18 365.644 129.683 367.786 125.017 367.723C119.238 367.646 115.04 363.965 115.278 357.975C115.511 352.129 119.765 348.095 125.58 348.173C131.682 348.255 135.253 352.358 134.99 358.958L134.969 359.496ZM129.113 355.936C129.018 353.818 127.786 352.294 125.453 352.262C123.264 352.233 121.848 353.506 121.397 355.832L129.113 355.936Z" fill="#D3BEFF"/>
<path d="M101.157 348.312L101.072 350.464C102.434 348.724 104.263 347.887 106.595 347.919C111.477 347.984 114.551 351.937 114.316 357.855C114.084 363.665 110.81 367.425 106.037 367.361C103.776 367.331 102.086 366.483 100.756 364.706L100.422 373.099L94.356 373.018L95.3428 348.234L101.157 348.312ZM104.644 352.737C102.419 352.707 100.943 354.589 100.822 357.638C100.696 360.794 101.989 362.606 104.358 362.638C106.691 362.669 108.088 360.929 108.211 357.845C108.343 354.545 107.085 352.77 104.644 352.737Z" fill="#D3BEFF"/>
<path d="M93.2911 358.935L79.5086 358.75C79.4719 361.477 80.9883 363.076 83.5725 363.111C85.2594 363.134 86.2929 362.43 87.1397 361.006L92.8465 361.082C91.5021 365.083 88.0053 367.225 83.3393 367.163C77.5608 367.085 73.3621 363.404 73.6005 357.415C73.8333 351.568 78.0878 347.534 83.9022 347.613C90.0038 347.695 93.5752 351.798 93.3125 358.397L93.2911 358.935ZM87.4356 355.376C87.3404 353.257 86.1083 351.733 83.7753 351.702C81.5859 351.672 80.1706 352.945 79.7189 355.272L87.4356 355.376Z" fill="#D3BEFF"/>
<path d="M72.2395 340.889L71.2228 366.426L64.511 366.336L65.3021 346.466L56.6522 346.35L55.8611 366.22L49.1493 366.13L50.166 340.593L72.2395 340.889Z" fill="#D3BEFF"/>
<path d="M132.565 697.529L132.357 702.765L112.365 702.497L112.368 702.425C112.64 695.574 117.055 693.839 123.134 689.974C124.719 688.954 126.519 687.938 126.602 685.858C126.677 683.957 125.434 682.72 123.352 682.692C120.193 682.649 119.374 685.186 119.276 687.661L113.497 687.583C113.743 681.414 116.956 677.367 123.848 677.459C129.483 677.535 132.95 680.632 132.758 685.474C132.575 690.065 129.417 691.817 125.811 693.993C123.455 695.433 122.358 695.92 120.828 697.371L132.565 697.529Z" fill="#D3BEFF"/>
<path d="M104.453 696.757C100.613 696.706 98.1243 694.268 98.2699 690.609C98.4156 686.951 101.131 684.583 104.972 684.635C108.776 684.686 111.228 687.159 111.083 690.782C110.938 694.44 108.294 696.809 104.453 696.757ZM98.4863 702.311L98.6477 698.258L110.528 698.418L110.367 702.471L98.4863 702.311ZM89.6211 702.192L82.233 688.42L81.689 702.085L75.2643 701.999L76.2539 677.144L82.7503 677.231L90.0694 690.93L90.6106 677.336L96.9994 677.422L96.0098 702.278L89.6211 702.192ZM104.771 687.862C103.551 687.845 102.618 688.73 102.541 690.667C102.462 692.64 103.29 693.512 104.582 693.529C105.838 693.546 106.77 692.697 106.848 690.725C106.925 688.788 106.064 687.879 104.771 687.862Z" fill="#D3BEFF"/>
</svg>
