<svg width="155" height="594" viewBox="0 0 155 594" fill="none" xmlns="http://www.w3.org/2000/svg">
<path d="M33.541 0.00195312L154.198 4.05521L121.079 593.482L0.421573 589.429L33.541 0.00195312Z" fill="#054CA3"/>
<path d="M103.303 487.956L118.002 488.449L117.897 490.332L87.4143 489.31L87.5199 487.427L90.8649 487.54C88.4561 485.604 87.3405 483.052 87.5183 479.883C87.6767 477.059 88.7458 474.831 90.7253 473.2C92.6735 471.568 95.0767 470.799 97.935 470.895C100.856 470.993 103.257 471.938 105.139 473.73C106.992 475.49 107.838 477.797 107.678 480.653C107.597 482.096 107.241 483.389 106.61 484.531C105.949 485.672 105.37 486.454 104.874 486.877C104.347 487.3 103.823 487.66 103.303 487.956ZM103.173 486.066C104.849 484.802 105.753 482.993 105.885 480.64C106.017 478.286 105.319 476.424 103.791 475.052C102.263 473.681 100.274 472.954 97.8241 472.872C95.2799 472.787 93.2607 473.442 91.7663 474.838C90.2405 476.233 89.4195 477.966 89.3034 480.037C89.1889 482.076 89.7962 483.873 91.1251 485.426C92.4558 486.948 94.3775 487.752 96.8902 487.836C99.3715 487.919 101.466 487.329 103.173 486.066Z" fill="#F7F7F7"/>
<path d="M90.3804 496.185L87.0353 496.073L87.1409 494.19L106.363 494.834L106.258 496.717L102.818 496.602C105.36 498.416 106.539 500.955 106.356 504.218C106.21 506.822 105.159 509.003 103.204 510.761C101.249 512.519 98.7479 513.347 95.7012 513.245C92.7173 513.145 90.3473 512.201 88.5909 510.413C86.8346 508.625 86.0348 506.335 86.1915 503.542C86.371 500.342 87.7673 497.889 90.3804 496.185ZM87.9871 503.508C87.8726 505.547 88.5122 507.329 89.9057 508.854C91.2677 510.377 93.1894 511.18 95.6708 511.263C97.9636 511.34 99.9959 510.732 101.768 509.44C103.508 508.146 104.443 506.339 104.574 504.017C104.702 501.726 103.987 499.895 102.427 498.522C100.838 497.117 98.8661 496.375 96.5104 496.296C93.9035 496.209 91.8659 496.911 90.3976 498.402C88.8979 499.892 88.0944 501.594 87.9871 503.508Z" fill="#F7F7F7"/>
<path d="M85.2865 527.304L85.3921 525.422L94.5321 525.728L85.8779 516.762L86.0152 514.314L94.7478 523.566L105.28 514.205L105.137 516.747L95.9041 524.831L96.7936 525.804L104.614 526.066L104.509 527.949L96.688 527.687L95.6929 528.596L103.986 537.268L103.843 539.809L94.3993 529.779L84.6633 538.412L84.8006 535.965L94.4265 527.611L85.2865 527.304Z" fill="#F7F7F7"/>
<path d="M86.1094 557.159C84.2712 555.149 83.4322 552.716 83.5924 549.86C83.7526 547.005 84.86 544.653 86.9148 542.804C88.9399 540.923 91.3815 540.031 94.2397 540.126C97.098 540.222 99.4462 541.275 101.284 543.286C103.093 545.264 103.917 547.681 103.757 550.536C103.597 553.392 102.504 555.76 100.479 557.641C98.4243 559.49 95.9679 560.366 93.1096 560.271C90.2514 560.175 87.918 559.138 86.1094 557.159ZM99.2391 556.185C100.929 554.67 101.838 552.767 101.967 550.476C102.095 548.186 101.402 546.245 99.886 544.654C98.3722 543.031 96.4531 542.181 94.1288 542.103C91.8046 542.025 89.7975 542.744 88.1076 544.259C86.4195 545.743 85.5112 547.63 85.3827 549.921C85.2542 552.211 85.9469 554.168 87.4607 555.79C88.9763 557.381 90.8963 558.216 93.2205 558.294C95.5448 558.372 97.551 557.669 99.2391 556.185Z" fill="#F7F7F7"/>
<path d="M101.666 578.581L82.4434 577.937L83.246 563.628L102.468 564.273L102.363 566.155L84.9307 565.571L84.3393 576.114L101.771 576.698L101.666 578.581Z" fill="#F7F7F7"/>
<path d="M62.1098 399.488L62.2154 397.605L77.6216 398.121L61.8975 383.919L82.2035 384.6L82.0979 386.483L66.786 385.97L82.51 400.171L62.1098 399.488ZM56.2834 393.964C56.9888 393.17 57.374 392.193 57.4392 391.032C57.5043 389.871 57.2291 388.887 56.6135 388.081C55.9997 387.243 55.2129 386.682 54.2533 386.398L55.1441 384.825C58.0437 385.865 59.4055 387.954 59.2295 391.092C59.0534 394.23 57.4628 396.22 54.4575 397.062L53.7464 395.435C54.7342 395.217 55.5798 394.726 56.2834 393.964Z" fill="#F7F7F7"/>
<path d="M60.9645 419.897L61.0701 418.014L76.4762 418.53L60.7522 404.329L81.0581 405.009L80.9525 406.892L65.6406 406.379L81.3646 420.58L60.9645 419.897Z" fill="#F7F7F7"/>
<path d="M60.0254 436.676L60.131 434.793L69.271 435.099L60.6749 425.098L60.8175 422.556L69.4083 432.652L80.0821 422.447L79.9289 425.177L70.6012 434.107L71.5325 435.175L79.3533 435.437L79.2477 437.32L60.0254 436.676Z" fill="#F7F7F7"/>
<path d="M61.8488 440.292L64.3458 440.376C62.1393 442.125 60.963 444.302 60.8169 446.906C60.6866 449.228 61.3802 451.169 62.8975 452.729C64.3835 454.288 66.32 455.107 68.7071 455.187C71.2826 455.273 73.3534 454.541 74.9194 452.99C76.454 451.438 77.2794 449.627 77.3956 447.556C77.5381 445.015 76.522 442.654 74.3471 440.475L76.8912 440.56C78.5688 442.629 79.3329 444.996 79.1832 447.663C79.0213 450.55 77.9461 452.887 75.9577 454.675C73.9397 456.431 71.5015 457.261 68.6433 457.165C65.7223 457.067 63.3548 456.076 61.541 454.192C59.6957 452.307 58.8576 449.858 59.0266 446.846C59.1656 444.367 60.1064 442.183 61.8488 440.292Z" fill="#F7F7F7"/>
<path d="M77.0915 475.748L57.8691 475.104L57.9748 473.221L66.4552 473.505L67.0625 462.68L58.5821 462.396L58.6877 460.513L77.91 461.157L77.8044 463.04L68.8528 462.74L68.2455 473.565L77.1971 473.865L77.0915 475.748Z" fill="#F7F7F7"/>
<path d="M59.1915 496.109C57.3533 494.098 56.5142 491.665 56.6744 488.81C56.8346 485.954 57.9421 483.602 59.9968 481.754C62.0219 479.872 64.4635 478.98 67.3218 479.076C70.18 479.171 72.5282 480.225 74.3664 482.235C76.175 484.213 76.9992 486.63 76.839 489.486C76.6788 492.341 75.5862 494.709 73.5611 496.59C71.5064 498.439 69.0499 499.316 66.1917 499.22C63.3334 499.124 61.0001 498.087 59.1915 496.109ZM72.3211 495.134C74.011 493.619 74.9202 491.716 75.0487 489.426C75.1772 487.135 74.4836 485.194 72.968 483.603C71.4542 481.98 69.5351 481.13 67.2109 481.052C64.8866 480.974 62.8795 481.693 61.1897 483.208C59.5015 484.692 58.5932 486.579 58.4647 488.87C58.3362 491.16 59.0289 493.117 60.5428 494.739C62.0584 496.331 63.9783 497.165 66.3026 497.243C68.6268 497.321 70.633 496.618 72.3211 495.134Z" fill="#F7F7F7"/>
<path d="M55.6199 515.201L56.3275 502.587L73.7595 503.172L73.9179 500.348L80.8907 500.582L80.7904 502.37L75.6079 502.196L74.6996 518.387L79.8821 518.561L79.7818 520.349L72.809 520.116C72.8027 518.543 72.0207 517.338 70.4629 516.5C69.3935 515.93 67.6809 515.605 65.3253 515.526L55.6199 515.201ZM73.6539 505.054L58.0122 504.53L57.5158 513.379L65.9962 513.663C69.3884 513.776 71.7297 514.672 73.0202 516.35L73.6539 505.054Z" fill="#F7F7F7"/>
<path d="M73.6735 536.655L54.4512 536.011L54.5568 534.128L63.0372 534.412L63.6445 523.587L55.1641 523.303L55.2697 521.42L74.492 522.065L74.3864 523.947L65.4348 523.647L64.8275 534.472L73.7791 534.772L73.6735 536.655Z" fill="#F7F7F7"/>
<path d="M55.7755 557.018C53.9372 555.007 53.0982 552.574 53.2584 549.719C53.4186 546.864 54.5261 544.512 56.5808 542.663C58.6059 540.782 61.0475 539.889 63.9058 539.985C66.764 540.08 69.1122 541.134 70.9504 543.144C72.759 545.123 73.5832 547.539 73.423 550.395C73.2628 553.25 72.1702 555.618 70.1451 557.5C68.0904 559.348 65.6339 560.225 62.7757 560.129C59.9174 560.033 57.584 558.996 55.7755 557.018ZM68.9051 556.043C70.595 554.528 71.5042 552.625 71.6327 550.335C71.7612 548.044 71.0676 546.103 69.552 544.512C68.0382 542.89 66.1191 542.039 63.7949 541.961C61.4706 541.884 59.4635 542.602 57.7736 544.117C56.0855 545.601 55.1772 547.488 55.0487 549.779C54.9202 552.069 55.6129 554.026 57.1267 555.649C58.6423 557.24 60.5623 558.074 62.8865 558.152C65.2108 558.23 67.217 557.527 68.9051 556.043Z" fill="#F7F7F7"/>
<path d="M52.9124 563.461L72.1347 564.105L72.0291 565.987L54.5971 565.403L54.1007 574.252L65.2195 574.624C67.3239 574.695 68.8575 575.123 69.8204 575.91C70.935 576.796 71.4474 578.039 71.3576 579.64C71.3471 579.828 71.2981 580.141 71.2106 580.578L69.4203 580.518C69.5007 580.206 69.5453 579.972 69.5541 579.815C69.614 578.748 69.2366 577.902 68.422 577.278C67.7556 576.815 66.6529 576.558 65.1139 576.507L52.2048 576.074L52.9124 563.461Z" fill="#F7F7F7"/>
<path d="M28.6059 455.84L28.7115 453.957L44.1176 454.474L28.3936 440.272L48.6996 440.953L48.5939 442.835L33.2821 442.322L49.0061 456.524L28.6059 455.84ZM22.7795 450.316C23.4849 449.523 23.8701 448.545 23.9353 447.384C24.0004 446.223 23.7252 445.24 23.1096 444.433C22.4958 443.595 21.709 443.034 20.7494 442.751L21.6401 441.177C24.5398 442.218 25.9016 444.307 25.7256 447.444C25.5495 450.582 23.9589 452.572 20.9536 453.415L20.2425 451.787C21.2302 451.569 22.0759 451.079 22.7795 450.316Z" fill="#F7F7F7"/>
<path d="M27.4586 476.249L27.5642 474.367L42.9703 474.883L27.2463 460.681L47.5523 461.362L47.4466 463.244L32.1348 462.731L47.8588 476.933L27.4586 476.249Z" fill="#F7F7F7"/>
<path d="M26.5195 493.028L26.6251 491.146L35.7652 491.452L27.1691 481.45L27.3117 478.909L35.9025 489.005L46.5762 478.8L46.4231 481.53L37.0953 490.459L38.0266 491.528L45.8475 491.79L45.7418 493.673L26.5195 493.028Z" fill="#F7F7F7"/>
<path d="M25.3746 513.439L25.4802 511.556L40.8864 512.072L25.1624 497.871L45.4683 498.551L45.3627 500.434L30.0508 499.921L45.7748 514.122L25.3746 513.439Z" fill="#F7F7F7"/>
<path d="M25.0999 518.319L44.3222 518.963L44.2166 520.846L26.7846 520.262L26.2882 529.11L37.407 529.483C39.5114 529.553 41.045 529.982 42.0079 530.769C43.1225 531.655 43.6349 532.898 43.5451 534.498C43.5346 534.686 43.4856 534.999 43.3981 535.436L41.6078 535.376C41.6882 535.065 41.7328 534.83 41.7416 534.673C41.8015 533.607 41.4241 532.761 40.6095 532.136C39.9431 531.674 38.8404 531.417 37.3014 531.365L24.3923 530.933L25.0999 518.319Z" fill="#F7F7F7"/>
<path d="M33.9867 535.799L33.0652 552.225C35.4139 552.429 37.4008 551.789 39.0261 550.303C40.62 548.816 41.4768 547.005 41.5965 544.872C41.681 543.366 41.3632 542.019 40.6431 540.832C39.8916 539.643 38.8739 538.713 37.5899 538.042L38.6219 536.473C39.9634 537.241 41.1294 538.333 42.1199 539.75C43.0789 541.165 43.4986 542.939 43.3789 545.073C43.2152 547.991 42.1435 550.266 40.164 551.897C38.1529 553.527 35.7026 554.294 32.813 554.197C29.6407 554.091 27.2104 553.097 25.5222 551.218C23.8358 549.306 23.0638 547.08 23.2064 544.538C23.3543 541.903 24.4355 539.738 26.45 538.045C28.4645 536.353 30.9768 535.604 33.9867 535.799ZM31.2828 552.024L32.0855 537.716C30.1241 537.901 28.4782 538.632 27.1479 539.908C25.8194 541.152 25.1023 542.716 24.9967 544.598C24.8893 546.512 25.4426 548.15 26.6564 549.511C27.8388 550.871 29.381 551.708 31.2828 552.024Z" fill="#F7F7F7"/>
<path d="M41.1396 575.703L9.71484 574.649L10.1003 567.778C10.2517 565.079 11.093 562.986 12.624 561.497C14.1237 560.006 16.0671 559.301 18.4541 559.381C21.5322 559.485 23.7564 560.785 25.1268 563.283C25.5535 561.285 26.5219 559.73 28.0318 558.618C29.5417 557.505 31.3175 556.983 33.3591 557.052C36.0603 557.142 38.1607 558.124 39.6605 559.998C41.1306 561.839 41.7847 564.203 41.6228 567.09L41.1396 575.703ZM11.7156 572.642L24.0593 573.055L24.3392 568.066C24.4395 566.278 24.0799 564.835 23.2603 563.739C22.207 562.321 20.6439 561.577 18.5709 561.507C16.4665 561.437 14.7936 562.088 13.5523 563.461C12.6094 564.561 12.072 566.288 11.94 568.641L11.7156 572.642ZM25.9438 573.119L39.3712 573.569L39.6669 568.297C39.7215 567.325 39.7489 566.555 39.7492 565.989C39.7181 565.422 39.5858 564.695 39.3524 563.807C39.1208 562.888 38.7251 562.088 38.1652 561.409C37.0474 560.02 35.4834 559.292 33.4732 559.225C30.615 559.129 28.6051 560.177 27.4437 562.37C26.7712 563.7 26.3628 565.651 26.2185 568.224L25.9438 573.119Z" fill="#F7F7F7"/>
</svg>
