<svg width="57" height="489" viewBox="0 0 57 489" fill="none" xmlns="http://www.w3.org/2000/svg">
<rect width="57" height="489" fill="#CD4223"/>
<rect x="12" y="11" width="33" height="467" fill="#DAB2C8"/>
<path d="M17.376 464.888C17.376 463.16 17.888 461.891 18.912 461.08C19.936 460.248 21.3013 459.832 23.008 459.832H25.024V462.2H22.88C21.856 462.2 21.0667 462.413 20.512 462.84C19.936 463.245 19.648 463.907 19.648 464.824C19.648 465.72 19.936 466.381 20.512 466.808C21.0667 467.235 21.856 467.448 22.88 467.448H34.72C35.744 467.448 36.544 467.235 37.12 466.808C37.6747 466.381 37.952 465.72 37.952 464.824C37.952 463.907 37.6747 463.245 37.12 462.84C36.544 462.413 35.744 462.2 34.72 462.2H31.808V459.832H34.592C36.2987 459.832 37.664 460.248 38.688 461.08C39.712 461.891 40.224 463.16 40.224 464.888C40.224 466.595 39.712 467.864 38.688 468.696C37.664 469.507 36.2987 469.912 34.592 469.912H23.008C22.1547 469.912 21.3867 469.816 20.704 469.624C20 469.411 19.4027 469.101 18.912 468.696C18.4213 468.269 18.048 467.747 17.792 467.128C17.5147 466.488 17.376 465.741 17.376 464.888ZM23.008 457.116C21.28 457.116 19.9147 456.7 18.912 455.868C17.888 455.014 17.376 453.724 17.376 451.996C17.376 450.268 17.888 448.977 18.912 448.124C19.9147 447.27 21.28 446.844 23.008 446.844H34.592C36.2987 446.844 37.664 447.27 38.688 448.124C39.712 448.977 40.224 450.268 40.224 451.996C40.224 453.724 39.712 455.014 38.688 455.868C37.664 456.7 36.2987 457.116 34.592 457.116H23.008ZM34.72 454.652C35.744 454.652 36.544 454.438 37.12 454.012C37.6747 453.564 37.952 452.892 37.952 451.996C37.952 451.078 37.6747 450.406 37.12 449.98C36.544 449.553 35.744 449.34 34.72 449.34H22.88C21.856 449.34 21.0667 449.553 20.512 449.98C19.936 450.406 19.648 451.078 19.648 451.996C19.648 452.892 19.936 453.564 20.512 454.012C21.0667 454.438 21.856 454.652 22.88 454.652H34.72ZM19.872 439.078L34.432 439.59C35.328 439.633 36.1173 439.729 36.8 439.878C37.4827 440.028 38.0693 440.273 38.56 440.614C39.0293 440.956 39.392 441.414 39.648 441.99C39.904 442.545 40.032 443.249 40.032 444.102V444.518H37.76C37.76 444.006 37.696 443.59 37.568 443.27C37.44 442.95 37.248 442.705 36.992 442.534C36.7147 442.342 36.3733 442.214 35.968 442.15C35.5627 442.086 35.0933 442.044 34.56 442.022L17.6 441.414V432.294H40V434.79H19.872V439.078ZM30.432 423.196C30.432 424.241 30.6773 425.052 31.168 425.628C31.6373 426.182 32.5013 426.46 33.76 426.46H37.28C38.0267 426.46 38.592 426.492 38.976 426.556C39.3387 426.62 39.68 426.726 40 426.876V429.404C39.616 429.212 39.2 429.094 38.752 429.052C38.2827 428.988 37.8027 428.956 37.312 428.956H33.824C32.608 428.956 31.6053 428.753 30.816 428.348C30.0053 427.921 29.4507 427.196 29.152 426.172C28.5547 428.006 27.0187 428.924 24.544 428.924H22.72C21.056 428.924 19.7867 428.54 18.912 427.772C18.0373 426.982 17.6 425.702 17.6 423.932V418.94H40V421.436H30.432V423.196ZM19.872 423.868C19.872 424.806 20.128 425.478 20.64 425.884C21.152 426.268 21.92 426.46 22.944 426.46H25.088C26.304 426.46 27.1253 426.182 27.552 425.628C27.9573 425.073 28.16 424.305 28.16 423.324V421.436H19.872V423.868ZM29.92 413.258H40V415.754H17.6V413.258H27.68V407.754H17.6V405.258H40V407.754H29.92V413.258ZM23.008 402.243C21.28 402.243 19.9147 401.827 18.912 400.995C17.888 400.142 17.376 398.851 17.376 397.123C17.376 395.395 17.888 394.105 18.912 393.251C19.9147 392.398 21.28 391.971 23.008 391.971H34.592C36.2987 391.971 37.664 392.398 38.688 393.251C39.712 394.105 40.224 395.395 40.224 397.123C40.224 398.851 39.712 400.142 38.688 400.995C37.664 401.827 36.2987 402.243 34.592 402.243H23.008ZM34.72 399.779C35.744 399.779 36.544 399.566 37.12 399.139C37.6747 398.691 37.952 398.019 37.952 397.123C37.952 396.206 37.6747 395.534 37.12 395.107C36.544 394.681 35.744 394.467 34.72 394.467H22.88C21.856 394.467 21.0667 394.681 20.512 395.107C19.936 395.534 19.648 396.206 19.648 397.123C19.648 398.019 19.936 398.691 20.512 399.139C21.0667 399.566 21.856 399.779 22.88 399.779H34.72ZM13.024 380.11C14.0053 380.11 14.7733 380.419 15.328 381.038C15.8827 381.635 16.16 382.478 16.16 383.566C16.16 384.654 15.8827 385.496 15.328 386.094C14.7733 386.67 14.0053 386.979 13.024 387.022V385.454C13.6427 385.411 14.0693 385.219 14.304 384.878C14.5387 384.536 14.656 384.099 14.656 383.566C14.656 383.032 14.5387 382.595 14.304 382.254C14.0693 381.891 13.6427 381.688 13.024 381.646V380.11ZM29.216 382.894L40 386.382V388.974H17.6V386.766H34.304L27.84 384.686L17.6 381.198V378.414H40V380.654H22.176L29.216 382.894ZM19.872 367.104H40V369.6H17.6V359.104H40V361.6H19.872V367.104ZM23.008 356.089C21.28 356.089 19.9147 355.673 18.912 354.841C17.888 353.988 17.376 352.697 17.376 350.969C17.376 349.241 17.888 347.951 18.912 347.097C19.9147 346.244 21.28 345.817 23.008 345.817H34.592C36.2987 345.817 37.664 346.244 38.688 347.097C39.712 347.951 40.224 349.241 40.224 350.969C40.224 352.697 39.712 353.988 38.688 354.841C37.664 355.673 36.2987 356.089 34.592 356.089H23.008ZM34.72 353.625C35.744 353.625 36.544 353.412 37.12 352.985C37.6747 352.537 37.952 351.865 37.952 350.969C37.952 350.052 37.6747 349.38 37.12 348.953C36.544 348.527 35.744 348.313 34.72 348.313H22.88C21.856 348.313 21.0667 348.527 20.512 348.953C19.936 349.38 19.648 350.052 19.648 350.969C19.648 351.865 19.936 352.537 20.512 352.985C21.0667 353.412 21.856 353.625 22.88 353.625H34.72ZM30.336 337.252L40 340.996V343.364L28.448 338.852L17.6 343.076V340.484L26.56 337.028L17.6 333.54V331.204L28.448 335.396L40 330.916V333.54L30.336 337.252ZM23.008 328.466C21.28 328.466 19.9147 328.05 18.912 327.218C17.888 326.364 17.376 325.074 17.376 323.346C17.376 321.618 17.888 320.327 18.912 319.474C19.9147 318.62 21.28 318.194 23.008 318.194H34.592C36.2987 318.194 37.664 318.62 38.688 319.474C39.712 320.327 40.224 321.618 40.224 323.346C40.224 325.074 39.712 326.364 38.688 327.218C37.664 328.05 36.2987 328.466 34.592 328.466H23.008ZM34.72 326.002C35.744 326.002 36.544 325.788 37.12 325.362C37.6747 324.914 37.952 324.242 37.952 323.346C37.952 322.428 37.6747 321.756 37.12 321.33C36.544 320.903 35.744 320.69 34.72 320.69H22.88C21.856 320.69 21.0667 320.903 20.512 321.33C19.936 321.756 19.648 322.428 19.648 323.346C19.648 324.242 19.936 324.914 20.512 325.362C21.0667 325.788 21.856 326.002 22.88 326.002H34.72ZM43.072 304.156H40V313.308H43.072V315.708H37.792V314.268C37.3653 313.884 36.8853 313.639 36.352 313.532C35.8187 313.404 35.2107 313.319 34.528 313.276L17.6 312.412V303.42H37.792V301.724H43.072V304.156ZM34.496 310.844C35.3067 310.887 35.968 310.983 36.48 311.132C36.992 311.26 37.4293 311.506 37.792 311.868V305.948H19.872V310.108L34.496 310.844Z" fill="#CD4223"/>
<path d="M39.968 189.464V191.864L22.144 195.576H40V197.752H17.6V194.264L35.488 190.584L17.6 187.032V183.544H40V185.912H21.984L39.968 189.464ZM35.488 177.802L40 178.666V180.97L17.6 176.682V173.066L40 168.778V171.274L35.488 172.138V177.802ZM33.344 177.482V172.49L20.416 175.018L33.344 177.482ZM30.336 160.622L40 164.366V166.734L28.448 162.222L17.6 166.446V163.854L26.56 160.398L17.6 156.91V154.574L28.448 158.766L40 154.286V156.91L30.336 160.622ZM35.488 149.116L40 149.98V152.284L17.6 147.996V144.38L40 140.092V142.588L35.488 143.452V149.116ZM33.344 148.796V143.804L20.416 146.332L33.344 148.796ZM40 134.08H19.872V138.208H17.6V127.456H19.872V131.584H40V134.08ZM39.968 116.702V119.102L22.144 122.814H40V124.99H17.6V121.502L35.488 117.822L17.6 114.27V110.782H40V113.15H21.984L39.968 116.702ZM26.432 102.864C26.432 101.072 26.8907 99.7595 27.808 98.9275C28.704 98.0742 30.048 97.6475 31.84 97.6475H34.528C36.2347 97.6475 37.5787 98.0528 38.56 98.8635C39.52 99.6528 40 100.922 40 102.672V107.568H17.6V105.072H26.432V102.864ZM17.6 93.1035H40V95.5675H17.6V93.1035ZM37.728 102.672C37.728 101.754 37.472 101.104 36.96 100.72C36.448 100.314 35.68 100.112 34.656 100.112H31.68C30.592 100.112 29.824 100.336 29.376 100.784C28.9067 101.232 28.672 101.925 28.672 102.864V105.072H37.728V102.672ZM19.872 81.7915H40V84.2555H17.6V75.3275H19.872V81.7915ZM35.488 69.7132L40 70.5772V72.8812L17.6 68.5932V64.9772L40 60.6892V63.1852L35.488 64.0492V69.7132ZM33.344 69.3932V64.4012L20.416 66.9292L33.344 69.3932ZM29.92 55.6053H40V58.1013H17.6V55.6053H27.68V50.1013H17.6V47.6053H40V50.1013H29.92V55.6053ZM43.072 33.3588H40V42.5108H43.072V44.9108H37.792V43.4708C37.3653 43.0868 36.8853 42.8414 36.352 42.7348C35.8187 42.6068 35.2107 42.5214 34.528 42.4788L17.6 41.6148V32.6228H37.792V30.9268H43.072V33.3588ZM34.496 40.0468C35.3067 40.0894 35.968 40.1854 36.48 40.3348C36.992 40.4628 37.4293 40.7081 37.792 41.0708V35.1508H19.872V39.3108L34.496 40.0468ZM29.664 22.2145L40 25.5105V28.1025H17.6V25.8945H34.304L28.128 23.9105L17.6 20.3265V17.5425H40V19.7825H22.176L29.664 22.2145Z" fill="#CD4223"/>
</svg>
