<svg width="1440" height="1024" viewBox="0 0 1440 1024" fill="none" xmlns="http://www.w3.org/2000/svg">
<path d="M889 895.843C889 895.843 869.204 933.308 846.877 934.704C807.232 937.184 786.583 899.15 746.938 904.939C709.771 910.365 715.552 924.782 698.208 934.704C691.435 938.579 680.863 924.782 680.863 924.782C680.863 924.782 670.126 957.019 643.696 947.107C610.626 934.704 632.959 902.458 632.959 902.458C632.959 902.458 618.918 899.977 618.918 887.575C618.918 872.692 625.885 863.704 632.959 849.541C638.74 837.965 643.696 717.248 638.74 671.773C636.349 649.833 618.918 633.738 618.918 618.856C618.918 611.201 628.003 601.493 628.003 601.493C628.003 601.493 596.295 584.956 609.007 559.324C614.178 548.897 622.183 543.589 633.785 542.788C646.756 541.892 662.693 559.324 662.693 559.324C662.693 559.324 672.183 545.298 681.689 542.788C697.865 538.516 700.661 564.282 717.205 566.766C750.243 571.727 775.847 537.007 836.14 537C858.498 536.998 888.471 563.459 888.471 563.459" stroke="black" stroke-width="2"/>
<path d="M887.528 895.843C887.528 895.843 907.288 933.308 929.573 934.704C969.144 937.184 989.754 899.15 1029.32 904.939C1066.42 910.365 1060.65 924.782 1077.96 934.704C1084.72 938.579 1095.28 924.782 1095.28 924.782C1095.28 924.782 1105.99 957.019 1132.37 947.107C1165.38 934.704 1143.09 902.458 1143.09 902.458C1143.09 902.458 1157.11 899.977 1157.11 887.575C1157.11 872.692 1150.15 863.704 1143.09 849.541C1137.32 837.965 1132.37 717.248 1137.32 671.773C1139.71 649.833 1157.11 633.738 1157.11 618.856C1157.11 611.201 1148.04 601.493 1148.04 601.493C1148.04 601.493 1179.69 584.956 1167 559.324C1161.84 548.897 1153.85 543.589 1142.27 542.788C1129.32 541.892 1113.41 559.324 1113.41 559.324C1113.41 559.324 1103.94 545.298 1094.45 542.788C1078.31 538.516 1075.52 564.282 1059 566.766C1026.03 571.727 1000.47 537.007 940.29 537C917.973 536.998 887 563.459 887 563.459" stroke="black" stroke-width="2"/>
<rect x="24" y="963" width="1392" height="39" stroke="black" stroke-width="2"/>
</svg>
