<svg width="1440" height="1024" viewBox="0 0 1440 1024" fill="none" xmlns="http://www.w3.org/2000/svg">
<path d="M353 895.843C353 895.843 333.204 933.308 310.877 934.704C271.232 937.184 250.583 899.15 210.938 904.939C173.771 910.365 179.552 924.782 162.208 934.704C155.435 938.579 144.863 924.782 144.863 924.782C144.863 924.782 134.126 957.019 107.696 947.107C74.6261 934.704 96.9589 902.458 96.9589 902.458C96.9589 902.458 82.9179 899.977 82.9179 887.575C82.9179 872.692 89.8851 863.704 96.9589 849.541C102.74 837.965 107.696 717.248 102.74 671.773C100.349 649.833 82.9179 633.738 82.9179 618.856C82.9179 611.201 92.0032 601.493 92.0032 601.493C92.0032 601.493 60.2949 584.956 73.0066 559.324C78.1782 548.897 86.1827 543.589 97.7848 542.788C110.756 541.892 126.693 559.324 126.693 559.324C126.693 559.324 136.183 545.298 145.689 542.788C161.865 538.516 164.661 564.282 181.205 566.766C214.243 571.727 239.847 537.007 300.14 537C322.498 536.998 352.471 563.459 352.471 563.459" stroke="black" stroke-width="2"/>
<path d="M351.528 895.843C351.528 895.843 371.288 933.308 393.573 934.704C433.144 937.184 453.754 899.15 493.325 904.939C530.423 910.365 524.652 924.782 541.964 934.704C548.725 938.579 559.276 924.782 559.276 924.782C559.276 924.782 569.994 957.019 596.374 947.107C629.382 934.704 607.091 902.458 607.091 902.458C607.091 902.458 621.106 899.977 621.106 887.575C621.106 872.692 614.152 863.704 607.091 849.541C601.321 837.965 596.374 717.248 601.321 671.773C603.707 649.833 621.106 633.738 621.106 618.856C621.106 611.201 612.038 601.493 612.038 601.493C612.038 601.493 643.687 584.956 630.999 559.324C625.837 548.897 617.848 543.589 606.267 542.788C593.32 541.892 577.413 559.324 577.413 559.324C577.413 559.324 567.94 545.298 558.452 542.788C542.307 538.516 539.516 564.282 523.003 566.766C490.027 571.727 464.471 537.007 404.29 537C381.973 536.998 351 563.459 351 563.459" stroke="black" stroke-width="2"/>
<rect x="24" y="963" width="1392" height="39" stroke="black" stroke-width="2"/>
</svg>
