<svg width="421" height="525" viewBox="0 0 421 525" fill="none" xmlns="http://www.w3.org/2000/svg">
<rect width="421" height="525" fill="#054CA3"/>
<path d="M121.109 418.331C138.218 446.607 193.643 450 209.683 450C259.354 450 308.953 431.827 316.434 387.307C320.208 364.854 303.959 346.751 301.464 330.755C299.553 318.501 308.593 299.732 308.593 299.732C308.593 299.732 297.543 301.671 289.524 328.008C284.621 344.107 308.593 364.202 286.138 370.665C278.133 372.969 284.497 358.849 282.573 351.437C280.435 343.2 275.874 339.208 275.445 330.755C274.838 318.795 284.966 313.596 286.138 301.671C287.182 291.037 279.818 284.905 282.573 274.525C283.511 270.993 286.138 265.8 286.138 265.8C286.138 265.8 272.13 265.522 270.276 271.294C266.177 284.058 266.177 299.732 261.365 296.985C250.043 290.522 268.144 266.899 266.177 257.075C264.21 247.25 261.267 242.025 256.197 233.161C248.712 220.073 252.276 209.571 252.276 209.571C252.276 209.571 244.047 218.258 242.118 225.082C239.061 235.896 250.938 244.31 248.712 253.035C247.344 258.398 247.389 268.531 242.118 265.8C235.88 262.568 240.749 246.627 238.019 234.615C234.199 217.808 225.846 209.849 222.692 192.928C220.231 179.723 224.475 171.438 220.91 158.673C218.327 149.423 200.237 143 200.237 143C200.237 143 207.383 154.67 209.504 162.874C213.443 178.109 206.439 185.954 205.584 202.784C204.728 219.614 219.306 250.995 205.584 245.926C195.96 242.371 207.635 217.488 200.237 202.784C197.476 197.297 188.831 191.312 188.831 191.312C188.831 191.312 191.148 198.23 191.148 202.784C191.148 217.488 183.2 227.991 186.336 248.188C188.863 264.46 200.237 274.525 202.554 287.613C204.017 295.877 206.831 307.487 200.237 308.942C193.643 310.396 200.137 291.268 193.643 282.443C188.88 275.969 177.069 269.355 177.069 269.355C177.069 269.355 182.415 302.478 172.079 299.732C161.742 296.985 177.069 265.8 168.158 248.188C164.576 241.108 148.376 239.463 148.376 239.463C148.376 239.463 153.858 247.336 155.148 253.035C157.558 263.682 150.323 269.456 148.376 280.181C145.361 296.785 150.693 321.545 144.99 323.161C139.287 324.776 143.208 301.889 125.208 299.732C116.328 298.667 104 307.649 104 307.649C104 307.649 118.257 310.396 121.109 321.545C125.565 338.968 104 390.054 121.109 418.331Z" stroke="white" stroke-width="2"/>
<path d="M154.105 404.938C166.432 425.319 185.257 436.323 210.843 434.873C295.449 430.078 279.872 383.167 279.872 383.167C279.014 391.719 276.299 398.847 272.297 398.199C268.296 397.551 271.328 379.797 268.438 374.354C261.006 360.359 259.435 343.512 259.435 343.512C259.435 343.512 254.432 345.456 255.29 359.711C255.514 363.428 249.716 369.56 248.001 366.579C244.989 361.343 251.717 355.823 253.146 352.195C255.236 346.89 249.435 343.452 250.717 337.94C251.271 335.558 253.146 332.108 253.146 332.108C253.146 332.108 247.942 332.888 246.143 335.089C243.285 338.588 246.143 343.512 244.714 346.752C243.741 348.958 240.884 350.803 238.712 349.473C232.995 345.974 243.116 334.964 241.141 325.888C239.962 320.466 237.064 318.027 235.567 312.67C234.457 308.694 233.71 302.303 233.71 302.303C233.71 302.303 231.497 306.277 230.994 309.041C229.875 315.194 235.567 319.538 235.567 324.463C235.567 328.128 233.607 332.108 229.565 332.108C222.848 332.108 227.745 310.386 224.632 300.592C223.563 297.226 215.357 286 215.357 286C215.357 286 224.897 304.895 217.417 330.164C214.755 339.159 211.334 354.176 206.259 349.473C201.8 345.341 203.105 340.178 200.41 335.089C198.572 331.619 193.55 327.443 193.55 327.443C193.55 327.443 194.55 339.625 185.261 341.18C177.049 342.554 172.112 325.888 172.112 325.888C172.112 325.888 170.266 331.436 170.255 335.089C170.235 341.411 174.399 345.326 175.685 350.51C177.809 359.066 177.103 369.776 167.682 371.763C157 374.015 154.105 349.473 154.105 349.473C154.105 349.473 142.619 385.946 154.105 404.938Z" stroke="white" stroke-width="2"/>
</svg>
