<svg width="421" height="525" viewBox="0 0 421 525" fill="none" xmlns="http://www.w3.org/2000/svg">
<rect width="421" height="525" fill="#217D7A"/>
<path d="M212.624 317.075C210.39 311.884 217.14 293.4 222.727 292.191C228.313 290.981 240.855 308.756 240.054 313.815C239.252 318.875 214.858 322.265 212.624 317.075Z" stroke="white" stroke-width="3"/>
<path d="M187.4 246.564C205.203 245.179 209.211 286.708 197.049 291.13C187.817 294.487 166.427 281.84 166.286 266.582C166.18 255.243 176.064 247.447 187.4 246.564Z" stroke="white" stroke-width="3"/>
<path d="M235.624 240.064C220.81 248.047 233.437 283.252 243.234 283.968C253.031 284.684 269.644 263.591 263.333 249.039C258.675 238.3 245.955 234.497 235.624 240.064Z" stroke="white" stroke-width="3"/>
<path d="M140.666 383.581L186.392 334.366C186.392 334.366 176.579 370.499 191.766 373.781C206.288 376.919 215.303 343.896 215.303 343.896C215.303 343.896 226.121 373.66 236.988 367.464C245.882 362.393 240.362 341.47 240.362 341.47C240.362 341.47 268.271 361.033 275.964 349.078C282.107 339.534 268.166 321.083 268.166 321.083L307.869 341.066C307.869 341.066 303.521 370.27 329.554 364.634C350.212 360.161 335.023 335.186 335.023 335.186C335.023 335.186 363.191 317.225 341.292 306.514C324.511 298.305 314.568 322.405 314.568 322.405L280.745 304.78C280.745 304.78 299.044 280.608 296.152 258.498C294.344 244.675 286.798 224.049 286.798 224.049L311.913 196.349C311.913 196.349 356.655 202.085 351.653 178.985C347.686 160.662 315.855 173.706 315.855 173.706C315.855 173.706 321.564 162.198 318.212 156.143C312.359 145.568 298.451 143.973 288.91 150.645C277.557 158.585 290.892 186.058 290.892 186.058L272.735 205.778C272.735 205.778 244.447 191.104 199.845 198.822C145.347 208.253 139.502 233.045 139.502 233.045L113.591 219.865C113.591 219.865 130.62 192.021 104.654 188.8C78.7846 185.591 87.2142 221.313 87.2142 221.313C87.2142 221.313 62.5571 216.861 61.868 236.274C61.4857 247.045 67.9756 255.004 83.0667 253.947C92.7866 253.267 104.201 240.687 104.201 240.687L133.803 255.594C133.803 255.594 132.898 292.263 155.147 322.815C158.577 327.524 163.438 328.283 163.438 328.283L132.959 363.303C132.959 363.303 102.039 341.576 93.9877 368.582C87.6476 389.849 116.317 390.748 116.317 390.748C116.317 390.748 107.622 419.156 130.831 418.395C151.607 417.713 140.666 383.581 140.666 383.581Z" stroke="white" stroke-width="3"/>
</svg>
