<svg width="421" height="525" viewBox="0 0 421 525" fill="none" xmlns="http://www.w3.org/2000/svg">
<rect width="421" height="525" fill="#DB4C2F"/>
<rect x="13" width="12" height="525" fill="#FFD777"/>
<rect x="393" width="12" height="525" fill="#FFD777"/>
<path d="M230.999 233.174C230.999 233.174 236.015 225.885 240.689 226.101C245.089 226.304 249.497 233.174 249.497 233.174V261.47M230.999 233.174C230.999 233.174 225.386 225.897 220.429 226.101C215.755 226.292 210.74 233.174 210.74 233.174M230.999 233.174V261.47M210.74 233.174C210.74 233.174 205.94 225.216 201.051 225.216C196.162 225.216 191.362 233.174 191.362 233.174M210.74 233.174C210.74 233.174 210.74 247.312 210.74 255.275M191.362 233.174C191.362 233.174 185.948 225.413 180.792 225.216C175.357 225.009 169.341 233.174 169.341 233.174C169.341 233.174 169.341 246.108 169.341 254.396M191.362 233.174C191.362 233.174 191.362 246.108 191.362 254.396M169.341 254.396C176.327 248.201 182.554 252.623 191.362 254.396M169.341 254.396C163.995 261.47 162.295 282.691 162.295 282.691C162.295 282.691 161.775 288.12 162.295 291.533C164.625 306.833 193.124 316.292 193.124 316.292M210.74 255.275C203.173 255.275 204.513 256.159 191.362 254.396M210.74 255.275C210.74 259.691 210.74 264.117 210.74 264.117M193.124 316.292C193.124 316.292 203.725 314.689 208.098 310.102C211.289 306.755 213.383 299.492 213.383 299.492M193.124 316.292C193.124 316.292 193.124 333.537 193.124 344.587M230.999 261.47C230.999 261.47 236.382 266.953 240.689 266.775C244.697 266.61 249.497 261.47 249.497 261.47M230.999 261.47C230.999 261.47 226.596 266.775 220.429 266.775C216.026 266.775 210.74 264.117 210.74 264.117M249.497 261.47V297.723C249.497 297.723 245.755 304.125 242.45 307.45C238.609 311.315 230.999 315.408 230.999 315.408C230.999 315.408 230.999 333.192 230.999 344.587M210.74 264.117L187.839 276.502M187.839 276.502C187.839 276.502 188.72 280.918 187.839 282.691M187.839 276.502C187.839 276.502 186.078 272.96 182.554 272.08M193.124 344.587C193.124 359.781 193.124 383.493 193.124 383.493H157.89V419.747H194.005V456H230.999V419.747H267.113V383.493H230.999C230.999 383.493 230.999 359.781 230.999 344.587M193.124 344.587C152.3 336.376 125.544 302.353 127.061 260.585C128.675 216.173 163.829 181.483 208.098 181.005C252.861 180.522 288.826 215.695 290.896 260.585C292.754 300.885 269.599 333.359 230.999 344.587" stroke="#FFD777" stroke-width="3"/>
</svg>
