<svg width="421" height="525" viewBox="0 0 421 525" fill="none" xmlns="http://www.w3.org/2000/svg">
<rect width="421" height="525" fill="#FCAB46"/>
<path d="M171.873 317.394C170.206 309.701 171.484 298.519 167.872 297.637C164.26 296.756 160.456 307.709 156.157 312.792C151.859 317.875 142.098 328.144 135.17 329.9C128.241 331.655 118.188 324.223 114.475 322.166C110.763 320.11 104.646 318.811 99.0523 321.085C94.7992 322.814 94.7733 328.033 90.2666 328.906C85.828 329.765 82.4877 328.334 79.3339 325.088C74.8508 320.473 73.9317 313.666 77.9679 308.657C80.7029 305.262 83.9562 305.157 88.2176 304.259C90.9128 303.692 92.5508 304.243 95.246 303.675C99.5074 302.778 102.886 302.77 105.496 299.278C108.032 295.884 103.836 293.505 106.96 288.52C110.084 283.535 126.699 270.763 138.686 258.703C146.486 250.856 147.845 242.019 158.21 238.172C161.68 236.884 164.349 238.189 167.484 236.219C170.233 234.491 172.968 233.114 172.853 229.864C172.758 227.184 169.666 226.843 168.851 224.288C167.099 218.799 171.829 215.724 174.806 210.794C179.344 203.277 181.771 197.376 189.937 194.173C197.253 191.304 205.067 191.732 210.046 194.865C215.024 197.998 224.687 214.919 225.077 219.614C225.468 224.308 216.194 226.261 219.708 225.969C223.222 225.677 231.192 231.376 239.036 231.452C241.79 231.479 240.012 229.008 246.064 230.868C252.116 232.728 289.404 255.627 295.651 259.834C301.899 264.042 296.139 265.703 299.751 266.584C303.363 267.465 312.344 261.992 312.344 261.992C312.344 261.992 312.725 256.39 315.272 254.658C318.404 252.529 321.362 254.724 324.839 256.226C329.012 258.029 332.692 259.325 333.721 263.76C335.198 270.127 326.446 270.895 321.714 275.394C314.122 282.611 308.438 285.951 301.995 293.577C295.552 301.204 291.842 313.329 278.664 310.88C265.487 308.43 247.233 287.494 243.914 290.134C240.595 292.773 258.602 309.615 271.05 318.603C279.935 325.018 295.551 329.565 295.746 331.913C295.941 334.26 293.501 333.281 292.72 338.073C291.939 342.865 300.471 348.442 305.897 354.704C312.102 361.864 315.756 373.974 322.686 372.216C329.617 370.458 336.451 353.345 341.234 354.129C346.017 354.913 349.726 356.969 349.238 365.281C348.75 373.594 331.861 397.451 323.564 396.959C315.267 396.467 313.693 385.017 305.604 379.545C297.769 374.245 290.354 376.13 283.543 369.561C278.365 364.568 275.149 353.715 273.977 353.812C272.806 353.909 270.451 356.081 268.413 357.82C261.701 363.547 263.374 372.038 255.82 376.593C250.259 379.946 245.62 377.832 239.616 380.304C233.92 382.648 225.949 386.167 226.145 388.514C226.34 390.861 226.696 392.083 226.632 394.382C226.451 400.964 221.729 403.695 220.872 410.224C220.035 416.607 219.701 424.502 222.238 426.654C224.776 428.807 229.391 420.313 234.733 420.889C239.298 421.38 243.226 423.728 244.69 427.151C246.154 430.575 235.273 438.996 227.216 443.967C220.291 448.239 214.821 455.591 207.79 451.49C205.25 450.009 204.095 448.558 202.617 446.012C198.587 439.067 206.327 433.886 205.644 425.67C204.961 417.455 199.978 411.917 199.007 402.587C198.434 397.079 199.008 388.406 199.008 388.406C199.008 388.406 188.66 391.63 186.317 391.825C183.975 392.02 180.669 392.295 180.07 387.617C179.472 382.94 177.929 361.867 176.558 345.367C176.177 340.783 176.231 338.183 175.582 333.63C174.664 327.191 173.251 323.751 171.873 317.394Z" stroke="#FCAB46" stroke-width="3"/>
<path d="M171.873 317.394C170.206 309.701 171.484 298.519 167.872 297.637C164.26 296.756 160.456 307.709 156.157 312.792C151.859 317.875 142.098 328.144 135.17 329.9C128.241 331.655 118.188 324.223 114.475 322.166C110.763 320.11 104.646 318.811 99.0523 321.085C94.7992 322.814 94.7733 328.033 90.2666 328.906C85.828 329.765 82.4877 328.334 79.3339 325.088C74.8508 320.473 73.9317 313.666 77.9679 308.657C80.7029 305.262 83.9562 305.157 88.2176 304.259C90.9128 303.692 92.5508 304.243 95.246 303.675C99.5074 302.778 102.886 302.77 105.496 299.278C108.032 295.884 103.836 293.505 106.96 288.52C110.084 283.535 126.699 270.763 138.686 258.703C146.486 250.856 147.845 242.019 158.21 238.172C161.68 236.884 164.349 238.189 167.484 236.219C170.233 234.491 172.968 233.114 172.853 229.864C172.758 227.184 169.666 226.843 168.851 224.288C167.099 218.799 171.829 215.724 174.806 210.794C179.344 203.277 181.771 197.376 189.937 194.173C197.253 191.304 205.067 191.732 210.046 194.865C215.024 197.998 224.687 214.919 225.077 219.614C225.468 224.308 216.194 226.261 219.708 225.969C223.222 225.677 231.192 231.376 239.036 231.452C241.79 231.479 240.012 229.008 246.064 230.868C252.116 232.728 289.404 255.627 295.651 259.834C301.899 264.042 296.139 265.703 299.751 266.584C303.363 267.465 312.344 261.992 312.344 261.992C312.344 261.992 312.725 256.39 315.272 254.658C318.404 252.529 321.362 254.724 324.839 256.226C329.012 258.029 332.692 259.325 333.721 263.76C335.198 270.127 326.446 270.895 321.714 275.394C314.122 282.611 308.438 285.951 301.995 293.577C295.552 301.204 291.842 313.329 278.664 310.88C265.487 308.43 247.233 287.494 243.914 290.134C240.595 292.773 258.602 309.615 271.05 318.603C279.935 325.018 295.551 329.565 295.746 331.913C295.941 334.26 293.501 333.281 292.72 338.073C291.939 342.865 300.471 348.442 305.897 354.704C312.102 361.864 315.756 373.974 322.686 372.216C329.617 370.458 336.451 353.345 341.234 354.129C346.017 354.913 349.726 356.969 349.238 365.281C348.75 373.594 331.861 397.451 323.564 396.959C315.267 396.467 313.693 385.017 305.604 379.545C297.769 374.245 290.354 376.13 283.543 369.561C278.365 364.568 275.149 353.715 273.977 353.812C272.806 353.909 270.451 356.081 268.413 357.82C261.701 363.547 263.374 372.038 255.82 376.593C250.259 379.946 245.62 377.832 239.616 380.304C233.92 382.648 225.949 386.167 226.145 388.514C226.34 390.861 226.696 392.083 226.632 394.382C226.451 400.964 221.729 403.695 220.872 410.224C220.035 416.607 219.701 424.502 222.238 426.654C224.776 428.807 229.391 420.313 234.733 420.889C239.298 421.38 243.226 423.728 244.69 427.151C246.154 430.575 235.273 438.996 227.216 443.967C220.291 448.239 214.821 455.591 207.79 451.49C205.25 450.009 204.095 448.558 202.617 446.012C198.587 439.067 206.327 433.886 205.644 425.67C204.961 417.455 199.978 411.917 199.007 402.587C198.434 397.079 199.008 388.406 199.008 388.406C199.008 388.406 188.66 391.63 186.317 391.825C183.975 392.02 180.669 392.295 180.07 387.617C179.472 382.94 177.929 361.867 176.558 345.367C176.177 340.783 176.231 338.183 175.582 333.63C174.664 327.191 173.251 323.751 171.873 317.394Z" stroke="#FCAB46" stroke-width="3"/>
<path d="M171.873 317.394C170.206 309.701 171.484 298.519 167.872 297.637C164.26 296.756 160.456 307.709 156.157 312.792C151.859 317.875 142.098 328.144 135.17 329.9C128.241 331.655 118.188 324.223 114.475 322.166C110.763 320.11 104.646 318.811 99.0523 321.085C94.7992 322.814 94.7733 328.033 90.2666 328.906C85.828 329.765 82.4877 328.334 79.3339 325.088C74.8508 320.473 73.9317 313.666 77.9679 308.657C80.7029 305.262 83.9562 305.157 88.2176 304.259C90.9128 303.692 92.5508 304.243 95.246 303.675C99.5074 302.778 102.886 302.77 105.496 299.278C108.032 295.884 103.836 293.505 106.96 288.52C110.084 283.535 126.699 270.763 138.686 258.703C146.486 250.856 147.845 242.019 158.21 238.172C161.68 236.884 164.349 238.189 167.484 236.219C170.233 234.491 172.968 233.114 172.853 229.864C172.758 227.184 169.666 226.843 168.851 224.288C167.099 218.799 171.829 215.724 174.806 210.794C179.344 203.277 181.771 197.376 189.937 194.173C197.253 191.304 205.067 191.732 210.046 194.865C215.024 197.998 224.687 214.919 225.077 219.614C225.468 224.308 216.194 226.261 219.708 225.969C223.222 225.677 231.192 231.376 239.036 231.452C241.79 231.479 240.012 229.008 246.064 230.868C252.116 232.728 289.404 255.627 295.651 259.834C301.899 264.042 296.139 265.703 299.751 266.584C303.363 267.465 312.344 261.992 312.344 261.992C312.344 261.992 312.725 256.39 315.272 254.658C318.404 252.529 321.362 254.724 324.839 256.226C329.012 258.029 332.692 259.325 333.721 263.76C335.198 270.127 326.446 270.895 321.714 275.394C314.122 282.611 308.438 285.951 301.995 293.577C295.552 301.204 291.842 313.329 278.664 310.88C265.487 308.43 247.233 287.494 243.914 290.134C240.595 292.773 258.602 309.615 271.05 318.603C279.935 325.018 295.551 329.565 295.746 331.913C295.941 334.26 293.501 333.281 292.72 338.073C291.939 342.865 300.471 348.442 305.897 354.704C312.102 361.864 315.756 373.974 322.686 372.216C329.617 370.458 336.451 353.345 341.234 354.129C346.017 354.913 349.726 356.969 349.238 365.281C348.75 373.594 331.861 397.451 323.564 396.959C315.267 396.467 313.693 385.017 305.604 379.545C297.769 374.245 290.354 376.13 283.543 369.561C278.365 364.568 275.149 353.715 273.977 353.812C272.806 353.909 270.451 356.081 268.413 357.82C261.701 363.547 263.374 372.038 255.82 376.593C250.259 379.946 245.62 377.832 239.616 380.304C233.92 382.648 225.949 386.167 226.145 388.514C226.34 390.861 226.696 392.083 226.632 394.382C226.451 400.964 221.729 403.695 220.872 410.224C220.035 416.607 219.701 424.502 222.238 426.654C224.776 428.807 229.391 420.313 234.733 420.889C239.298 421.38 243.226 423.728 244.69 427.151C246.154 430.575 235.273 438.996 227.216 443.967C220.291 448.239 214.821 455.591 207.79 451.49C205.25 450.009 204.095 448.558 202.617 446.012C198.587 439.067 206.327 433.886 205.644 425.67C204.961 417.455 199.978 411.917 199.007 402.587C198.434 397.079 199.008 388.406 199.008 388.406C199.008 388.406 188.66 391.63 186.317 391.825C183.975 392.02 180.669 392.295 180.07 387.617C179.472 382.94 177.929 361.867 176.558 345.367C176.177 340.783 176.231 338.183 175.582 333.63C174.664 327.191 173.251 323.751 171.873 317.394Z" stroke="#FCAB46" stroke-width="3"/>
<path d="M171.873 317.394C170.206 309.701 171.484 298.519 167.872 297.637C164.26 296.756 160.456 307.709 156.157 312.792C151.859 317.875 142.098 328.144 135.17 329.9C128.241 331.655 118.188 324.223 114.475 322.166C110.763 320.11 104.646 318.811 99.0523 321.085C94.7992 322.814 94.7733 328.033 90.2666 328.906C85.828 329.765 82.4877 328.334 79.3339 325.088C74.8508 320.473 73.9317 313.666 77.9679 308.657C80.7029 305.262 83.9562 305.157 88.2176 304.259C90.9128 303.692 92.5508 304.243 95.246 303.675C99.5074 302.778 102.886 302.77 105.496 299.278C108.032 295.884 103.836 293.505 106.96 288.52C110.084 283.535 126.699 270.763 138.686 258.703C146.486 250.856 147.845 242.019 158.21 238.172C161.68 236.884 164.349 238.189 167.484 236.219C170.233 234.491 172.968 233.114 172.853 229.864C172.758 227.184 169.666 226.843 168.851 224.288C167.099 218.799 171.829 215.724 174.806 210.794C179.344 203.277 181.771 197.376 189.937 194.173C197.253 191.304 205.067 191.732 210.046 194.865C215.024 197.998 224.687 214.919 225.077 219.614C225.468 224.308 216.194 226.261 219.708 225.969C223.222 225.677 231.192 231.376 239.036 231.452C241.79 231.479 240.012 229.008 246.064 230.868C252.116 232.728 289.404 255.627 295.651 259.834C301.899 264.042 296.139 265.703 299.751 266.584C303.363 267.465 312.344 261.992 312.344 261.992C312.344 261.992 312.725 256.39 315.272 254.658C318.404 252.529 321.362 254.724 324.839 256.226C329.012 258.029 332.692 259.325 333.721 263.76C335.198 270.127 326.446 270.895 321.714 275.394C314.122 282.611 308.438 285.951 301.995 293.577C295.552 301.204 291.842 313.329 278.664 310.88C265.487 308.43 247.233 287.494 243.914 290.134C240.595 292.773 258.602 309.615 271.05 318.603C279.935 325.018 295.551 329.565 295.746 331.913C295.941 334.26 293.501 333.281 292.72 338.073C291.939 342.865 300.471 348.442 305.897 354.704C312.102 361.864 315.756 373.974 322.686 372.216C329.617 370.458 336.451 353.345 341.234 354.129C346.017 354.913 349.726 356.969 349.238 365.281C348.75 373.594 331.861 397.451 323.564 396.959C315.267 396.467 313.693 385.017 305.604 379.545C297.769 374.245 290.354 376.13 283.543 369.561C278.365 364.568 275.149 353.715 273.977 353.812C272.806 353.909 270.451 356.081 268.413 357.82C261.701 363.547 263.374 372.038 255.82 376.593C250.259 379.946 245.62 377.832 239.616 380.304C233.92 382.648 225.949 386.167 226.145 388.514C226.34 390.861 226.696 392.083 226.632 394.382C226.451 400.964 221.729 403.695 220.872 410.224C220.035 416.607 219.701 424.502 222.238 426.654C224.776 428.807 229.391 420.313 234.733 420.889C239.298 421.38 243.226 423.728 244.69 427.151C246.154 430.575 235.273 438.996 227.216 443.967C220.291 448.239 214.821 455.591 207.79 451.49C205.25 450.009 204.095 448.558 202.617 446.012C198.587 439.067 206.327 433.886 205.644 425.67C204.961 417.455 199.978 411.917 199.007 402.587C198.434 397.079 199.008 388.406 199.008 388.406C199.008 388.406 188.66 391.63 186.317 391.825C183.975 392.02 180.669 392.295 180.07 387.617C179.472 382.94 177.929 361.867 176.558 345.367C176.177 340.783 176.231 338.183 175.582 333.63C174.664 327.191 173.251 323.751 171.873 317.394Z" stroke="#894322" stroke-width="3"/>
<path fill-rule="evenodd" clip-rule="evenodd" d="M115.278 278H1V525H421V278H321.118C318.79 280.128 316.631 281.931 314.586 283.638C313.841 284.26 313.111 284.869 312.393 285.477C309.247 288.143 306.286 290.823 303.141 294.546C301.715 296.234 300.422 298.159 299.07 300.173L298.73 300.68C297.274 302.844 295.737 305.088 293.96 307.022C292.173 308.967 290.093 310.656 287.516 311.677C284.923 312.704 281.93 313.012 278.39 312.354C274.817 311.69 271.015 309.804 267.346 307.505C263.657 305.193 259.982 302.386 256.665 299.777C255.966 299.227 255.284 298.688 254.623 298.164L254.618 298.161L254.618 298.161C252.11 296.175 249.887 294.415 248.044 293.156C246.875 292.356 245.955 291.827 245.281 291.567C245.219 291.543 245.162 291.522 245.111 291.505C245.274 291.993 245.634 292.688 246.245 293.591C247.582 295.563 249.831 298.118 252.632 300.929C258.216 306.534 265.768 312.939 271.928 317.387C276.22 320.486 282.192 323.165 287.264 325.412L287.641 325.579C289.993 326.62 292.152 327.576 293.752 328.417C294.591 328.858 295.346 329.303 295.917 329.748C296.202 329.97 296.488 330.229 296.719 330.527C296.944 330.816 297.196 331.244 297.241 331.788C297.314 332.668 297.139 333.4 296.705 334.037C296.43 334.44 296.02 334.811 295.769 335.039L295.768 335.04C295.714 335.088 295.667 335.13 295.631 335.165C295.357 335.425 295.103 335.702 294.868 336.134C294.628 336.577 294.374 337.247 294.2 338.314C294.085 339.02 294.289 339.898 294.973 341.042C295.656 342.183 296.72 343.424 298.054 344.789C299.056 345.814 300.162 346.861 301.319 347.956L301.321 347.958L301.327 347.964C301.705 348.321 302.088 348.683 302.474 349.052C304.03 350.535 305.625 352.099 307.031 353.721C308.662 355.604 310.105 357.786 311.435 359.912C311.829 360.541 312.211 361.162 312.585 361.77C313.498 363.254 314.366 364.665 315.254 365.952C316.508 367.768 317.686 369.161 318.878 370.003C320.01 370.804 321.093 371.072 322.318 370.762C323.602 370.436 325.078 369.322 326.731 367.523C328.351 365.761 329.952 363.556 331.549 361.342L331.718 361.108C333.227 359.014 334.749 356.903 336.197 355.353C336.95 354.547 337.745 353.823 338.574 353.324C339.403 352.825 340.399 352.472 341.477 352.649C343.97 353.058 346.521 353.842 348.335 355.887C350.168 357.954 350.992 361.009 350.735 365.369C350.593 367.789 349.31 371.082 347.516 374.504C345.69 377.986 343.226 381.804 340.52 385.335C337.818 388.86 334.838 392.147 331.967 394.539C330.532 395.734 329.09 396.735 327.694 397.425C326.311 398.109 324.871 398.539 323.475 398.457C318.524 398.163 315.688 394.543 313.264 390.96C312.896 390.417 312.535 389.871 312.175 389.326C310.05 386.111 307.961 382.95 304.763 380.787C301.449 378.545 298.239 377.678 294.881 376.771L294.879 376.77C294.518 376.673 294.156 376.575 293.792 376.475C290.051 375.447 286.188 374.196 282.502 370.641C279.695 367.935 277.497 363.74 275.906 360.427C275.554 359.696 275.238 359.019 274.948 358.399L274.946 358.395C274.554 357.556 274.211 356.823 273.899 356.207C273.775 355.961 273.666 355.754 273.57 355.582C273.253 355.776 272.875 356.046 272.443 356.383C271.745 356.928 270.999 357.572 270.236 358.231L270.225 358.24C269.947 358.48 269.667 358.721 269.387 358.961C266.539 361.391 265.361 364.349 264.067 367.597C263.987 367.798 263.906 368 263.825 368.204C262.449 371.639 260.828 375.325 256.594 377.877C253.501 379.743 250.657 380.071 247.998 380.274C247.762 380.293 247.527 380.31 247.294 380.327L247.283 380.328C244.892 380.503 242.679 380.665 240.187 381.691C237.34 382.862 233.992 384.301 231.391 385.724C230.083 386.439 229.035 387.113 228.345 387.707C228 388.005 227.797 388.237 227.693 388.398C227.671 388.432 227.656 388.459 227.647 388.478C227.712 389.233 227.791 389.846 227.87 390.457L227.87 390.457L227.87 390.459C227.906 390.732 227.941 391.005 227.975 391.289C228.086 392.221 228.166 393.178 228.132 394.423C228.03 398.108 226.637 400.712 225.312 403.06L225.118 403.403C223.86 405.627 222.725 407.632 222.36 410.419C221.946 413.572 221.665 417.045 221.788 419.962C221.85 421.423 222.012 422.688 222.283 423.681C222.561 424.695 222.905 425.248 223.2 425.503C223.277 425.494 223.46 425.448 223.782 425.269C224.452 424.897 225.235 424.244 226.256 423.392L226.257 423.392L226.474 423.211C227.536 422.325 228.792 421.298 230.154 420.539C231.523 419.777 233.132 419.208 234.894 419.397C239.796 419.925 244.322 422.477 246.069 426.562C246.437 427.421 246.361 428.314 246.125 429.091C245.889 429.864 245.46 430.638 244.941 431.382C243.902 432.872 242.327 434.492 240.521 436.099C236.893 439.329 232.082 442.728 228.004 445.243C226.349 446.264 224.769 447.477 223.161 448.711L223.137 448.729L223.137 448.73C221.564 449.938 219.948 451.178 218.312 452.156C216.662 453.142 214.891 453.924 212.984 454.136C211.04 454.353 209.058 453.966 207.035 452.786C204.197 451.131 202.878 449.45 201.32 446.765C198.921 442.632 200.121 438.988 201.493 435.735C201.671 435.313 201.851 434.898 202.029 434.487C203.267 431.631 204.414 428.985 204.149 425.795C203.832 421.978 202.527 418.766 201.076 415.19L201.076 415.19L201.044 415.111C199.592 411.536 198.025 407.642 197.515 402.743C197.218 399.888 197.221 396.262 197.293 393.394C197.321 392.288 197.359 391.285 197.396 390.468C196.436 390.758 195.225 391.118 193.957 391.484C192.51 391.901 190.979 392.327 189.657 392.663C188.38 392.987 187.172 393.259 186.442 393.32L186.328 393.329C185.228 393.422 183.503 393.567 181.969 392.935C181.124 392.587 180.341 392.012 179.732 391.123C179.134 390.249 178.754 389.147 178.582 387.808C178.19 384.738 177.398 374.722 176.516 363.571L176.515 363.563C176.041 357.565 175.541 351.24 175.063 345.491C174.923 343.803 174.841 342.409 174.765 341.11C174.629 338.772 174.51 336.74 174.097 333.842C173.649 330.7 173.081 328.29 172.448 325.859C172.305 325.309 172.158 324.755 172.008 324.19C171.495 322.262 170.947 320.201 170.407 317.712C169.777 314.803 169.548 311.371 169.342 308.285V308.285V308.285C169.267 307.161 169.195 306.083 169.108 305.093C168.938 303.166 168.717 301.592 168.358 300.472C167.974 299.275 167.606 299.116 167.516 299.095C167.461 299.081 167.082 299.032 166.211 299.951C165.404 300.801 164.528 302.119 163.562 303.745C163.085 304.546 162.602 305.395 162.105 306.271L162.04 306.387L162.038 306.39C161.564 307.224 161.078 308.081 160.586 308.917C159.56 310.659 158.464 312.388 157.303 313.761C155.122 316.339 151.558 320.232 147.647 323.714C143.797 327.142 139.388 330.378 135.538 331.354C131.502 332.376 126.814 330.712 122.953 328.807C120.972 327.83 119.107 326.737 117.52 325.77C116.963 325.43 116.45 325.113 115.98 324.822C115.078 324.263 114.336 323.803 113.749 323.478C110.331 321.585 104.693 320.411 99.6172 322.474C98.0522 323.111 97.2266 324.334 96.1284 325.962L95.9974 326.156C94.894 327.789 93.461 329.815 90.5518 330.378C88.097 330.854 85.8714 330.706 83.8007 329.944C81.7454 329.188 79.9395 327.864 78.258 326.133C73.3456 321.076 72.204 313.419 76.7999 307.716C79.4949 304.371 82.7851 303.759 86.166 303.13C86.7451 303.022 87.3268 302.914 87.9086 302.792C89.4065 302.476 90.6176 302.472 91.6952 302.467L91.726 302.467C92.8072 302.463 93.7539 302.456 94.9369 302.207C95.7473 302.037 96.4945 301.898 97.1875 301.769L97.1883 301.769C100.44 301.165 102.499 300.782 104.294 298.38C105.07 297.342 104.917 296.61 104.58 294.996L104.539 294.801C104.363 293.955 104.17 292.904 104.276 291.696C104.384 290.466 104.792 289.156 105.689 287.724C106.583 286.298 108.34 284.446 110.514 282.37C111.906 281.039 113.52 279.57 115.278 278ZM119.799 278H316.605C315.264 279.163 313.973 280.241 312.705 281.3L312.703 281.301C311.947 281.932 311.199 282.557 310.454 283.188C307.25 285.903 304.147 288.706 300.849 292.609C299.311 294.431 297.927 296.492 296.595 298.476L296.595 298.477C296.476 298.654 296.358 298.83 296.24 299.006C294.776 301.183 293.354 303.248 291.751 304.992C290.158 306.726 288.437 308.085 286.411 308.887C284.401 309.684 281.988 309.972 278.939 309.405C275.922 308.844 272.502 307.195 268.938 304.962C265.395 302.742 261.828 300.021 258.52 297.419C257.849 296.892 257.187 296.368 256.538 295.854L256.533 295.85C254.012 293.854 251.675 292.004 249.738 290.679C248.523 289.849 247.37 289.157 246.359 288.767C245.466 288.423 244.084 288.083 242.981 288.96C241.858 289.852 241.912 291.197 242.17 292.141C242.434 293.111 243.024 294.184 243.762 295.273C245.257 297.481 247.665 300.194 250.507 303.046C256.208 308.769 263.884 315.279 270.172 319.819C274.765 323.136 281.044 325.938 286.049 328.155L286.367 328.295L286.367 328.295C288.774 329.361 290.848 330.28 292.357 331.073C293.148 331.489 293.714 331.834 294.07 332.112C294.149 332.174 294.209 332.225 294.252 332.266C294.25 332.286 294.247 332.299 294.245 332.306C294.242 332.32 294.24 332.327 294.226 332.347C294.167 332.434 294.109 332.487 293.95 332.632L293.948 332.634C293.859 332.715 293.738 332.826 293.567 332.987C293.159 333.375 292.668 333.898 292.231 334.704C291.8 335.498 291.456 336.503 291.24 337.832C290.964 339.522 291.534 341.138 292.399 342.583C293.266 344.031 294.529 345.474 295.908 346.886C296.956 347.957 298.123 349.061 299.291 350.167L299.292 350.168C299.664 350.52 300.036 350.872 300.404 351.223C301.95 352.696 303.457 354.178 304.764 355.686C306.235 357.384 307.576 359.401 308.892 361.504C309.255 362.084 309.619 362.674 309.982 363.265L309.986 363.271C310.916 364.783 311.849 366.3 312.785 367.656C314.087 369.543 315.509 371.295 317.146 372.453C318.842 373.652 320.814 374.238 323.055 373.67C325.236 373.117 327.214 371.432 328.94 369.553C330.701 367.636 332.406 365.282 333.982 363.097L334.079 362.962L334.08 362.961C335.65 360.784 337.074 358.808 338.389 357.401C339.057 356.686 339.634 356.188 340.122 355.894C340.609 355.601 340.873 355.59 340.991 355.61C343.281 355.985 344.976 356.621 346.091 357.877C347.186 359.112 347.973 361.241 347.741 365.193C347.639 366.93 346.628 369.737 344.859 373.111C343.121 376.424 340.753 380.098 338.139 383.51C335.52 386.926 332.692 390.031 330.047 392.234C328.725 393.335 327.482 394.183 326.365 394.736C325.234 395.295 324.332 395.502 323.653 395.462C320.307 395.264 318.207 392.913 315.748 389.279C315.417 388.79 315.081 388.279 314.735 387.753C312.632 384.556 310.18 380.829 306.444 378.302C302.694 375.765 299.01 374.774 295.677 373.878L295.676 373.877C295.309 373.778 294.945 373.681 294.587 373.582C290.959 372.585 287.709 371.495 284.584 368.481C282.213 366.195 280.214 362.467 278.61 359.128C278.295 358.473 277.99 357.82 277.701 357.203L277.699 357.198L277.698 357.196C277.282 356.309 276.902 355.495 276.577 354.853C276.298 354.302 276.015 353.783 275.737 353.39C275.601 353.198 275.419 352.966 275.189 352.772C274.991 352.605 274.519 352.262 273.853 352.317C273.21 352.371 272.602 352.671 272.142 352.941C271.642 353.234 271.114 353.615 270.597 354.018C269.835 354.613 269.003 355.331 268.222 356.005C267.954 356.237 267.691 356.464 267.439 356.679C264.006 359.608 262.575 363.218 261.318 366.389C261.224 366.625 261.132 366.858 261.04 367.088C259.686 370.469 258.366 373.306 255.045 375.308C252.577 376.796 250.321 377.088 247.769 377.283C247.53 377.301 247.288 377.319 247.042 377.337C244.677 377.507 242.003 377.699 239.045 378.916C236.195 380.09 232.711 381.582 229.951 383.092C228.579 383.842 227.315 384.635 226.387 385.434C225.924 385.833 225.491 386.279 225.174 386.769C224.859 387.256 224.588 387.899 224.65 388.638C224.722 389.505 224.818 390.25 224.903 390.908L224.903 390.909C224.937 391.167 224.968 391.411 224.996 391.643C225.096 392.484 225.162 393.287 225.133 394.341C225.053 397.238 223.995 399.291 222.699 401.586C222.659 401.658 222.618 401.73 222.576 401.803L222.463 402.003C221.229 404.179 219.829 406.647 219.385 410.029C218.962 413.258 218.657 416.924 218.791 420.089C218.858 421.669 219.036 423.18 219.39 424.472C219.735 425.734 220.296 426.974 221.268 427.798C221.894 428.329 222.631 428.548 223.384 428.498C224.076 428.452 224.71 428.185 225.238 427.892C226.172 427.374 227.179 426.532 228.112 425.751C228.207 425.672 228.301 425.593 228.395 425.515C229.471 424.618 230.529 423.765 231.614 423.16C232.693 422.559 233.663 422.282 234.573 422.38C238.799 422.835 242.129 424.978 243.311 427.741C243.312 427.744 243.324 427.771 243.323 427.842C243.323 427.918 243.309 428.04 243.255 428.215C243.145 428.577 242.901 429.062 242.48 429.666C241.638 430.873 240.264 432.311 238.526 433.858C235.066 436.938 230.408 440.235 226.429 442.69C224.638 443.795 222.951 445.09 221.378 446.298L221.334 446.331C219.722 447.569 218.241 448.704 216.773 449.581C215.312 450.454 213.964 451.008 212.652 451.155C211.377 451.297 210.038 451.065 208.546 450.195C206.302 448.886 205.311 447.666 203.914 445.259C202.283 442.447 202.938 440.028 204.257 436.901C204.416 436.525 204.585 436.139 204.759 435.741L204.761 435.737C205.991 432.925 207.471 429.544 207.139 425.546C206.783 421.27 205.329 417.689 203.917 414.213L203.823 413.983C202.37 410.402 200.96 406.863 200.499 402.432C200.223 399.779 200.22 396.314 200.292 393.469C200.327 392.056 200.381 390.812 200.425 389.922C200.447 389.478 200.467 389.122 200.481 388.878C200.489 388.756 200.494 388.662 200.498 388.599L200.503 388.528L200.504 388.511L200.504 388.506L200.504 388.506L200.649 386.324L198.561 386.974L199.008 388.406L198.561 386.974L198.561 386.974L198.56 386.975L198.554 386.977L198.533 386.983L198.447 387.01C198.371 387.033 198.26 387.068 198.117 387.112C197.831 387.2 197.42 387.326 196.919 387.478C195.916 387.782 194.557 388.189 193.125 388.601C191.692 389.015 190.197 389.431 188.92 389.755C187.599 390.09 186.634 390.293 186.193 390.33C184.943 390.434 183.911 390.491 183.111 390.161C182.761 390.017 182.46 389.797 182.207 389.428C181.944 389.044 181.686 388.427 181.558 387.427C181.174 384.429 180.396 374.586 179.522 363.526L179.522 363.522L179.521 363.517C179.044 357.482 178.538 351.086 178.053 345.242C177.925 343.708 177.846 342.372 177.771 341.089L177.771 341.088C177.628 338.661 177.496 336.428 177.067 333.419C176.597 330.122 175.999 327.592 175.352 325.103C175.202 324.528 175.05 323.958 174.897 323.383C174.387 321.465 173.862 319.491 173.339 317.077C172.759 314.4 172.554 311.325 172.353 308.313L172.353 308.312L172.353 308.312C172.274 307.132 172.196 305.962 172.096 304.83C171.925 302.889 171.684 301.022 171.215 299.557C170.77 298.169 169.944 296.599 168.227 296.18C166.477 295.753 165.026 296.84 164.034 297.886C162.977 299.001 161.956 300.574 160.983 302.212C160.489 303.043 159.991 303.918 159.496 304.791L159.434 304.9C158.957 305.74 158.481 306.579 158.001 307.395C156.991 309.109 156 310.655 155.012 311.824C152.894 314.328 149.429 318.111 145.652 321.473C141.815 324.89 137.88 327.666 134.801 328.446C131.909 329.178 128.106 328.004 124.28 326.117C122.417 325.198 120.64 324.158 119.081 323.208C118.588 322.907 118.107 322.61 117.651 322.327L117.65 322.327C116.7 321.739 115.853 321.214 115.202 320.854C111.196 318.634 104.599 317.211 98.4874 319.695C96.0455 320.688 94.7402 322.64 93.735 324.144C93.6589 324.257 93.5846 324.368 93.5117 324.476C92.4122 326.103 91.5788 327.124 89.9814 327.433C87.9976 327.817 86.3338 327.679 84.8362 327.129C83.3232 326.572 81.882 325.558 80.4098 324.042C76.3559 319.87 75.6594 313.912 79.1359 309.598C81.0906 307.172 83.2023 306.765 86.5511 306.12C87.1657 306.002 87.822 305.876 88.5267 305.727C89.7097 305.478 90.6564 305.471 91.7376 305.467L91.7684 305.467C92.846 305.463 94.0571 305.458 95.555 305.143C96.1798 305.011 96.8117 304.899 97.445 304.786C100.775 304.194 104.142 303.595 106.697 300.176C108.305 298.025 107.873 296.027 107.548 294.525C107.523 294.411 107.499 294.299 107.476 294.191C107.311 293.395 107.199 292.704 107.265 291.958C107.328 291.234 107.567 290.377 108.231 289.317C108.9 288.251 110.391 286.636 112.586 284.539C114.579 282.634 117.053 280.424 119.799 278ZM245.012 291.044C245.013 291.045 245.013 291.054 245.01 291.07C245.01 291.051 245.011 291.043 245.012 291.044ZM244.658 291.405C244.655 291.405 244.654 291.405 244.654 291.405C244.654 291.405 244.655 291.405 244.658 291.405Z" fill="#894322"/>
<rect x="1" y="278" width="420" height="247" fill="#FCAB46"/>
<path fill-rule="evenodd" clip-rule="evenodd" d="M115.278 278H1V525H421V278H321.118C318.79 280.128 316.631 281.931 314.586 283.638C313.841 284.26 313.111 284.869 312.393 285.477C309.247 288.143 306.286 290.823 303.141 294.546C301.715 296.234 300.422 298.159 299.07 300.173L298.73 300.68C297.274 302.844 295.737 305.088 293.96 307.022C292.173 308.967 290.093 310.656 287.516 311.677C284.923 312.704 281.93 313.012 278.39 312.354C274.817 311.69 271.015 309.804 267.346 307.505C263.657 305.193 259.982 302.386 256.665 299.777C255.966 299.227 255.284 298.688 254.623 298.164L254.618 298.161L254.618 298.161C252.11 296.175 249.887 294.415 248.044 293.156C246.875 292.356 245.955 291.827 245.281 291.567C245.219 291.543 245.162 291.522 245.111 291.505C245.274 291.993 245.634 292.688 246.245 293.591C247.582 295.563 249.831 298.118 252.632 300.929C258.216 306.534 265.768 312.939 271.928 317.387C276.22 320.486 282.192 323.165 287.264 325.412L287.641 325.579C289.993 326.62 292.152 327.576 293.752 328.417C294.591 328.858 295.346 329.303 295.917 329.748C296.202 329.97 296.488 330.229 296.719 330.527C296.944 330.816 297.196 331.244 297.241 331.788C297.314 332.668 297.139 333.4 296.705 334.037C296.43 334.44 296.02 334.811 295.769 335.039L295.768 335.04C295.714 335.088 295.667 335.13 295.631 335.165C295.357 335.425 295.103 335.702 294.868 336.134C294.628 336.577 294.374 337.247 294.2 338.314C294.085 339.02 294.289 339.898 294.973 341.042C295.656 342.183 296.72 343.424 298.054 344.789C299.056 345.814 300.162 346.861 301.319 347.956L301.321 347.958L301.327 347.964C301.705 348.321 302.088 348.683 302.474 349.052C304.03 350.535 305.625 352.099 307.031 353.721C308.662 355.604 310.105 357.786 311.435 359.912C311.829 360.541 312.211 361.162 312.585 361.77C313.498 363.254 314.366 364.665 315.254 365.952C316.508 367.768 317.686 369.161 318.878 370.003C320.01 370.804 321.093 371.072 322.318 370.762C323.602 370.436 325.078 369.322 326.731 367.523C328.351 365.761 329.952 363.556 331.549 361.342L331.718 361.108C333.227 359.014 334.749 356.903 336.197 355.353C336.95 354.547 337.745 353.823 338.574 353.324C339.403 352.825 340.399 352.472 341.477 352.649C343.97 353.058 346.521 353.842 348.335 355.887C350.168 357.954 350.992 361.009 350.735 365.369C350.593 367.789 349.31 371.082 347.516 374.504C345.69 377.986 343.226 381.804 340.52 385.335C337.818 388.86 334.838 392.147 331.967 394.539C330.532 395.734 329.09 396.735 327.694 397.425C326.311 398.109 324.871 398.539 323.475 398.457C318.524 398.163 315.688 394.543 313.264 390.96C312.896 390.417 312.535 389.871 312.175 389.326C310.05 386.111 307.961 382.95 304.763 380.787C301.449 378.545 298.239 377.678 294.881 376.771L294.879 376.77C294.518 376.673 294.156 376.575 293.792 376.475C290.051 375.447 286.188 374.196 282.502 370.641C279.695 367.935 277.497 363.74 275.906 360.427C275.554 359.696 275.238 359.019 274.948 358.399L274.946 358.395C274.554 357.556 274.211 356.823 273.899 356.207C273.775 355.961 273.666 355.754 273.57 355.582C273.253 355.776 272.875 356.046 272.443 356.383C271.745 356.928 270.999 357.572 270.236 358.231L270.225 358.24C269.947 358.48 269.667 358.721 269.387 358.961C266.539 361.391 265.361 364.349 264.067 367.597C263.987 367.798 263.906 368 263.825 368.204C262.449 371.639 260.828 375.325 256.594 377.877C253.501 379.743 250.657 380.071 247.998 380.274C247.762 380.293 247.527 380.31 247.294 380.327L247.283 380.328C244.892 380.503 242.679 380.665 240.187 381.691C237.34 382.862 233.992 384.301 231.391 385.724C230.083 386.439 229.035 387.113 228.345 387.707C228 388.005 227.797 388.237 227.693 388.398C227.671 388.432 227.656 388.459 227.647 388.478C227.712 389.233 227.791 389.846 227.87 390.457L227.87 390.457L227.87 390.459C227.906 390.732 227.941 391.005 227.975 391.289C228.086 392.221 228.166 393.178 228.132 394.423C228.03 398.108 226.637 400.712 225.312 403.06L225.118 403.403C223.86 405.627 222.725 407.632 222.36 410.419C221.946 413.572 221.665 417.045 221.788 419.962C221.85 421.423 222.012 422.688 222.283 423.681C222.561 424.695 222.905 425.248 223.2 425.503C223.277 425.494 223.46 425.448 223.782 425.269C224.452 424.897 225.235 424.244 226.256 423.392L226.257 423.392L226.474 423.211C227.536 422.325 228.792 421.298 230.154 420.539C231.523 419.777 233.132 419.208 234.894 419.397C239.796 419.925 244.322 422.477 246.069 426.562C246.437 427.421 246.361 428.314 246.125 429.091C245.889 429.864 245.46 430.638 244.941 431.382C243.902 432.872 242.327 434.492 240.521 436.099C236.893 439.329 232.082 442.728 228.004 445.243C226.349 446.264 224.769 447.477 223.161 448.711L223.137 448.729L223.137 448.73C221.564 449.938 219.948 451.178 218.312 452.156C216.662 453.142 214.891 453.924 212.984 454.136C211.04 454.353 209.058 453.966 207.035 452.786C204.197 451.131 202.878 449.45 201.32 446.765C198.921 442.632 200.121 438.988 201.493 435.735C201.671 435.313 201.851 434.898 202.029 434.487C203.267 431.631 204.414 428.985 204.149 425.795C203.832 421.978 202.527 418.766 201.076 415.19L201.076 415.19L201.044 415.111C199.592 411.536 198.025 407.642 197.515 402.743C197.218 399.888 197.221 396.262 197.293 393.394C197.321 392.288 197.359 391.285 197.396 390.468C196.436 390.758 195.225 391.118 193.957 391.484C192.51 391.901 190.979 392.327 189.657 392.663C188.38 392.987 187.172 393.259 186.442 393.32L186.328 393.329C185.228 393.422 183.503 393.567 181.969 392.935C181.124 392.587 180.341 392.012 179.732 391.123C179.134 390.249 178.754 389.147 178.582 387.808C178.19 384.738 177.398 374.722 176.516 363.571L176.515 363.563C176.041 357.565 175.541 351.24 175.063 345.491C174.923 343.803 174.841 342.409 174.765 341.11C174.629 338.772 174.51 336.74 174.097 333.842C173.649 330.7 173.081 328.29 172.448 325.859C172.305 325.309 172.158 324.755 172.008 324.19C171.495 322.262 170.947 320.201 170.407 317.712C169.777 314.803 169.548 311.371 169.342 308.285V308.285V308.285C169.267 307.161 169.195 306.083 169.108 305.093C168.938 303.166 168.717 301.592 168.358 300.472C167.974 299.275 167.606 299.116 167.516 299.095C167.461 299.081 167.082 299.032 166.211 299.951C165.404 300.801 164.528 302.119 163.562 303.745C163.085 304.546 162.602 305.395 162.105 306.271L162.04 306.387L162.038 306.39C161.564 307.224 161.078 308.081 160.586 308.917C159.56 310.659 158.464 312.388 157.303 313.761C155.122 316.339 151.558 320.232 147.647 323.714C143.797 327.142 139.388 330.378 135.538 331.354C131.502 332.376 126.814 330.712 122.953 328.807C120.972 327.83 119.107 326.737 117.52 325.77C116.963 325.43 116.45 325.113 115.98 324.822C115.078 324.263 114.336 323.803 113.749 323.478C110.331 321.585 104.693 320.411 99.6172 322.474C98.0522 323.111 97.2266 324.334 96.1284 325.962L95.9974 326.156C94.894 327.789 93.461 329.815 90.5518 330.378C88.097 330.854 85.8714 330.706 83.8007 329.944C81.7454 329.188 79.9395 327.864 78.258 326.133C73.3456 321.076 72.204 313.419 76.7999 307.716C79.4949 304.371 82.7851 303.759 86.166 303.13C86.7451 303.022 87.3268 302.914 87.9086 302.792C89.4065 302.476 90.6176 302.472 91.6952 302.467L91.726 302.467C92.8072 302.463 93.7539 302.456 94.9369 302.207C95.7473 302.037 96.4945 301.898 97.1875 301.769L97.1883 301.769C100.44 301.165 102.499 300.782 104.294 298.38C105.07 297.342 104.917 296.61 104.58 294.996L104.539 294.801C104.363 293.955 104.17 292.904 104.276 291.696C104.384 290.466 104.792 289.156 105.689 287.724C106.583 286.298 108.34 284.446 110.514 282.37C111.906 281.039 113.52 279.57 115.278 278ZM119.799 278H316.605C315.264 279.163 313.973 280.241 312.705 281.3L312.703 281.301C311.947 281.932 311.199 282.557 310.454 283.188C307.25 285.903 304.147 288.706 300.849 292.609C299.311 294.431 297.927 296.492 296.595 298.476L296.595 298.477C296.476 298.654 296.358 298.83 296.24 299.006C294.776 301.183 293.354 303.248 291.751 304.992C290.158 306.726 288.437 308.085 286.411 308.887C284.401 309.684 281.988 309.972 278.939 309.405C275.922 308.844 272.502 307.195 268.938 304.962C265.395 302.742 261.828 300.021 258.52 297.419C257.849 296.892 257.187 296.368 256.538 295.854L256.533 295.85C254.012 293.854 251.675 292.004 249.738 290.679C248.523 289.849 247.37 289.157 246.359 288.767C245.466 288.423 244.084 288.083 242.981 288.96C241.858 289.852 241.912 291.197 242.17 292.141C242.434 293.111 243.024 294.184 243.762 295.273C245.257 297.481 247.665 300.194 250.507 303.046C256.208 308.769 263.884 315.279 270.172 319.819C274.765 323.136 281.044 325.938 286.049 328.155L286.367 328.295L286.367 328.295C288.774 329.361 290.848 330.28 292.357 331.073C293.148 331.489 293.714 331.834 294.07 332.112C294.149 332.174 294.209 332.225 294.252 332.266C294.25 332.286 294.247 332.299 294.245 332.306C294.242 332.32 294.24 332.327 294.226 332.347C294.167 332.434 294.109 332.487 293.95 332.632L293.948 332.634C293.859 332.715 293.738 332.826 293.567 332.987C293.159 333.375 292.668 333.898 292.231 334.704C291.8 335.498 291.456 336.503 291.24 337.832C290.964 339.522 291.534 341.138 292.399 342.583C293.266 344.031 294.529 345.474 295.908 346.886C296.956 347.957 298.123 349.061 299.291 350.167L299.292 350.168C299.664 350.52 300.036 350.872 300.404 351.223C301.95 352.696 303.457 354.178 304.764 355.686C306.235 357.384 307.576 359.401 308.892 361.504C309.255 362.084 309.619 362.674 309.982 363.265L309.986 363.271C310.916 364.783 311.849 366.3 312.785 367.656C314.087 369.543 315.509 371.295 317.146 372.453C318.842 373.652 320.814 374.238 323.055 373.67C325.236 373.117 327.214 371.432 328.94 369.553C330.701 367.636 332.406 365.282 333.982 363.097L334.079 362.962L334.08 362.961C335.65 360.784 337.074 358.808 338.389 357.401C339.057 356.686 339.634 356.188 340.122 355.894C340.609 355.601 340.873 355.59 340.991 355.61C343.281 355.985 344.976 356.621 346.091 357.877C347.186 359.112 347.973 361.241 347.741 365.193C347.639 366.93 346.628 369.737 344.859 373.111C343.121 376.424 340.753 380.098 338.139 383.51C335.52 386.926 332.692 390.031 330.047 392.234C328.725 393.335 327.482 394.183 326.365 394.736C325.234 395.295 324.332 395.502 323.653 395.462C320.307 395.264 318.207 392.913 315.748 389.279C315.417 388.79 315.081 388.279 314.735 387.753C312.632 384.556 310.18 380.829 306.444 378.302C302.694 375.765 299.01 374.774 295.677 373.878L295.676 373.877C295.309 373.778 294.945 373.681 294.587 373.582C290.959 372.585 287.709 371.495 284.584 368.481C282.213 366.195 280.214 362.467 278.61 359.128C278.295 358.473 277.99 357.82 277.701 357.203L277.699 357.198L277.698 357.196C277.282 356.309 276.902 355.495 276.577 354.853C276.298 354.302 276.015 353.783 275.737 353.39C275.601 353.198 275.419 352.966 275.189 352.772C274.991 352.605 274.519 352.262 273.853 352.317C273.21 352.371 272.602 352.671 272.142 352.941C271.642 353.234 271.114 353.615 270.597 354.018C269.835 354.613 269.003 355.331 268.222 356.005C267.954 356.237 267.691 356.464 267.439 356.679C264.006 359.608 262.575 363.218 261.318 366.389C261.224 366.625 261.132 366.858 261.04 367.088C259.686 370.469 258.366 373.306 255.045 375.308C252.577 376.796 250.321 377.088 247.769 377.283C247.53 377.301 247.288 377.319 247.042 377.337C244.677 377.507 242.003 377.699 239.045 378.916C236.195 380.09 232.711 381.582 229.951 383.092C228.579 383.842 227.315 384.635 226.387 385.434C225.924 385.833 225.491 386.279 225.174 386.769C224.859 387.256 224.588 387.899 224.65 388.638C224.722 389.505 224.818 390.25 224.903 390.908L224.903 390.909C224.937 391.167 224.968 391.411 224.996 391.643C225.096 392.484 225.162 393.287 225.133 394.341C225.053 397.238 223.995 399.291 222.699 401.586C222.659 401.658 222.618 401.73 222.576 401.803L222.463 402.003C221.229 404.179 219.829 406.647 219.385 410.029C218.962 413.258 218.657 416.924 218.791 420.089C218.858 421.669 219.036 423.18 219.39 424.472C219.735 425.734 220.296 426.974 221.268 427.798C221.894 428.329 222.631 428.548 223.384 428.498C224.076 428.452 224.71 428.185 225.238 427.892C226.172 427.374 227.179 426.532 228.112 425.751C228.207 425.672 228.301 425.593 228.395 425.515C229.471 424.618 230.529 423.765 231.614 423.16C232.693 422.559 233.663 422.282 234.573 422.38C238.799 422.835 242.129 424.978 243.311 427.741C243.312 427.744 243.324 427.771 243.323 427.842C243.323 427.918 243.309 428.04 243.255 428.215C243.145 428.577 242.901 429.062 242.48 429.666C241.638 430.873 240.264 432.311 238.526 433.858C235.066 436.938 230.408 440.235 226.429 442.69C224.638 443.795 222.951 445.09 221.378 446.298L221.334 446.331C219.722 447.569 218.241 448.704 216.773 449.581C215.312 450.454 213.964 451.008 212.652 451.155C211.377 451.297 210.038 451.065 208.546 450.195C206.302 448.886 205.311 447.666 203.914 445.259C202.283 442.447 202.938 440.028 204.257 436.901C204.416 436.525 204.585 436.139 204.759 435.741L204.761 435.737C205.991 432.925 207.471 429.544 207.139 425.546C206.783 421.27 205.329 417.689 203.917 414.213L203.823 413.983C202.37 410.402 200.96 406.863 200.499 402.432C200.223 399.779 200.22 396.314 200.292 393.469C200.327 392.056 200.381 390.812 200.425 389.922C200.447 389.478 200.467 389.122 200.481 388.878C200.489 388.756 200.494 388.662 200.498 388.599L200.503 388.528L200.504 388.511L200.504 388.506L200.504 388.506L200.649 386.324L198.561 386.974L199.008 388.406L198.561 386.974L198.561 386.974L198.56 386.975L198.554 386.977L198.533 386.983L198.447 387.01C198.371 387.033 198.26 387.068 198.117 387.112C197.831 387.2 197.42 387.326 196.919 387.478C195.916 387.782 194.557 388.189 193.125 388.601C191.692 389.015 190.197 389.431 188.92 389.755C187.599 390.09 186.634 390.293 186.193 390.33C184.943 390.434 183.911 390.491 183.111 390.161C182.761 390.017 182.46 389.797 182.207 389.428C181.944 389.044 181.686 388.427 181.558 387.427C181.174 384.429 180.396 374.586 179.522 363.526L179.522 363.522L179.521 363.517C179.044 357.482 178.538 351.086 178.053 345.242C177.925 343.708 177.846 342.372 177.771 341.089L177.771 341.088C177.628 338.661 177.496 336.428 177.067 333.419C176.597 330.122 175.999 327.592 175.352 325.103C175.202 324.528 175.05 323.958 174.897 323.383C174.387 321.465 173.862 319.491 173.339 317.077C172.759 314.4 172.554 311.325 172.353 308.313L172.353 308.312L172.353 308.312C172.274 307.132 172.196 305.962 172.096 304.83C171.925 302.889 171.684 301.022 171.215 299.557C170.77 298.169 169.944 296.599 168.227 296.18C166.477 295.753 165.026 296.84 164.034 297.886C162.977 299.001 161.956 300.574 160.983 302.212C160.489 303.043 159.991 303.918 159.496 304.791L159.434 304.9C158.957 305.74 158.481 306.579 158.001 307.395C156.991 309.109 156 310.655 155.012 311.824C152.894 314.328 149.429 318.111 145.652 321.473C141.815 324.89 137.88 327.666 134.801 328.446C131.909 329.178 128.106 328.004 124.28 326.117C122.417 325.198 120.64 324.158 119.081 323.208C118.588 322.907 118.107 322.61 117.651 322.327L117.65 322.327C116.7 321.739 115.853 321.214 115.202 320.854C111.196 318.634 104.599 317.211 98.4874 319.695C96.0455 320.688 94.7402 322.64 93.735 324.144C93.6589 324.257 93.5846 324.368 93.5117 324.476C92.4122 326.103 91.5788 327.124 89.9814 327.433C87.9976 327.817 86.3338 327.679 84.8362 327.129C83.3232 326.572 81.882 325.558 80.4098 324.042C76.3559 319.87 75.6594 313.912 79.1359 309.598C81.0906 307.172 83.2023 306.765 86.5511 306.12C87.1657 306.002 87.822 305.876 88.5267 305.727C89.7097 305.478 90.6564 305.471 91.7376 305.467L91.7684 305.467C92.846 305.463 94.0571 305.458 95.555 305.143C96.1798 305.011 96.8117 304.899 97.445 304.786C100.775 304.194 104.142 303.595 106.697 300.176C108.305 298.025 107.873 296.027 107.548 294.525C107.523 294.411 107.499 294.299 107.476 294.191C107.311 293.395 107.199 292.704 107.265 291.958C107.328 291.234 107.567 290.377 108.231 289.317C108.9 288.251 110.391 286.636 112.586 284.539C114.579 282.634 117.053 280.424 119.799 278ZM245.012 291.044C245.013 291.045 245.013 291.054 245.01 291.07C245.01 291.051 245.011 291.043 245.012 291.044ZM244.658 291.405C244.655 291.405 244.654 291.405 244.654 291.405C244.654 291.405 244.655 291.405 244.658 291.405Z" fill="#894322"/>
</svg>
