<svg width="1000" height="631" viewBox="0 0 1000 631" fill="none" xmlns="http://www.w3.org/2000/svg">
<rect width="1000" height="631" fill="#FAF7F2"/>
<rect x="71" y="57" width="858" height="517" stroke="black" stroke-width="2"/>
<path d="M862.463 264.098L782.116 251.405L728.066 543.394L808.413 556.086L862.463 264.098Z" fill="#8160C8"/>
<path d="M811.225 541.736L730.877 529.044L729.524 536.358L809.871 549.05L811.225 541.736Z" fill="#D3BEFF"/>
<path d="M860.174 276.598L779.85 263.909L778.497 271.223L858.82 283.912L860.174 276.598Z" fill="#D3BEFF"/>
<path d="M821.402 419.986L819.008 419.608C818.973 419.331 818.972 419.26 819.022 418.911C818.241 419.415 817.478 419.594 816.476 419.436C814.917 419.19 814.111 418.207 814.365 416.835C814.695 415.048 816.231 415.034 817.747 415.045C819.221 415.05 819.675 415.15 819.798 414.485C819.893 413.973 819.578 413.666 818.84 413.55C818.102 413.433 817.768 413.537 817.463 414.259L815.236 413.907C815.686 412.324 816.96 411.713 819.145 412.058C820.049 412.201 821.017 412.468 821.668 413.127C822.139 413.6 822.208 414.082 822.033 415.024L821.503 417.891C821.374 418.584 821.241 419.305 821.402 419.986ZM819.475 416.231C818.945 416.389 818.389 416.373 817.84 416.4C817.204 416.428 816.889 416.664 816.801 417.135C816.704 417.661 816.993 418.035 817.577 418.127C818.371 418.252 819.168 417.893 819.339 416.965L819.475 416.231Z" fill="#D3BEFF"/>
<path d="M806.523 417.636L807.846 410.487L812.369 411.202C813.607 411.397 814.592 412.038 814.345 413.368C814.215 414.074 813.804 414.437 813.146 414.661C813.958 415.074 814.279 415.738 814.115 416.625C813.992 417.29 813.639 417.805 813.108 418.12C812.398 418.55 811.686 418.451 810.92 418.331L806.523 417.636ZM809.608 413.66L810.874 413.86C811.514 413.961 811.845 413.8 811.935 413.315C812.045 412.719 811.59 412.547 811.089 412.468L809.864 412.275L809.608 413.66ZM809.079 416.514L810.499 416.738C811.056 416.826 811.577 416.794 811.705 416.102C811.833 415.409 811.33 415.187 810.746 415.095L809.382 414.879L809.079 416.514Z" fill="#D3BEFF"/>
<path d="M803.382 409.568C805.608 409.92 806.855 411.699 806.442 413.93C806.024 416.188 804.206 417.498 801.951 417.142C799.697 416.785 798.437 415.004 798.855 412.746C799.268 410.515 801.113 409.21 803.382 409.568ZM803.003 411.305C802.112 411.164 801.459 411.831 801.221 413.119C800.974 414.449 801.351 415.279 802.269 415.424C803.174 415.567 803.83 414.886 804.076 413.556C804.314 412.268 803.935 411.452 803.003 411.305Z" fill="#D3BEFF"/>
<path d="M795.072 415.827L796.065 410.466L794.575 410.23L794.087 412.406C793.78 413.755 793.355 415.741 790.961 415.363C790.516 415.293 790.156 415.15 789.814 414.982L790.155 413.14C790.296 413.233 790.513 413.296 790.666 413.32C791.279 413.417 791.591 412.967 791.741 412.235L792.624 408.083L798.761 409.052L797.438 416.201L795.072 415.827Z" fill="#D3BEFF"/>
<path d="M789.016 409.353L788.024 414.714L785.658 414.341L786.65 408.979L784.284 408.606L784.615 406.818L791.713 407.939L791.382 409.727L789.016 409.353Z" fill="#D3BEFF"/>
<path d="M782.89 413.903L780.524 413.53L780.993 410.994L780.27 410.88L778.158 413.156L775.333 412.71L777.953 410.243C777.149 409.788 776.663 408.927 776.851 407.916C777.094 406.6 778.368 405.831 779.857 406.067L784.213 406.755L782.89 413.903ZM781.293 409.373L781.542 408.03L780.359 407.843C779.51 407.709 779.326 408.007 779.262 408.354C779.193 408.728 779.262 409.052 780.11 409.187L781.293 409.373Z" fill="#D3BEFF"/>
<path d="M775.367 415.21L772.946 414.827L773.395 412.403L767.633 411.493L767.184 413.917L764.763 413.535L765.617 408.922L766.646 409.084C767.747 407.861 768.832 404.781 769.204 402.772L769.417 401.622L776.5 402.741L775.08 410.416L776.221 410.597L775.367 415.21ZM772.547 410.016L773.578 404.447L771.463 404.113L771.381 404.556C771.05 406.343 770.217 408.365 769.388 409.517L772.547 410.016Z" fill="#D3BEFF"/>
<path d="M822.66 403.074L823.652 397.713L822.163 397.478L821.675 399.653C821.368 401.002 820.943 402.988 818.549 402.61C818.104 402.54 817.743 402.397 817.402 402.23L817.743 400.387C817.883 400.48 818.101 400.543 818.254 400.567C818.866 400.664 819.179 400.214 819.329 399.482L820.212 395.33L826.349 396.299L825.026 403.448L822.66 403.074Z" fill="#D3BEFF"/>
<path d="M817.446 402.25L815.053 401.872C815.018 401.595 815.017 401.524 815.067 401.175C814.286 401.68 813.523 401.858 812.521 401.7C810.962 401.454 810.156 400.471 810.409 399.099C810.74 397.312 812.275 397.298 813.792 397.309C815.266 397.314 815.72 397.414 815.843 396.749C815.938 396.237 815.622 395.93 814.885 395.814C814.147 395.697 813.813 395.801 813.507 396.523L811.281 396.171C811.731 394.589 813.005 393.977 815.19 394.322C816.094 394.465 817.062 394.732 817.713 395.391C818.184 395.864 818.253 396.346 818.078 397.288L817.548 400.156C817.419 400.848 817.286 401.569 817.446 402.25ZM815.52 398.495C814.99 398.654 814.434 398.637 813.885 398.664C813.249 398.692 812.934 398.928 812.846 399.399C812.749 399.925 813.038 400.299 813.622 400.391C814.416 400.516 815.213 400.158 815.384 399.229L815.52 398.495Z" fill="#D3BEFF"/>
<path d="M802.564 399.9L803.887 392.751L808.41 393.466C809.648 393.661 810.633 394.302 810.386 395.632C810.256 396.338 809.845 396.701 809.187 396.925C809.999 397.339 810.32 398.002 810.156 398.889C810.033 399.554 809.68 400.069 809.149 400.384C808.439 400.814 807.727 400.716 806.961 400.595L802.564 399.9ZM805.649 395.924L806.915 396.124C807.555 396.225 807.886 396.064 807.976 395.579C808.086 394.983 807.631 394.811 807.13 394.732L805.905 394.539L805.649 395.924ZM805.12 398.778L806.54 399.002C807.097 399.09 807.618 399.059 807.746 398.366C807.874 397.673 807.371 397.451 806.787 397.359L805.423 397.143L805.12 398.778Z" fill="#D3BEFF"/>
<path d="M802.448 396.787L797.104 395.943C796.937 397 797.436 397.706 798.438 397.865C799.093 397.968 799.533 397.752 799.942 397.247L802.155 397.596C801.409 399.075 799.93 399.711 798.121 399.426C795.88 399.072 794.455 397.407 794.884 395.093C795.301 392.835 797.18 391.506 799.435 391.862C801.801 392.236 802.958 394.03 802.486 396.579L802.448 396.787ZM800.373 395.076C800.454 394.247 800.061 393.586 799.156 393.444C798.307 393.31 797.686 393.725 797.38 394.603L800.373 395.076Z" fill="#D3BEFF"/>
<path d="M789.94 390.547L789.786 391.378C790.413 390.778 791.17 390.556 792.075 390.699C793.967 390.998 794.94 392.706 794.517 394.991C794.102 397.236 792.619 398.513 790.768 398.221C789.892 398.082 789.283 397.658 788.866 396.894L788.266 400.135L785.914 399.764L787.685 390.191L789.94 390.547ZM791.047 392.461C790.184 392.325 789.505 392.974 789.287 394.151C789.062 395.37 789.462 396.147 790.381 396.292C791.285 396.434 791.926 395.837 792.146 394.646C792.382 393.371 791.993 392.611 791.047 392.461Z" fill="#D3BEFF"/>
<path d="M786.288 394.235L780.944 393.391C780.777 394.448 781.276 395.155 782.278 395.313C782.932 395.416 783.373 395.201 783.782 394.695L785.995 395.044C785.248 396.523 783.77 397.16 781.961 396.874C779.72 396.52 778.295 394.855 778.723 392.541C779.141 390.283 781.02 388.954 783.275 389.31C785.64 389.684 786.798 391.478 786.326 394.027L786.288 394.235ZM784.212 392.524C784.294 391.696 783.901 391.035 782.996 390.892C782.147 390.758 781.526 391.173 781.22 392.051L784.212 392.524Z" fill="#D3BEFF"/>
<path d="M779.119 386.044L777.294 395.908L774.691 395.497L776.112 387.822L772.758 387.292L771.337 394.967L768.735 394.556L770.561 384.692L779.119 386.044Z" fill="#D3BEFF"/>
<path d="M782.578 527.974L782.204 529.997L774.452 528.773L774.457 528.745C774.947 526.099 776.759 525.672 779.337 524.511C780.01 524.204 780.766 523.91 780.915 523.106C781.051 522.372 780.637 521.822 779.83 521.694C778.605 521.501 778.145 522.441 777.968 523.396L775.727 523.043C776.168 520.66 777.644 519.267 780.316 519.689C782.501 520.034 783.674 521.432 783.328 523.302C783 525.075 781.675 525.579 780.152 526.222C779.156 526.65 778.703 526.778 778.027 527.256L782.578 527.974Z" fill="#D3BEFF"/>
<path d="M771.698 526.1C770.209 525.865 769.379 524.778 769.64 523.365C769.902 521.952 771.09 521.184 772.579 521.42C774.054 521.653 774.868 522.751 774.609 524.15C774.347 525.563 773.187 526.335 771.698 526.1ZM769.069 527.923L769.359 526.358L773.965 527.085L773.675 528.651L769.069 527.923ZM765.632 527.38L763.533 521.616L762.556 526.895L760.065 526.501L761.842 516.9L764.361 517.298L766.437 523.03L767.408 517.78L769.886 518.171L768.109 527.772L765.632 527.38ZM772.32 522.662C771.847 522.587 771.435 522.879 771.297 523.627C771.156 524.389 771.428 524.774 771.929 524.853C772.416 524.93 772.826 524.652 772.967 523.891C773.105 523.142 772.821 522.741 772.32 522.662Z" fill="#D3BEFF"/>
<path d="M868 164H914V559H868V164Z" fill="#FEAA46"/>
<path d="M906.923 182.351V187.471L901.064 188.348V194.576L906.923 195.452V200.111L874.631 194.945V187.517L906.923 182.351ZM896.682 193.93V189.04L880.351 191.485L896.682 193.93Z" fill="white"/>
<path d="M911.259 228.772H906.923V239.613H911.259V244.549H902.402V242.565C901.848 242.135 901.249 241.842 900.603 241.689C899.957 241.504 899.157 241.381 898.204 241.32L874.631 240.166V225.958H902.402V223.744H911.259V228.772ZM898.112 236.337C899.342 236.399 900.265 236.553 900.88 236.799C901.495 237.014 902.002 237.337 902.402 237.767V231.125H879.244V235.415L898.112 236.337Z" fill="white"/>
<path d="M906.923 280.059V285.271H874.631V280.751H895.067L887.963 278.905L874.631 274.754V269.172H906.923V273.739H884.18L892.115 275.815L906.923 280.059Z" fill="white"/>
<path d="M874.631 325.334V309.649H879.244V314.954H906.923V320.029H879.244V325.334H874.631Z" fill="white"/>
<path d="M906.923 360.614V365.688H874.631V360.614H888.47V354.847H874.631V349.68H906.923V354.847H893.083V360.614H906.923Z" fill="white"/>
<path d="M906.923 390.194V395.315L901.064 396.191V402.419L906.923 403.295V407.955L874.631 402.788V395.361L906.923 390.194ZM896.682 401.773V396.883L880.351 399.328L896.682 401.773Z" fill="white"/>
<path d="M902.356 450.958C902.356 450.374 902.325 449.897 902.264 449.528C902.202 449.129 902.064 448.806 901.848 448.56C901.602 448.314 901.264 448.144 900.833 448.052C900.372 447.929 899.772 447.852 899.034 447.822L874.631 446.991V432.644H906.923V437.811H879.244V442.24L898.758 442.793C901.71 442.886 903.817 443.516 905.078 444.685C906.338 445.823 906.969 447.652 906.969 450.174V450.958H902.356Z" fill="white"/>
<path d="M874.631 489.59V473.906H879.244V479.211H906.923V484.285H879.244V489.59H874.631Z" fill="white"/>
<path d="M906.923 512.62V517.741L901.064 518.617V524.845L906.923 525.722V530.381L874.631 525.214V517.787L906.923 512.62ZM896.682 524.199V519.309L880.351 521.754L896.682 524.199Z" fill="white"/>
</svg>
