<svg width="390" height="844" viewBox="0 0 390 844" fill="none" xmlns="http://www.w3.org/2000/svg">
<g clip-path="url(#clip0_17_77)">
<rect x="15.5693" y="439.5" width="358" height="19" stroke="black"/>
<rect x="15.5693" y="735.5" width="358" height="19" stroke="black"/>
<path d="M188.267 542.085L191.729 556.932L177.068 561M241.412 501L240.801 527.441L267.068 528.864" stroke="black"/>
<path d="M261.395 508C261.395 508 238.617 524.859 230.395 540.304C214.389 570.373 212.382 604.219 212.362 646.155C212.352 669.342 217.833 705.277 217.833 705.277C217.833 705.277 222.129 667.845 220.467 643.92C218.485 615.389 220.467 599.749 205.676 572.201C198.856 559.5 177.31 548.634 177.31 548.634M192.911 586.829V590.283C192.911 590.283 207.086 587.876 211.755 593.737C215.963 599.02 189.67 612.835 189.67 612.835L174.068 726H267.068L242.957 607.959C242.957 607.959 214.591 601.254 217.023 594.55C220.071 586.144 237.689 584.798 237.689 584.798L237.081 580.938L192.911 586.829Z" stroke="black"/>
<path d="M237.748 545.241C240.09 538.769 245.083 532.23 241.212 527.962C237.261 523.606 230.617 527.148 226.541 527.962C222.466 528.776 210.088 536.807 204.536 530.401C198.016 522.879 205.004 498.507 218.595 486.898C233.673 474.019 259.57 473.043 276.665 487.915C296.516 505.185 297.666 538.568 277.276 555.202C263.886 566.125 236.321 571.872 233.469 561.707C231.674 555.31 235.099 552.559 237.748 545.241Z" stroke="black"/>
<path d="M202.007 556.113C198.046 555.965 193.586 554.377 191.92 557.244C190.221 560.17 193.325 563.187 194.484 565.275C195.643 567.363 202.213 572.732 199.669 576.894C196.681 581.781 182.087 582.225 173.342 576.818C163.64 570.821 158.578 556.815 163.75 544.851C169.757 530.958 187.873 524.481 200.564 532.73C208.897 538.146 216.868 552.229 211.789 555.571C208.593 557.675 206.485 556.282 202.007 556.113Z" stroke="black"/>
</g>
<defs>
<clipPath id="clip0_17_77">
<rect width="390" height="844" fill="white"/>
</clipPath>
</defs>
</svg>
