<svg width="1440" height="1024" viewBox="0 0 1440 1024" fill="none" xmlns="http://www.w3.org/2000/svg">
<rect x="24" y="963" width="1392" height="39" stroke="black" stroke-width="2"/>
<path d="M888.858 947.374C888.858 947.374 858.353 909.569 840.692 914.031C789.931 926.855 757.923 973.627 686.191 942.244C592.392 901.207 631.018 815.283 636.531 787.071C640.041 769.114 624.5 744 624.5 744" stroke="black" stroke-width="2"/>
<path d="M888.859 946.092C888.859 946.092 918.647 909.57 936.308 914.032C987.068 926.856 1019.08 973.628 1090.81 942.245C1184.61 901.207 1145.98 815.284 1140.47 787.072C1136.96 769.114 1152.61 744.752 1152.61 744.752" stroke="black" stroke-width="2"/>
<path d="M889.961 543.411C889.961 543.411 858.353 580.317 840.692 575.855C789.931 563.031 757.923 516.259 686.191 547.642C592.392 588.679 631.018 674.603 636.531 702.815C640.041 720.772 624.387 745.135 624.387 745.135" stroke="black" stroke-width="2"/>
<path d="M888.859 543.795C888.859 543.795 918.647 580.317 936.308 575.855C987.069 563.031 1019.08 516.259 1090.81 547.642C1184.61 588.679 1145.98 674.603 1140.47 702.815C1136.96 720.773 1152.61 746.034 1152.61 746.034" stroke="black" stroke-width="2"/>
</svg>
