<svg width="834" height="1194" viewBox="0 0 834 1194" fill="none" xmlns="http://www.w3.org/2000/svg">
<rect x="62" y="650" width="709" height="27" stroke="black" stroke-width="2"/>
<rect x="62" y="1107" width="709" height="28" stroke="black" stroke-width="2"/>
<path d="M383.772 812.015L389.196 835.303L366.224 841.684M467.047 747.573L466.09 789.046L507.249 791.279" stroke="black" stroke-width="2"/>
<path d="M498.355 758.53C498.355 758.53 462.644 784.97 449.755 809.192C424.66 856.349 421.514 909.429 421.484 975.197C421.467 1011.56 430.06 1067.92 430.06 1067.92C430.06 1067.92 436.796 1009.21 434.19 971.692C431.082 926.947 434.19 902.419 411.001 859.217C400.31 839.297 366.531 822.256 366.531 822.256M390.99 882.158V887.574C390.99 887.574 413.211 883.8 420.531 892.991C427.128 901.275 385.907 922.942 385.907 922.942L361.448 1100.42H507.249L469.449 915.295C469.449 915.295 424.978 904.78 428.79 894.266C433.569 881.083 461.19 878.971 461.19 878.971L460.237 872.918L390.99 882.158Z" stroke="black" stroke-width="2"/>
<path d="M461.181 817.073C464.852 806.91 472.675 796.645 466.609 789.943C460.418 783.104 450.007 788.666 443.621 789.943C437.236 791.221 417.84 803.831 409.14 793.773C398.924 781.963 409.874 743.698 431.17 725.471C454.795 705.25 495.375 703.717 522.162 727.067C553.268 754.182 555.07 806.596 523.119 832.712C502.138 849.862 458.946 858.884 454.476 842.926C451.663 832.882 457.03 828.563 461.181 817.073Z" stroke="black" stroke-width="2"/>
<path d="M405.253 834.087C399.042 833.854 392.049 831.364 389.438 835.86C386.773 840.447 391.641 845.177 393.458 848.452C395.275 851.726 405.576 860.144 401.587 866.67C396.902 874.332 374.02 875.028 360.308 866.551C345.097 857.147 337.16 835.187 345.27 816.429C354.688 794.645 383.092 784.489 402.99 797.423C416.057 805.916 428.554 827.997 420.591 833.237C415.58 836.535 412.275 834.35 405.253 834.087Z" stroke="black" stroke-width="2"/>
</svg>
