<svg width="1000" height="631" viewBox="0 0 1000 631" fill="none" xmlns="http://www.w3.org/2000/svg">
<rect width="1000" height="631" fill="#FAF7F2"/>
<rect x="71" y="57" width="858" height="517" stroke="black" stroke-width="2"/>
<path d="M741.973 410.75C755.66 376.418 826.283 366.011 818.965 356C810.743 344.75 771.125 347 771.125 347V341H869.048V347C869.048 347 824.198 344.75 827.188 356C829.341 364.102 903.692 371.999 913.151 410.75C922.121 447.5 857.088 548 857.088 548H804.763C804.763 548 722.538 459.5 741.973 410.75Z" stroke="black" stroke-width="2"/>
<path d="M804.185 529C804.185 529 823.031 415.379 823.577 358.192C824.723 237.984 751.975 84 751.975 84M751.975 84C751.975 84 748.651 104.272 745.262 116.963C743.21 124.65 740.303 128.547 739.295 136.441C737.031 154.181 748.443 162.977 751.229 180.641C755.286 206.359 747.499 231.584 751.229 247.317C759.819 283.543 801.949 316.988 819.103 313.992C836.257 310.995 863.148 260.807 857.142 222.594C852.329 191.977 828.798 177.645 813.136 156.668C801.569 141.176 803.302 127.174 790.76 112.468C778.556 98.158 751.975 84 751.975 84Z" stroke="black" stroke-width="2"/>
</svg>
