<svg width="1440" height="1024" viewBox="0 0 1440 1024" fill="none" xmlns="http://www.w3.org/2000/svg">
<rect x="24" y="963" width="1392" height="39" stroke="black" stroke-width="2"/>
<path d="M363.003 949C363.003 949 326.629 924.166 295.5 913C268.37 903.269 240.984 913.655 203.258 924.128C169.5 933.5 140.059 924.128 122.089 910.052C83.0223 879.45 101.471 807.118 93.8743 776.516C89.4979 758.885 70 733.395 70 733.395" stroke="black" stroke-width="2"/>
<path d="M362 949C362 949 399.372 923.771 430.502 912.605C457.632 902.874 485.018 913.26 522.743 923.734C556.502 933.105 585.943 923.734 603.913 909.658C642.98 879.055 624.531 806.723 632.128 776.121C636.504 758.491 656.002 733 656.002 733" stroke="black" stroke-width="2"/>
<path d="M363.003 519C363.003 519 326.629 543.834 295.5 555C268.37 564.731 240.984 554.345 203.258 543.872C169.5 534.5 140.059 543.872 122.089 557.948C83.0223 588.55 101.471 660.882 93.8743 691.484C89.4979 709.115 70 734.605 70 734.605" stroke="black" stroke-width="2"/>
<path d="M362 519C362 519 399.372 544.229 430.502 555.395C457.632 565.126 485.018 554.74 522.743 544.266C556.502 534.895 585.943 544.266 603.913 558.342C642.98 588.945 624.531 661.277 632.128 691.879C636.504 709.509 655.5 734 655.5 734" stroke="black" stroke-width="2"/>
</svg>
